<mxfile host="app.diagrams.net" agent="Mozilla/5.0 (Windows NT 10.0; Win64; x64) AppleWebKit/537.36 (KHTML, like Gecko) Chrome/127.0.0.0 Safari/537.36" version="24.7.7">
  <diagram name="第 1 页" id="dhWI9DfPCG2ErvWXB-vI">
    <mxGraphModel dx="2048" dy="759" grid="0" gridSize="10" guides="1" tooltips="1" connect="1" arrows="1" fold="1" page="1" pageScale="1" pageWidth="827" pageHeight="1169" math="0" shadow="0">
      <root>
        <mxCell id="0" />
        <mxCell id="1" parent="0" />
        <mxCell id="78GjNDT4BSa-AALz03YL-1" value="" style="shape=image;verticalLabelPosition=bottom;labelBackgroundColor=default;verticalAlign=top;aspect=fixed;imageAspect=0;image=data:image/png,iVBORw0KGgoAAAANSUhEUgAAAMgAAADICAYAAACtWK6eAAAAAXNSR0IArs4c6QAAGD5JREFUeF7tnQkUdVVVx/+WJs5lVE6p5QCOCDgkolYKKQ5kWJCkWanlQOGUEpgDaIqiiZStVq0SBwzREANF0ZwIFXBEzTQHVCQlRFMiJer85D7X/Q7nvrfvvecO57691/rWB+8743+f/z3TPntfTS59EfhpSQ+VdFdJe1Z/9y3T84+DwDmSzpXE32+W9I242quN047F1rKvpNdK2nmxPdyejl0k6WBJb6932QnSbQBcQ9LRkg7tlt1zzRSB/5N0jKTDJF1OG50g3TR1XJiOn9gtq+cqAAH0e4gTpJum9pb0vm5ZPVchCDCT3FPSB30Gaaexa0n6tKRbtMvmqQtE4LOS7ugEaae5h0l6U7ssnrpgBB7iBGmnvSPD5u2Idlk8dcEIPMcJ0k57p0rar10WT10wAm9xgrTT3n9I4mLQZTsQuMAJ0k7RnG5YxHG1oDRtGpMul6DI+0q6g6QTJH1zYMxNoPr90sBayFO8SZelE+RJkl5R4cWx3D6SvpQHv2QpJlCdIANqIF/RJl2WTJAbSjpf0nVqmEGOe0n6aj4cdyjJBKoTZCD08xZr0mXJBLmfpDMSmH1B0r0HIokJVCdI3pE8UGkmXZZMEHA7u8G8fKiZxASqE2SgIZ23WJMuSycIJh9nSrppArshSGIC1QmSdyQPVJpJl6UTBOzGJIkJVCfIQEM6b7EmXS6BIGOSxASqEyTvSB6oNJMul0KQsUhiAtUJMtCQzlusSZdLIsgYJDGB6gTJO5IHKs2ky6URZGiSmEB1ggw0pPMWa9LlEgkyJElMoDpB8o7kgUoz6XKpBBmKJCZQnSADDem8xZp0uWSCbCLJxyXdTdL3WuBuAtUJ0gLR6ZKadDlnguCM7R6Sbly9weAdxuoPb8NzyOGSXtCiIBOoTpAWiE6X1KTLORHkBpL2r/78SmSEOBSMbwueKx7YonATqE6QFohOl9SkyzkQZHdJR030lPUzknZtoSMTqE6QFohOl9SkyykJcuvKOyGeQqYS3EwyW1nFBKoTxArnpOlMupyCIBgW/qmkx00Kz5WV+x5kBkqYqAmzJAh7jNdIuq4BlAsqS128b39F0pervz9vyLtKAhnxgvhziTznSbpTi7JIagJ15BkEV0S/Hp4c79KyL3NP/q/VM+rnDdRQky7HnEGeJWlTZ3HK9gZJH5D0xZ7ArCMH5OPlYds6TKCOSJD3V/3oCdWss79XEn4HcotJl2MQZCdJx1dfuVQnaegpkiDQJzKhADl4J5JyEcpzXMjR5e26CdSRCIJz5WMz4TX3Yp4g6ZWZG2nS5dAEuVG4y3irpLs0dI6gJexHuLTLJTeTxJc1RQ6Wajif7kKOuS2xPrIG11xYzqWcD1V3YjnbMzlBrlktlVLkuCzMFgdIOi1nj6uXhUPMHKtmmkAdaQYBQzDeBvnPAYIUmXQ55AxyYsOy6uuBOA8IF4J8AXPKUMuqehtNoI5EkFRbcutzqv7Opm+5AV0NJhw8c7oSy6cq31VsknPKkMsqJ8hmTeUeR4smSFOIAI5pMQ7Ev21OYeZgz3HLRKFdT6ua2jfVFzXVntkMogFmzNn0LTfzcebG0en1Io1eWm2yuHvIKWOSg3bPiSAfDpFZMdNZCUvWPXKCO2F/Z9O33AR5saSnJZRENNh3ZFYexTXdA3BahfO4tvccm5o4J4LcPwzgZ0vaTdLHwlf8uQ2O9Db1ad2/T9Xf2fQtJ0Fu3nB8+iJJz+yjpYa8TZ4V+x7lznHADACfqcipCGJqXM9Epr7lJAgmJMSZrsvXgmkJRokssXJLyjdvn0tAS/tMoA6wJre0bYg0S+6vqW+5CHLnapqPlfTIyvZqCOVRZuzdnaVc7mVVve0mUJ0gQ6k7a7kmXeYiyMnVQ6d6D86StFfWLqULY6PKYyvW4R4fJC/gpkFU6AfB1LccBCH8wHcSetlTEqcRSxITqIUOmJSeltxfU99yEOThlQVuHeCPRkeQSyGJCVQnSBHqNukyB0Gw1GWvURcsc3lGuzQxgeoEKULtJl32JQj5L5F0/QiS24YTLUKiLU1MoDpBilC7SZd9CcJDlndHcGBvRVDNJYoJVCdIEao36bIvQZ4ans++JILjb0L4s8cWAVH7RppAdYK0B3aCHCZd9iXIMZKeEnWurSOECbDpXKUJVCdIZ3zHzGjSZV+CEJv8oKhXj6ge24/Z2bHqMoHqBBlLHb3qMemyL0HeI+k+UTO5HOSScIliAtUJUoTqTbrsSxBOqrC1qgu+dC8sAqL2jTSB6gRpD+wEOUy67EuQ7wbviNeOOte3zAmwMldpAtUJYsZzyoQmXfYZzOS9ItHDPmVOCZilbhOoThALlJOnMemyz2B2gjTruA+uk4+cWgNMg6jQD4Kpb30U6QRxgqwQ6DOOpvogOEEGQN4EaqFf1BRcS+6vqW99mO8ziM8gPoOs+QpvI0FwWUQYuHVCGlyuLkFMX9lCZ0xT33wGaTeM8cyCx411cnrlObJdyfNMbRpETpBm5cUADuFDdU5DZ5/wjJioVOsEbyvvmlOje7TFCdIDPLISzKYenOakNWEOelY1m+xPDu9fXtrQmkMlvXw2Le3fECdITwzx0I717u2Co7Z3Breij68iQfUsdvbZ6S9EwYvK5dWMAWmIirQkcYIsSZvel+wIOEGyQ+oFLgkBJ8iStOl9yY6AEyQ7pF7gkhBwgixJm96X7Ag4QbJD6gUuCQEnyJK06X3JjoATJDukXuCSEHCCLEmb3pfsCDhBskPqBS4JASdIgzaJt7G/pLtLumsVgHNJil9yX86VdI6ks4OH/TeHIEMX9eisEyQBHubcr5J0kx7AetZ5IIB19SE9HPk5QSI9/l0IYfboeejWW5ERgVOD5fWjJF3cskwnSA2wY6uvTUsMPXkhCHR5yOUEqZTLsmqIOOaFjJ2taSZe9/G+bxUniKSdJX26+tsKnKcrEwE8Yd5e0vnG5jtBJD09uA892giYJysfgeeHR15HGLvhBJH0+jCDHGgEzJOVj8ApiZDdTb1ygkj6nKRbla9374ERAfwIWPXtBJFkBcGIvycrAAGruyfr2LCWNydoTH2jY6aEhfo+mpNCxmhLbl1ay9vUt/NCzJg/kHTmpoQj/rupb06QETUyQlUmpbf42FnLs3SNpfxtLAlHSmPqmxNkJG2MVI1J6RMRBAjmtBQzYeUEGWnkjlSNSektBqq1PEv3/i3YhO1iSThSGlPfnCAjaWOkakxKn4AgWBhz//KPI+FgqcaElRPEAmU5aUxKb0GQcnrevqUmrJwg7YGdcw6T0p0gP1ChCSsnyJyHe/u2mZTuBHGCtB9ay8jhBLHr0YSVzyB2QEtIaVK6zyA+g5QwmIdooxPEjqoJK59B7ICWkNKkdJ9BfAYpYTAP0UYniB1VE1Y+g9gBLSGlSek+g/gM0nYw30vS10MIOUI4f7tt5hmld4LYlWHCattmEHx9/WoVW5Dgo8Q8j2OaYzN0vCRcIF1gx3sWKU1K9xnEZ5B4tEKCl4Ugmwe1GMZXBAcHJ0o6UtKnWuSbMqkTxI6+CattmEGIvPvCELr5+nbsrpIST5MlONQzKd1nEJ9BQOBa1VLp4T2IUc96lqQHhvDP38pU3hDFOEHsqJqwWuoMcm1J7w/Om3c34PWZFu8UiIN+jxlv5E1K9xnEZxC8mj+0gRxflXRM5QH9I5K+U23U8WK/R0WA/dYQ67TgOf1BBuJNkcQJYkfdhNUSZxCc4OEMLyX4AGNPcskGHO8j6XWSbtqQjj3NYXZdjJbSpHSfQbZ3BmEG4PVaLJdK+p3qVMo6WomRclzwG/ZbDRl2k/Rxa2EjpXOC2IE2YbW0GeQkSQckMHqCpFfasdsh5asbSHKypId1LHOobCal+wyynTMIX/xvJpT/bkm/1GNEcjzM5vzGiTK4aPxGj7JzZ3WC2BE1YbWkGeRgSa+J8MFsZFdJX7Pjlkz5i5LelSAfdyPckcxFTEr3GWQ7Z5ATEjflxMIgJkYO+UAiVuM/tLydz9GOdWU4QewIm7Ba0gyCOcjtInz67D1iqF8cjoSfFv1IXBXibcxFTEr3GWQ7ZxAscdkT1OWekvjy5xDuVbhfqcuFDXuTHPV1KcMJYkfNhNWSZpBUhzE3ucyO2dqUNwwxHIkaWxfKpo65iEnpPoNs3wwC0bG+jSWnL9gx6uhLNCeIHUETVkuZQcYYvGPUYVdvOqVJ6T6D+AyyGj4+g6SJlBOXvqSeKr/pY+IziF09PoPYsSohpRMk81LCCVLCsLe3casIAiypDudeSoxRh13FV01pUnqHD8dDQlXPqYJ/YtKzLXLhUpZYTpArh+wQBHlG9WR5W0hR7+fpSyHIGMufMeroOwhzEwQjT2zQtlWOdoLYVb+NBHmnpF+2Q7S4lAc7Qew63UaC8Hzgx+0QLSrllyTdwQli1+k2EgTTGkxstlH2Jq67E8Su+m0kyBmS7meHaDEp/0LSk+iNE8Su020kyP0lvcMOUfEpOeTgWcPhki5fEkH8mHe4Y96nVG6Sih/9GzqA8/JHSOJg4odSygyCSTmPoXig9N8NHR3jEq9NHZY25x50uY95V+3bRdJTw5p8H0m3zN3oCcvDX8Hqz3tS7SiBIHgO4a053hJx8sbb81MSnWkzeLvqxFrH/lWbr7uhzV3b0ZRvKILkbmcx5ZVAkPMl/WwN0X8Pg+/WMyfI54MzB8IrrKSpzbkHihMkM6IlEMT61bam6wOhtQ5ruj5tSeV1gmRG1AnSDlDrwLema1f75tROkM0YtUrhBGkFl9li2AnSDtfZpi6BIMTjiIPf/KSkiyNUU2YR7FVY/+eQ24RjQMKz1YWb5p2j32jbRdFv9GEMkw2fQXJoulZGCQRhgP981O87Svpk9BtxPm4b/UbwnDdmwuw3wlEzjuLqQhtoS134/09Ev3020bZMzdqhGCdIZlRLIMgHJd096jc3vDtc6ASr0/eG3+4dpTtK0rMyYUbIA95G1IU20Ja67Cvp9Oi3fwk30kTSHVqcIJkRLoEg/5QIWPPIhB/el4bwaE+O8CEvr+FyCIOewV+XVJwQ/PUSIbcuOJwjuu7Q4gTJjHAJBHmRpD+O+n1s8OT+R9FvWF++L/rte5KIHBUvedrCyLKJaFRXjzISju1D0W8YuuHytC7PD7Y9R7SttEN6J0gH0NZlKYEgDwhOo98adYIwajdLdAxXoD8T/Z7aJ7SBcafw9f9oIo7hV6ILzFWZxFaPQyVgETvGy7ylEuQ6kvjw3Lcydfli+O9/Dp4uDwnRxL7bRplt05ZAEMDBxCSWPUMcwg9HP+JcGmvMWP48sfyyYvWXVdi2OD0zGDNZXZhRUr6AMZNpsiGztsOSbokEuYWkt1VhLGIMsM0j8jCPmwaREghCx4lYG29yX9IQixDQiAkSy99WyzLrF+d6kl4m6fcSZbFku3Pi99Q+CCM44ouMIUsjCDEi0f06A0lmE5bXrCqySykEeWIVL7AOAI6jAQ6v7nVh4J4j6RoJtL4s6Td5KbYBSQb0ayXdJJHufyTdLbGvwbM8XzKWZHX5/VDOX2fXXLrAJREEcqAnZpBNAu58QLOTpBSCYDrOmj9+/vnDl18Rgnz1CZ7TJJRFAE72FgT9/LHqPoNl253WRLelPIJ6Qp5Y/ipEsoIMdSE8WxySYZOy+/z7UgjC/pJj+7rB5yZcvhD2eUQnRrfZpBSC0OEjG06CbiUJ69lY2B+wicspLKF4FxFL6padNDhbe27OBmwoawkEsSyrmmDIvtwqiSCcTjGVXjNCh2NW1qDfT6DG8TB3FfSzjzDwKIt9Tyy0h435XaJ/4Ij5RlVg0T51t8lbOkHaLKuacMm63CqJIADyvIab8b+v4qCnQOPB1Ss2LJvWDUL2LTzgTz3SIt/rqn1NXAY3+NzkjyklE2TdzMGgT+1Fmn7PNpOURhAGW9MpVerYtT44fzcYOP6hpN2MI5YjZJZp66LYNr3XZm+zu7GenMlKJQh7Dk6rUiRgT8EKgUEfC4c05EvdiUEe8vXak5RIEG7Gz24YVdhKHb1hxLFpfnD1xp3//qkqPY/2CRfNxSJmJZvinz8zLPf+rKEuyAFJxpYSCcLgxgIidZTL4Ma+DnI0PSEgH/lTJCEf+TuTpESCMOgw3fiThtHHCdNjMsYmTFXTtKxaLQOfPTYzqvpKI4hl5lhdAq57Y8PMM8hMUipBfqRa+x/YMBA/V1nevinzQMXknVkjNr9fVYM5PPcs1oGauXnmevseWuRo97oNOfcZ3GvUb8g3PUKDJNybUG4snTfupRIEAH403F2ctMFKFlN5NthcHPYRTEiOqwwfm8o5WRLvT/63T0U981qJOTVB2pIDWDYRhDTZSVIyQVZjKWUOH4+z04Ij4jdUhErZdaXGJa8YGfDMUrGZe5x+LHP2TfwphSB86fdKdAZDT2aO1IbcQhCKZE9C+SkriNbvcpZAEEBhY/70TaOn+ncIdVZ1P3FJ9XSXJRtPYn+i+hsl7WcsD3N8NuxzkBIIgmUzPn9jqW/IU1haCbIiSdPGnZgnOIszyVIIQmfpOBv02NTcBESHRJjWHxBmF75Kc5ESCIK5EL7OsNJeSWrPEWPahiDkTS23MFS9ecKfQaP+lkQQOoknQ268MXvHfmsIAWRmLMxOrMu1Idph/cqm0k29B2FfyOUtwnt9lrCpZVW97W0JsppJ3h4+nJgCIdSL/Z5ZlkaQVcfxNHKYJC7ycgpvTVhS4c1kjlLCDLLCjcdPvNTkyByPNJukC0Eok2Uz7mo/lnhxuqnOxYQ/aOoopyW/Vm38uDBKbdzWgcTUz1qWM3aOjLlInLOURJC2OHYlSNt6dki/1BmkCRTcAuEeyCLcdWBCXZI4QTJra9sIQn+vMGI49Trd2Mwdki2VIOwt/ysChP0frz4HFSdIM7xOkEGHXqvCUzP/KM74nCBOkFYjdaLEbOjju4tR3vo7QZwgE435VtVi38ZpV11e3/AOp1XBmxI7QZwgm8bIHP499e4GjzO5j/Gv0lcniBNkDgTY1IYTJB0UJcK0KPUEelNZrf7dCeIEaTVgJkiMxxls5mLLiFY2VV3b7QRxgnQdO2Plw3Mi1th1+XblAmrwpwVOECfIWAO9az043XtslPn4cIn7210LbJNv2wgCNku9TFtq3/CcGTvfw4o692vRJG+2jSB+k37lMCjlEpR4L1hN1wV/Y7zdGcMZ+OKNFVNfBZ9ByiAI70V4S07Mx7owczCDjCI+g/geZJSB1qGSJlez+E4+r0N5nbI4QZwgnQbOwJmaPOXzYhTn4aPJthFkqRvZ1YBZyvKRY12Od2PhGS3PdUeTbSQInuA3udUn9DQx1kuTJRDkBdVr0Bh7nujiOnZU2UaC4Etr0yYPB3CxacOoiulYWekEwc0S7pli4e0HH7WLOuLSOds2EoQwBUSsXSdEqeobGbezUnpkLJkgbL4JI0E8x1iw5sV6d3TZRoIAMp7gCeyZEqbxlceN0RXSs8JSCcJ+g5k9RQ5CXkzl63gr70FWY3AXSY+r9hoMLPYdmDVY36z3HMuDZC+RILhpwlNMSt5YebccBCxLods6g1iwKTFNSQQhMhePoPA6kxJiSP7CWDfmTcp2gpRIg+Y2l0IQHLjxngMvhykheBHLLmK2TCpOkEnhz175nAmC6cjjqyCoxG5sEk6xHjVwfBcz8E4QM1RFJJwbQXDX86BqGcWMsM5ND20/IoTk5h5kNuIEmY0qsjRkKoIQKgKvlfzBmyV/E7Pc6iEff8cc5b4lCwoZC3GCZARzBkXlJgiDnECm1sCnXSAgQjEzB25eZydOkNmppFeDchMEj+upyLO9GlllPjHEtj88GB8SLm+24gSZrWo6NSw3QazltWnsqVWs+03WDG3KHCytE2QwaCcp2DqgrS8KuTxtClhq7eClVVhtiMFt+besGeeQzgkyBy3ka0NugmA8SJyVPTY0ERIQV54YgxdX9xf8N7ZVhLwrVtoQpNhOesN3QACXOTdwTGwIQBCCwxC00mU7ECAgEKdTLgYEIMgLg73LMwxpPckyEHh58FR46DK6MnwvIMiD53hBM3zXt7aGR4fHR6/a2t637DgEubqkc4MjLh4JuSwbAd5z3z4YCnJz7WJAYHXct2v1ym4nQx5PUiYCnHDtPbO47rNHsn4eXo9dPfuGewNbIzBKPI3WrZp5hvjC6DHhCBAgscJ0WQYC3w/L6KMqK9nLl9Gl8XqRulHl5vTVkvYarxle00AIfFLSgZL426UDAutMDrDg3Lf6w9rV9ycdAB45y2WSzgx7jTOqP7zMs4a9HrmpZVT3/zA32YyEyNiwAAAAAElFTkSuQmCC;fontFamily=Helvetica;fontSize=12;" parent="1" vertex="1">
          <mxGeometry x="-360" y="519" width="60" height="60" as="geometry" />
        </mxCell>
        <mxCell id="78GjNDT4BSa-AALz03YL-2" value="&quot;My name is Bob&quot;" style="text;html=1;align=center;verticalAlign=middle;whiteSpace=wrap;rounded=0;fontFamily=Helvetica;fontStyle=1;fontSize=12;" parent="1" vertex="1">
          <mxGeometry x="-810" y="540" width="120" height="30" as="geometry" />
        </mxCell>
        <mxCell id="78GjNDT4BSa-AALz03YL-3" value="" style="shape=image;verticalLabelPosition=bottom;labelBackgroundColor=default;verticalAlign=top;aspect=fixed;imageAspect=0;image=data:image/png,iVBORw0KGgoAAAANSUhEUgAAAMgAAADICAYAAACtWK6eAAAAAXNSR0IArs4c6QAAHk9JREFUeF7tXQmUHFW5/v7qSQK4a0LIdHVAxeWhqMeQrk5AdmUXNxQ3XEhXJ6Asbk/UJ0EfKirLk7WrBxDcRXkKKstTiGzp6gEXRHlolEe6epJAEMWFhEzX/1IzHZylllvV3ZXp9F/n5OScqX+/9+t7697//pcgj0RAIhAYAZLYSAQkAsEREIBI75AIhERAACLdQyIgAJE+IBFIFgEZQZLFTbj6JAICkD5paHEzWQQEIMniJlx9EgEBSJ80tLiZLAKJAKIXlh0I1m5NplK4eikCjm0l6iO95GOYrYmcF4DsKM0f7YcAJDpG0ygEIAmC1qMsApAEDScASRC0HmURgCRoOAFIgqD1KIsAJEHDCUASBK1HWQQgCRpOAJIgaD3KIgBJ0HChAGGc5dSslQnECst2ioBumBykWgCSoFEEIAmCNoNZBCDBjdP5fRAZQWYwFPxNE4AIQHqu06ZpsABEAJJmf+s5XQIQAUjPddo0DRaACEDS7G89p0sAIgDpuU6bpsECEAFImv2t53QJQAQgPddp0zRYACIASbO/9ZwuAYgApOc6bZoGC0AEIGn2t57TJQARgPRcp03TYAGIACTN/tZzugQgApCe67RpGiwAEYCk2d96TpcARADSc502TYMFIAKQNPtbz+kSgAhAeq7TpmmwAEQAkmZ/6zldAhABSM912jQNFoAIQNLsbz2nSwAiAOm5TpumwQIQAUia/a3ndAlABCA912nTNFgAIgBJs7/1nC4BiACk5zptmgYLQAQgafa3ntMlABGA9FynTdNgAYgAJM3+1nO6BCACkJ7rtGkaLAARgKTZ33pOlwBEANJznTZNgwUgApDE/a0fLgsSgAhABCAhERCACEAEIAKQRH1ArmCLCJtMsaxEfSRRb5yBTImc74dOs62t+sFXmWLJFCvxb5MAREaQ2J2nHzqNjCDjEZB70mPDAxCAtIK2g1x5LVMsmWIl+BkYZ+mHHwMBSB8CRM+bK0E409d1cg9yqkOrVFDTSYAEd0Re5diVg1Ts6QaNAKQ/AXImCCsFINGQEoD0J0BkBInGxvg00jA5iFQ+0hWDOJGsk9OOBOqVWPS8KSOIUqQEIGFh2mE3CgUgiuiQESQ0UDsyQGSKpYgRmWL15zeITLEEIIoREIBMjoAs806Kh4wg/QkQmWIp/n4KQPoTIDLFEoAoRkAAIlOskK4iI0h/AkSmWIq/nwKQ/gSITLEEIIoR6E+AyAii2D1kBOlPgMgIIgBRjEB/AkRGEMXuISOIAERWsWQVS/HnYkpXScLVI9m8MoIoNq6MIDKCyAgiI4jiz4WMIIDkYk3qBTKCyAgiI4iMIDKCTIyAFG1Q7w8ygsgIIiOIjCDqvxgTKOVEYUTYOrliJ2V/EvXR7cokABGASFWTkD4gABGACEAEIFMiIMu8ssyrOHGTEURGEBlBZASRESTsd0CWeWWZV5Z5ZZlXcVLVJ6kmiaLhw9TJZd5O2dRpOTKC9OEI0qlOJACRK9hi96V+6DTbgtIPvsoIIiNI7B8BAch4BOT6gwRdpx9+VQUgAhAvAjvsPkgC3Puy9MOPgUyxZIqVGC99ARDvPseAx6lZge8SB7WHGGUEiWisfgBID/XX1E0VgAhAsGiROWvDbG1XHm3Oy2jaPJd5HhN2BWMXAm1wNTysEW0YZTw8QDtvcFaf/0TqPXU7KRSAqAAkhEb1Ount1L6T1O6113GzH3/msw9hF4cSqADCPGDs37Nj2vc3ABvAeJgINTB+PkDu6gftoQ0x5cx4cgHIjG+i9gwcXFJcmmHtYDAfwMABAGa1JzGU+1cA/RzkDoO1mmOX/9BFXamIFoCkEuZ0leQKxde7rL2RwB4gnp+u9gnaiO4j8HXN0dGrR+6+4oHtZkcbigUgbQRvprFmjdJbCFgG8GEzzLZNAK52qXn1SPXyO2eYbaHmCEB6qbUCbNULxXeC6UQAB/WAO9cS6Oq6Xf5hD9gqG4W90EhBNuaM4vvZAwZhaQ/6cRuYrnZq5ctnsu0ygszk1gmwbfwbA58m0KIumf84gDoYfwUwH4T5AJ7eJV0/YJfPagxXftUl+W2JFYC0Fb50mQcXmbtoA3QWwB9pSzNhM5hWgVwHLjkA1QmuQ6TVZ2O2s8a+0APIpGfeXic9faedR+c3NZ6vEeYztPkE3o0JxxDw6rbsAf7CwFkN27qgTTkdZxeAdDyk3RGYyy8/jKn5GYDyCTU8CMLP2OUfNmqVHyWU4cu2W2H5HhmXDyfi1wM4og3ZM240EYC00ZqpsB53XCZXf85nmPGJuPoIfKcL3JoB3bTWtu6Iy5+EfvdF5oLRWXwYsfa61mrac2PKmVGjiQAkZuulSZ41zIMIY1Oq18TQ+xiDL+bmwNdH7r50u+495PZ9/6A7mlmxNV1lBYDnxfDBI712wB04+f+GL1kfk6+j5AKQjoazc8Ky+dIJRHxVDIlNgC7amjpy8Uzbwd49v+z5TdI8kHj/4nzs38tMyxu18uoYcegoqQCko+HsjLCcYZ7MgNfZlR4GrhwgXPRQ1fqFEsN2IhpcYr5Uc8dA4v1TTXl5AoxlTs365vYwWwCyPaIeojNrFM8g0OfUzOLvgfjidhMm5+77/mfM2ZJZQBoPkptZAOJBF1hA4EEACxi0XiOsYxfrmHg9E9YNNLGuSZvXN2pXP6pm67+osvnSKzXiFQyUVHmZ8clGzVKMi6rUaDoBSHSMUqPQDfPzAD4epZCBDUR0klMtXxtF6/f+BYvMZ23OYD/yUlLIW3WiPZPIafE8SuAfu0w/mk3ubXEyevXC8iJc90IQ5ijpZww5NauoRNshIgFIhwLZrphs3ryEaGzqEfXYzFRq1Mq/jiKc+H6hYe7nAvsB2L/NpdgItXQLkXsrmtpt9eHybVE25haX9meNLwWwVxSt956An9Zt67UqtJ2gEYB0IoptytAL5jfAeEeUGGL67qZdMic+suqSv0fRbnufM4rHM7RTAS6o8nSOjmvet1TDrnwtSmYub17nbTpG0Xnv05xuCUBUWqSLNDmj9DkGn6Gg4kuObX1MgW6MpHVU+FQAb1Dl6SLdzS7RRSPV8vVhOvRC6d/B/AUVO1yX9x0ZrtylQtsOjQCknei1yavni28EUeR3BAEfqNvWxSrqvJWiDNOpzLxchT5lmmvIpYvCpl6tla77Vex6Eu5uD3f5FKMARKUlukCjL1mehev+FMBLw8Qz4+hGzfqxigmti0u9USPuEVoV8Z2jYQxt3mXg9KCporeI8OQA/hKlkBjX12uWl97StUcA0rXQhgvOGcWrGHRCGBWBT6zblStUTMwa5rcIOF6FdhoN4UZ2cTsIG4loI7nNR0Y1bKQt2iMj91gbBxeZc3mWO2/AxVzWMvOYeS4Yc4l4X4C8w1mZ2HoJd4EG3uOsvmSNH6++xNwbLu6Nkkugz9ftcuw0nCi5294LQFQj1UE6lY1AAsp124qcJg0uMhdqA/AOH70qhol1An7CRDdv3ilzc5yP/qk69jzig3OeeHTzoZqGQ5jxOgAvi2HHOmL3bfXa0O1+PNm8eRQRohMrGUWnZg3F0KtMKgBRDlVnCPUlJ+bhZryp1TOCJfJNjl05PErjeK4WfgJgpyja8fe8igjn1w/P/ggrV7pqPPGo9IJpgPEBAO9S5WTGWxs16xo/+lzBXMGMS0JlMT9CA7Skfpf1R1WdqnQCENVIdYhOL5g/BeOQIHEM3NOwrX2i1OmFYhFMVhTdOC7wRyI+r25XwjuakjA1Iu9QFzNOB+hAJQ6iU5xq+UI/WpUNVAZf0rArJyvpikEkAIkRrHZJs4ZpelOnEDkPZdg96KHa0INhunSjeCpA0YeLGJtBOH909pbz1t9+5SPt2p+EP2cUT2KmD4Hwwmh+Ps2xK//lCxKVvaIYl7NG2zJOIQBRjVQH6LKGeTcBQcdk/+kSHztSrXjTr8Ant7i4mDWqRZnjnQUZJTpl3QxIYNztNe+bN/DkrHMBvDvSbpfz9eHK8FS6bL74YgLd0Sp25yuGgesatnVslI447wUgcaLVBm3k6EFsOtVKJUxF1limE7R6lBkMfKdhW8lWtKKEt/E+VzDPG592hT8MN9ewh5ypVDnD/DADXw7npnc7dvnrUTpU3wtAVCPVJl3Y6MHAHQ3bCj8UdeDKAf2JEe9cRNT3yRcc21LZmW/To2TsWcM8jYDzI7jvdnYeXIJVK0en0ul5cxVorEKk70PAL+Y8d87SNTdcuDmZhZO5BCCdiGKEjKjRg4iOr1fL3wkfPcwrCHhfGE1a6Rfthiy7uPgq0uiXYXK8My4N23r/NIAUikeAyVu5C3vOcGxLKWUlyhcBSFSEOvA+/NuDf+LYlaPC1OSM4ucYFDoquKN42sg91j87YG4qIsYrtOAfYcoI/Pm6XZm2CaiQ+fwgtMde5qy+pu0q9AKQLneHqNEDoKMcuxz4izi4uLhU0yi0XKcGd5+19tA9XXal4+IXGssWudDujjsqLlh68u6Z5havCIUeyEvau5zqZd9o12gBSLsRjODXDbMKwPAjU/mY1o3iNwF6e7Cazn6Udjkc08TrRuldAIekw/O3HLsy7SiAnjc/AILvvsmYEqL/dqrlN7XrjwCk3QiG8Ld2lT2A+D4a8Jqwcjx6xHybCJ+rV61PdtGFVETnCubZoWWNiI90qpUbJhoz78CTnj7nidHfAcgFxtfll68drvy2HScEIO1EL2r08O7+I5zpT0YVxy6bYSJ0w/SmXr6F2NLIZO1iaKaJjjgwdYNjW0dOZcoZ5vkMnBZsJ5/p2JXPtOOHAKSd6EUBJGx6xXxMWIXDXL70diYOruSh0RHO6vKNXTQ/VdH6ktLhcHnSKDHRAGJ6R71W/tbEv7WOEfsmOrbofu3YVpwkzmk+C0C61A3CplcEbJjz6Jzd16wJXqvX8+adQVXbVb5duuRWV8VmDfPbBLzNVwnjLqdm7Tv1nW4Ubw3L9yLiY+vVynVJDReAJI1c1OgRMr1i8FcbdiVwT6N130fwbrDLBzrDlZ93yfTtJlZfXDwAGq0KNID4XU61MmllSs8XPwiirwTxEOGqetV6b1KnBCBJIxcFkJDpFRjvDCuEpudLXwfxO/1UMOirDbscumHYJZdSEZs1SlcS2L9DM33DqZUnpdF75U15dMD7EA85RUm3u0RnjFQvi327lQCkC80etXo1+uSWXdf/0j+7ds89Pzhn0/M2jwDwLfpMAcl8XXBju4iMSMb8806PzhmcOjXVDdO7hGfarvv0Dwq+UGsOXLB2+NI/qTonAFGNVAy61tlw39WrqLpO2cXFt5JGQWkntzq2dXAMU3qSVDfMW4Kuk2OX39YYrnx3omO6UToSYKVz+wAeJpCpegWcAKSDXai1eeWV5glcm2fg9LCLYsKmVwR8um5bn+2gyTNSVM4w/4MB/+VZn2mWapbzBGf/yS69vjFc/llUAAQgURFSfK+ayg3Qi8Oqr+uG6dW69Z9eMS2u18qhqRmK5s5osly+tA8TTzsT0jL6z45tTbtKQTdM77jtC2I4th6ENzhVyw7jEYDEiGgQqW6YDQBeoeeo53HHtp4VRDRYKB6qMf1PwPs/OLb14igFO8p73TB/D+BFfv64xK+derBML5SuB/PRMf3/vebym8J22wUgMSM6lVzPm2vUjpOOcf7Wsa2XB6mMyNr9imNbXs2rvnh0w/SO3p7i56xflq9umF8E8NHYwWE6x6mVAwuGC0BiR/RfDHq+dC2I36gugm5y7HJgtZKsEXLmowvnrdXtTp+yVTr1Vj/NfmdFopMeA31Y49iW70jlcQhAEra94sm4ydKJL3eqlWWBU7W8eQMIvgDS3MwL4yxPJnRrxrAtXLziBa7W9C/jw7jRqVmTctRy+yx/OWfc3yRxgFk7plG7zLf+lgAkQURbJ+K8X7d4JT4ZZzk1a2UgQAzTuyv8lX7v549i9j33WFsSmNuTLIsWmbM2DODJAON9c6z0grkJrHjXyCTB/in1MoIk7DptzHeXObWyt6nl++QMcz0D831ernNsS2URIKFHM5NNN0xvw3TBVOu8XLa6be029e+6YXorX1Fn9n2ddWzLd7CQESRm35j/inc/bWDnne8jYI+YrCDmw+u1yk3+fCs13Rhp+r/jmmNXfA9dxbWhl+h1o2gH3Qvv2INb6wFPrg6pG6Z3qdArkvi4eeeBZ/iVYBWAxIzmeMVA8mrhxn400MvW2mXvkM+0p1XtfVqpmxbh9x3bektshT3OoBvm9wC82dcNTdOd1Zd5y+tPPSEjcGQkBtyBBX5XTgtAIkM3mUDPmx8D4ZyYbGPkO2HOs9bYFz7ux7vQWLHIRdN3E3Csnm7V+lASnb3ME7b5qiGzz1r70onn8Ek3zOT1hrWBF/lVmheAxOxB0WfEgwUGzXM9jrACBgRcULetyIJrMV2Z8eRhJwanFqrYY/FJu41qo+uSOuU2m68eufvyaaWIBCAxI9qND0HPhN0XmQuaA/A+Sv2eax3b8p9qxLS/l8h1w/w+AN/CC5lRDD50j/UUIFRqbYX5Tuzu73cNgwAkZo/RDXNtWDJimLiwKZbHpxsm+/GrVnyP6cqMJw+rJzZ1NM7llx/G5CY+guyOYp53WdDUoAhAYnYT3TC9kpazY7KNkYevYo0BJCina6NjW/OidI6NQhmUoui29/uwvaCJtumG6VWkn+tj74hjW9mJf8/mzfcQ4atJfAv7ARKAxIxozNyrydIjNgrDfjFVKyfGuU45pusdISfgsLpt3RwlLKzyol+H1gvmx8DJFk/CvvEEIFEtNeV9/PyrCQIIdznV6YUHtlGEde4muXutqw5F3v6aK5Q+xcwz9czInzf/bWD3R34Xfc/7gsKyf8uw5rsk7lfySP24wfQG1+C+bq095JtFLQCJDRDzHBCU7yufKj5ortv6BvEu1/GvlUX0ZqdajrwyOre4tD9rPFMLOvjWt/JrAr1QehOYvY90v8dybGvSVFI3TO+U4XExm9O7feuXTs16dRCfACRmRLP50hIiTn6BfUhHDzuqu3Ul+ArHtk5UMTfB4SEVse3TREwxp3x/BJ8z95GjF8w7wVga28gImwQgsSM69jGd7NdqPH068PbahUZpLxccVCpzvWNb0/KSfH99DTN4JErgb6dYwrJmp+rQDdNbwp2Wb+XR+WUk6HnzIRAWxrFVpb6YACRORFu02XzxaCK6PgGrx/KgYw/uOTWPaJss3TDvC7pKmVw6oD5cvi1KbzZvHkeESYUNonjSeD917yJIZ8Q00ffQmW6Y3mU7ce5rvzczisMn7qX42SMASdgzQqsARsh0SdsvqEaTnjfP3DrM+KbEE+HsetX6VJTJC/db8Rx3S9NL3PMvHkH0caAZehY7Sofve9Z8DziN0RLuc6rW3ipycwXzP5nhX5Tbb0o0fvuW8lEABjZoLh/jdxfiVPsEICot5kMzWFi+r8aud0dF7IfAH63bFd+79kK/cQjDTtXKqyiMugk37G5yFfk+U6I/ANg6Mvo/TPhUo2qdrSJbL5g1MBb70TLT0kat7F1F99QTt6qJ6lLzOK4TPGHHIRHjQyyB6hnFEvFRHWhr1G2sodMs0BtUazrphumtZu0fZEhYblicQIceFR67ph33P4F/FP5sf8M3UXNSZw+fHvpOryKqoDwl3os7k/bFOBUWkwFkibk3XNzrj3A+r1GrfDhOgHuZNiFINmXIffVDAfsa2XzxXCIKyt692bGtw1RippSaH5DFqiLfo9GN0o0Ah9rDhJMaVetSFZm6YXorhEvi9K2cUTqWwT8Ikb+awEN1u3KFig0TaRIBJJs/+XlEW6blrXiCd/TasX4B1vPmR0HwqmooPwQ+MajBklwFEKQ4a5QuJvBJoYb5XFAT5UirmuFFAJ4fRhu2ajeVL5s3TyfCeYHyAq58yBnmyQx4tkx86iD6Nbt8daNmXRPlT9D7RAAZ/+UobgZoWk4SM65v1KzXJzWoV/my+eVHE7ne9caB8/BJvjGGnJpVDPI3bClZ6droCYJV0mMY+LYG+nbU9M37tXbBxxMQfQ87Y7Ozy+DT/a5zngaO8TvgvW+LoHsHr3Fs662+P1CFZQdO/PuTjPsftoc2dKIvJQZI1jAfDDh2eq9jW76FBzph8EyWscfi9+42SrNPAOGEoKXaCfb/dhbcQx4MaMjIHXF2lzm1ocDz7VPjpBtmPfTSy20MhGFiup+ZH2Tgt6RRE+A9wXgJCHsHfTz7tUuTsGhd1fqFSptFpYqoLnGr6IpDkxggYXNFtDmvjePATKT1KnI8nHHfwtAOBuEQn2nI3wDcQQyrXrMC58563qyA4F8miHGfxplj45QCameDM2acnwC5RzrVoeC7PiYIjPxWihhtY9oWi7wdgARXsiM6xamWg28gjWVi7xN7hR5ol6fNm9VszuOBWY/5He30nToYK17R2q/YyT8KvMqxKwfFiVDOKF3FYG+E69bzK5B7uio4WgedvERBv7R2z8ZNQMZw7Et9F4W65cS/BtSEGnL54mFMFHRARTkpLaH6vmHTjdKXAP5IiMOxCzroBfMUMH0B4J07GkimczbN2nL2xjuv8EZIpUc3zP8F8JJgYvqyY5fjlxRV0h5NlHgE2dP44DM34clHAR7wU8OM9zZq1lXRJghFWAQWLD1xd62Zscm/XtY21i84tnVGnEguLCzf12U+DeC2q6V46ecu3AsatSHvXg/lJ2cU72DQtHsHtwnwdrzdTNNYd9flDykL7TBhYoB4dkSsgf9m884DS/1qDXXYhx1eXNYwTW+5NNRRl45whuPfejs2xSHteJD7ZoDUVuBahowDQ7OCynaG2Rt9hbO3ZxBvIaIbHaE9gITeAz62KRJaarMbDu2oMnWjdAHAodXdGSg1bMtKGoOxDAlXO4KI92WQ903g3cPh/e/teT1K4I0ADbukrSbmX4bdcxJmQzZvXkKEFWE0zDi7UYvOO0vqqypfWwDZ41XvffbonNne2vVLQ+aQ73bscvCNraqWCh2yRvFmAr02NBTMFzq1iu+1Ads7hK1jtF6W8VHhPuCbTs3yvcQ0bR/aAohnbDZvlohwWYjhf3ds6xlpO7aj6tMN06u+OKlgwXRf6RbK0Kn1uy7zUudnxNOq+3UlgPCM3ohjyWk70zZAxr9Fgi9dHHeIbnfscmDSXNpO97K++UuX7zqr6arsEj8Mpk+EFctOKw56vnQiiM8FEHi7VsuWGVekuyMAidzoGfOe12jQjg2qTZtWY+0IeuKl2tNNxO75wUWzuxeR8a0A7fSoZMaWBX9zbOuZ3bMmmeSOAGRsqmUUP0ugqMM8f2fgw+18SCZzc8fj2u0175s38OQsbwq1q5J3xJdrrJ2Xxg/U2NFhcj8EJqUz9ED8DU8lnztA1DGAtKZa3i094R9g4+cDvKLDlgCl/RbUjeI1AKnuZTwOxvlgvtUZrnS88om+uHgAiA4CwasjrDQaMHBuw7bCNkLbD1IbEjoKkBZIfC898beRHgBwvQZcmcYvWxtxmtGsulE6a+umwadjGcnwrje7lTS+vl6tXBeLdwLx2PTapWMAeMB4YRw5YScr48jpJm3HAdICSUT6gJ9LvAqkPQbmxxh4jBh/76bjO4rsbWU8c0bxJAZdnMgvxmYmvo3G9jvoEe9/l7ARTI8QNTcyZ+aCeJ7GmLv13MVcgOd5/xPT/qAkV56NTSOKTs0aSmRvikxdAcgYSArmOeDkBdZSjEEPq5o8dx9fLNFOBfjgGezUzS7RRSPVctKqMKm61jWAeF4EnPRK1cEdW5n/x20rNcXbdd9r5vjPNe/UX8OufG3m2BRtSVcBMgaS8SvLThubo8rT4QgEr/6MJ5NuOg0gDyjP7bDiGOLoATBf5NSsqUdiY8jYfqRdB8g211o77h5QQtJStl8gelNz9PJoNl988dZvu1MJ7F1E41upsEu+P0DEX5+1hS780z3WX7uko+tiUwOI58lY7tbs2aeBxkrReP/iVMLrejB6T0E0QJ7yySuu9o91h0LjAwA6EOBC5/3lVQS6hUi7ZW31sjs7Lz99iakCZKJ7Hlias2cfCMIBDBgMLCDwoF8hiPTD0isaYwBkikveRuOszbMPZeJDGXjl1nR6r+5vnLvYR7ZmD68j4l9xEzfPcemmXh4pglp8uwEkyKCxkkKZLYNg10u1liciAqpHW1UD6d1SxQPuYJMHFoDcwa3n5geZMALWRjI0uo5GtZGoeraqunqBbsYBpBeCJjb2TwQEIP3T1uJpgggIQBIETVj6JwICkP5pa/E0QQQEIAmCJiz9EwEBSP+0tXiaIAICkARBE5b+iYAApH/aWjxNEAEBSIKgCUv/REAA0j9tLZ4miIAAJEHQhKV/IiAA6Z+2Fk8TREAAkiBowtI/Efh/B6m4yKjiu+AAAAAASUVORK5CYII=;fontFamily=Helvetica;fontSize=12;" parent="1" vertex="1">
          <mxGeometry x="-360" y="620" width="60" height="60" as="geometry" />
        </mxCell>
        <mxCell id="78GjNDT4BSa-AALz03YL-5" value="&quot;My name is Bob&quot;" style="text;html=1;align=center;verticalAlign=middle;whiteSpace=wrap;rounded=0;fontFamily=Helvetica;fontStyle=1;fontSize=12;" parent="1" vertex="1">
          <mxGeometry x="-290" y="635" width="120" height="30" as="geometry" />
        </mxCell>
        <mxCell id="78GjNDT4BSa-AALz03YL-6" value="&quot;Open the door&quot;" style="text;html=1;align=center;verticalAlign=middle;whiteSpace=wrap;rounded=0;fontFamily=Helvetica;fontStyle=1;fontSize=12;" parent="1" vertex="1">
          <mxGeometry x="-280" y="534" width="100.5" height="30" as="geometry" />
        </mxCell>
        <mxCell id="78GjNDT4BSa-AALz03YL-12" value="Speaker" style="text;html=1;align=center;verticalAlign=middle;whiteSpace=wrap;rounded=0;fontStyle=1;fontFamily=Helvetica;fontSize=12;" parent="1" vertex="1">
          <mxGeometry x="-780.5" y="630" width="60" height="30" as="geometry" />
        </mxCell>
        <mxCell id="78GjNDT4BSa-AALz03YL-13" value="Receiver" style="text;html=1;align=center;verticalAlign=middle;whiteSpace=wrap;rounded=0;fontStyle=1;fontFamily=Helvetica;fontSize=12;" parent="1" vertex="1">
          <mxGeometry x="-360" y="680" width="60" height="30" as="geometry" />
        </mxCell>
        <mxCell id="78GjNDT4BSa-AALz03YL-14" value="AE" style="text;html=1;align=center;verticalAlign=middle;whiteSpace=wrap;rounded=0;fontStyle=1;fontFamily=Helvetica;fontSize=12;" parent="1" vertex="1">
          <mxGeometry x="-500" y="630" width="60" height="30" as="geometry" />
        </mxCell>
        <mxCell id="78GjNDT4BSa-AALz03YL-15" value="ASR" style="text;html=1;align=center;verticalAlign=middle;whiteSpace=wrap;rounded=0;fontStyle=1;fontFamily=Helvetica;fontSize=12;" parent="1" vertex="1">
          <mxGeometry x="-360" y="489" width="60" height="30" as="geometry" />
        </mxCell>
        <mxCell id="78GjNDT4BSa-AALz03YL-20" value="LS-UAP" style="text;html=1;align=center;verticalAlign=middle;whiteSpace=wrap;rounded=0;fontStyle=1;fontFamily=Helvetica;fontSize=12;" parent="1" vertex="1">
          <mxGeometry x="-640" y="630" width="60" height="30" as="geometry" />
        </mxCell>
        <mxCell id="78GjNDT4BSa-AALz03YL-25" value="" style="shape=image;verticalLabelPosition=bottom;labelBackgroundColor=default;verticalAlign=top;aspect=fixed;imageAspect=0;image=data:image/png,iVBORw0KGgoAAAANSUhEUgAAAMgAAADICAYAAACtWK6eAAAAAXNSR0IArs4c6QAAHMdJREFUeF7tnXmcFMXZx39Vs7uwy/QspyIgyqEgnnhhjBDEA/GAVyPeijGyr0wPvMagMfqqBEnURF8FZmYF7xhjjIlGjTfe4hmRCFHj8XoioIDs9iwCO1PPm17lzYqw02d1zUzNP3w+dNVz/J76bndXd1cx6J90BaoSqbFE6Ecktgez/2X9GEM/ANsDSABUIIZmEFvOwd9lTPw9z/hCNM19THqwFe6QVXj+8tKvmzqcczoLTEwCmOHVMQEfxBi7Jd+cvtyrDd3PuQIaEOdaeWjZUBczqk4VYCcxYIwHAx11EURYEuPszxqWgJVtZ04DEpK2PGFOA+E8ADuE5KK92VYG3FewMhMl+KooFxqQoMsdT+7CGJvJgOODNl3MHhE+pqrYmVg756libfVxZwpoQJzp5KgVj5sNYPgFgN6OOoTRiJBnDDcVrMw5YZivNJsakCAq3vXcHXmhdSaA04MwF4QNAv5BLH8smue9G4S9SrWhAfFb+dqp/XiVeAjA7n5NhdD/K8GrJqBp9uMh2K4IkxoQP2XednqX2Lr1DxLoB37MhNqXsE4UMAZfZV4O1U+ZGteA+CgsM8x7GHCsDxOyujYLsBGw0m/LclgufjQgHivJDfMGAGd77C69GxFWU13Vrvh89krpzkvYoQbEQ/G4kbwKYBd46BppFwJWkNVrADBjfaSBlJBzDYjLYsWM5GQCm++ymzLNCXifrMxgZQJSPBANiJsCdZm6J+eFBQDr6aabam0Z2G8LVnqSanGpGI8GxEVVmGE+yIAjXXRRtakQTIxHc+ODqgaoSlwaEIeV4PHkZWBshsPmyjcjsE/JStuv1+tfBwpoQBwMj1hiyjgibj8MLKsfA7u3YKWPK6ukAk5GA1JMUMPswRkWgLBXsaYleJwEi01C85zbSzB2KSFrQIrIzA1zHoAGKdWIwAkBX5CV2SYC1yXhUgPSQZliRvLHBHZjSVTSR5CM8Hghlznch4my7aoB2Vppu6R255yeANCrbKvfLjFBbBpy6bmVkKubHDUgW1GLGeYDDDjajZgl3rZJWL3+9XxnRr7E8wg0fA3IFuTk8eQlYMz+vqOifgS8QFbm+xWVdJFkNSCbCWQvySOIHqnUQcIZu1QvAvHv6mtA2pNQP6UbL/AFYNi7UgEB0CI6te6EVfOXV7AG/5+6BqTdKOCJZCOIVfy33ES0mHLZ4RoQQAPyzSiIGakfEehmPSi+VoCDrslb2emVrocGxB4BcXNXzmAvlVMRU7oOB/0GQbF9kZuz1GH7smymAYG9EKh5HwPGl2WFfSRFoH+SlR3qw0TJd614QHg8dTEYzSr5SoaUAANuLFiZySGZV95sRQNSVW8eJgT0iukdDVNCXlSJQ7G28RnlR3MIAVYuIN0a6nlr9ZMVPqXraEgR6EOysv/6lr3yfhULCE+kMiBKVl7JvWXMiO4q5LIneetdur0qEpCYYU4i4NbSLVsUkRMJih2P3Nx7ovAelc/KAySe3IUzZl9P6yldl6Pu62WDMtu57FbSzSsOED2l62+8MrAHC1a6Yt5yrihAuGH+HMCv/A0R3VtATIbVWPYfktmVrhhAqrqYhwiOBXp4+1eAGFtDzeke/i2pb6EyAOl5gcHXtzytp3SDG5CM8HQhlzk4OItqWqoIQHgimQExPaUb8Bjkgk/Pt8y9JmCzSpkre0BiieQZROw2pVQvn2AsYbX2BuavK5+Uvp1JeQNipIZy0LN6Sje84Utgr5CVHhGeh2gtlzUgekpXzuDiTMzKNzdeIsebXC9lCwg3UhcCdIVcOSvW23oR6zwUa6/5qNwUKEtAquKpMYK1rWmlf5IUILClZKVV3MjUlwLlB0ivZJx/xZ7RU7q+xoWnzowwt5DLTPPUWdFOZQeIClO6vbepQ59t6tCje2f06NYZPbp2QreundE1UYOdBtS3/X9VjKO6iqGqKoaqaobqKt72f9v2qgUIEIJARBCEtn+JgJZ1rVi2ogVNzRux5ssN+Hz1eixbkcPHy3JY+vYaLH1nTdTDrFUUxPewrvG1qAMJyn9ZARJLpE4jIikrlffvE8dOA+vbBvzgHesxbKdu2L5vHPb/d+oUC6o+ruzYxdzQWkAul8fHn1l498MmLP7Hajz38nK88vrnrmx5bVxuW7yVDyCGuTMHng96SnfbnrXYbWh37DakO3bduTsOGtEbA/snvI6fSPu15gU++tTCW++txcuvrcQjT30SylmHQdxWsBrPjDTZgJyXDSBBT+mOG9Mfcy8/CP226xKQ1GqayRcIV2Vex+XXBXpVJATn49A0t+Q/Zy4LQMKY0rUBuffGsWqO6oCj+uWcRUEDgnLZ4q3kAamKp0YLRvaaVoH+NCD+5WSgewpW9of+LUVnobQB6dNQx5urn3M3pWunTEUV14AUlchJAxJEJyOXvctJYxXblDQgYU7pakCKDVf7j4w9fDr+g1PqW7yVLCDOpnSdnS22NBQ0IMUAcX6ckXi0kGs8wnkPdVqWJiCJ5GBO7IWgp3Tbl0UDEuwgFcSmIJe+Plir4VsrSUCCntLVZ5DgZ7G+qylbK6x0t/CHdLAeSg6QMKZ0NSAyAGmbGnmerMzIYIdwuNZKC5B4ajQPYUpXAyIHEFtnzsVF+abGkvkMoYQAObMzj3dZ6G5K1/tfF30P4l27Ij1bhFXTH7g28jcrnWRYMoCEOaWrzyDyziC21kRsEeXS+zgZoFG3KQlAnE3pBiulPoMEq+e3rBGBM3ZV3spcGKKXQEyrD0j91EG8UHgDjNUFkrFDIxoQh0J5bUaCBMsPhXXDO15NyOinPCAsnnybMTZEhhjtfWhAJChObI3Iqb1Co9KAxAzzLwRMkFCq77jQgEhSnegNkcvuKcmbazfqAhI3GzjDPNcZBdRh1Ig+eOzOowKypraZ6TNfQvrWJZEFyThuKTRlzoosgA4cKwsIN0wbjoaoRNt5YFe8sWBiVO6l+v1hw6N4cMHHUn22d0bAZ2Rl+kYWQMkBUj9lHy7436IUzP6uvOktJf+oBS7LgAPvwPIV0a4eGhN0XmtL9trAk/NpUMkzSNRnj02avvn0SRjY3/Apsdrd7dVT6gZHv9UHAR+QlRmomlrqAaLA2WNTke5qPBQTxpb35q6r1qxHv32lLARTdOwLsLNgpW8p2lBiA+UA4Yb5awDnS9Rgq66mn7MnZl2wvwqhhBbDwleX45AT/xqafTeGCfQqWVmlBFcOEGaYDzLgSDfChtX2gL23xdN/Gh+WeSXs/vevX8HV1/9diViIsJpymZ5KBPNNEMoBwg1zGYA+qoj00cunfb3aYVn+GDoPnK9SZkJYmWhW3duKCmoB0vWcHXkh9oFKFUvPOghnn7KLSiEFFsuHn1gY+oM/BGYvCEMiFhuDtXMCX6XGa2xKARIzzKMJeMBrMmH0G/W9PnjsjvJ8YPjL2Ytw+exAF4zzXQIOKPUSo1KA8HhyBhi7zLfKARt44f5jsfduSl0a+85ww0aB+qE3+bYTtAEi8QzlGkcHbderPaUAicXNk4jhTq/JhNXvzBOG4PorR4VlPhK7dz/4Pk6f+mQkvjtyqtoWCkoBgrqpw3lMLFKuagAWPXI8hu1ccmsObFHKja0FJIbcrKLMEIKfgpa5yvyRVAsQNNRxo7pFxcpNPGYQbp89RsXQXMc073dv4r8uXei6n4wOwmrtBcxfJcOXEx+KAQIww3yKAcpcg7YX8a7soZhwRGk/WV/+eQsGHPB7J2NDfhuGtaI5o9RpWjlAeDyZAmNz5VenuMcd+hp49eHjkIjXFG+sYAt7l6qDj78fL72+UsHo7EVM6U8FK6vUK9TKAYL41GGciX8oWUEAJxwzGL+dfbCq4XUY15ybl+CCWS8pG7uIidFY2/iMSgGqBwiAmJF6kUAHqCRU+1guOXcfXDxtb1XD22JcTy1chnGnP6RszASsICuznWoBqglIYspRRFyNN+i2UrH0rJE4+5ShqtVzi/EseWsN9jvqzwrHShCMTkdz4+9UC1JJQGyReCI1E0SXqCZY+3jmXTUKkyZKX0/ClSRvvfslho/9k6s+shszsIcLVlqJF1Q3z11ZQOxAWdx8jDEcJrtgbvz9z4wDkTxjVzddpLVdtHQVDhx/rzR/XhwRwxpqzvTw0ldGH6UBQSK5Hye2AIDS28qq+N3IAws+xsSGR2WMIV8+BLFpyKWVnLVs+yPtKzsJnWOGeSyh7fWTThLceXZx5Jj+mKPArritrQK/uPZvynzjsVVBCeAMv8pbmYs9iy6ho/KA2BpUxZMHC8bsu0ylHiJtXp9u9Z1w5UUjIrsvWfL2Ghx24gNYa22UMHR8uRAcuChvZa7yZUVC55IApE2HLsnenDN7pRMll4dpX6tDR/bDz8y9MHJ/ObOWn69a13bWuOnOf0oYMj5dEPICmIZcptGnJSndSweQb+RQ7YvDjqp09KE7oOHUYTj8B/1CKeaHn1qYfcMSNN6u7HPVzfMuCEaT0Jy9IxRBQjBaQoA0VHOj2t7jruQWqxoyqB7HHTkI9n3Kfnv28lFGwher1uOJhcswa84ivPdBkw9b0XQl4D3i7HA0pZX6cnRrapQGIF3P7coKrbcz4Oh/J2KHXny/82iGwda99upRixHDt8Feu/bEkIFd0X/7OHr3qkW90QmdO3F06lQFe62qfF6gpaUVK75Yh7fea8KTCz/FTXe+rVo6XuNZL5iYrOKDwc0TUh+Q2nP68qqY/X7OIK/V0P3UVICDXZu30uepGd3XUakNSPyc3TiLRbeqssqVK4nYip/lVX6KrjQgMdfvY9mXW2rzXhJjOoIgVfsOvb0ESo6oKLZci2BcaJftFFAVEuUA4QlzGgiz9eipPAVUhEQpQHg8eRkYmxHM0NCXXMHoKNeKapAoA0jMSI0n0H3BlqP4TWKw/rS1IBQQFEshNycThC2/NtQApDa5Pa9i9oOjwNdl1ecRv0Nka/3DVVYwGofm7CNhRe/UrhKAxAxzIQEHOg1at6sIBXKCsz2ifuIeOSDcMK8BIOlhkb7kKiW0CLSMrGw4L7I5FCJSQGJx8wRiuMthrLpZBSrAQH8pWNljo0o9OkC6TevP84UnAAyOKnnttxQUIBKEk5HLRvKHNDJAeNz8HRhOjbZE4d5oRptbUN6j14jAlpOVjmRTpUgA4YlkCqTm6olBDSttJ1gForrUkg/I11O6rwDoHayE2lqZK1AQonpftFy3WGae0gHhRuoKgC6UmaRzX9FfTjiPtfJaRvGUXS4gRmooh3jFXsNd3fLqqWB1awPpZxGpgPC4OQcMUxUuQFto+jyiboVkn0XkAVJv7s0F7HuPwF8nUbecOrIQFCgIsN1gpaV8fywNELlPzIMsSzlfcpVmbozYXYVc+qQgq7w1W3IAMcweHGwJQHIWipKhnPYRmQLEsJYk7UQlBRD93COysVS2joXAT9CSuS7sBKUAUl5v6+pb+LAHpRP7BFpKVnZ3J239tAkdkKpE8ghB7GE/Qeq+QSlQmvccW8leCM4Gh/06fOiAlO7NeVCDUtsJSwFONDufy54bln3brgxA/g5gjzCTiNa2vuSKSn8Ce4esdKhbfIULSGLqAZzEi1EJKM9vWV26yJPNrydieZHbWA/MX+fXVCTTvDyevASMzQwreJXs6vNINNXgjH6Rb84GtBLOd3MI9QwSM8xnCBgVjXTf9Rrbtjuqhw1A9YA+iPXuAV4fB+tUrUp4bXG8MEqdBbk3CODTdcAnTa34aEUOz778CV58YDEKK9cooxkRLaZcdnhYAYUHSDy5C2fszbACd2O380F7ovOo4ajeaXs33SJp+/yeViR+nTpdm2dYuGwDHn30n3j0evuD0Kh/bIOw0p3DiiI0QHgiNRVEc8IK3IndmuE7o8uxB6Nq+22cNFeijeqAtBfp+ZUF3PXHxXjsluci1S7MjUBDA4QZ5n0MGB+VcvFTxqL2sP2jcu/ZbykBsinJPyxag8vO/q3nnP12JGAhWZmD/NrZUv9wAKlr2I7Hqt8HUBtG0B3ZZDXVSJjHo2aP0lwLohQBabt3WrYBZ/3wRtDGVtklt/21CCsTD8NxKIDEEubpRJD+J4VVVyHx01NQM2SHMLSSYrNUAbHFeWlFK86cMA/UmpeiVXsngrFT0Zz+fdCOQwGEG6nbADoj6GCL2aufdgJqhof63KhYCL6PlzIgdvLzX7dwzY9v8q2DWwOMxKOFXOMRbvsVax8CID+p5caG9wEm9dX2LseORt34kcXyVf54qQNiC3z9sytw7bl/kKo1MfqSmrPdg3YaOCAxI3kMgd0fdKAd2ase1A9d//tHMl2G5qscALHFOfHip7D4YfstI3k/wflYNM19LEiPgQPC4+ZsMEwLMshiturPOxk1u5fmTfnmuZULIPe+vx4XTrR37Zb3Y4Q/FnKZE4P0GDwghmk/HNwlyCA7slUzpD/qL5wky13ofsoFkLazyIznsPj+10LXbJMDAlaQlQn00j5YQIypIznEs9IUAWD86Bh0HrWXTJeh+ionQO5YYmHmJLk37KLA98a6ua8HVaRAAeGJ5EwQuySo4JzY6ZE+H7xLaG8aOAkh0DblBMgXG4GRI9NSp30ZcGPBykwOqiiBAhIzzBcI+F5QwRWzU04355tyLSdA7JzOnfMqHr51YbFSBnacQB+SlR0QlMHgAOmS2p1zeiOowJzYqT1kP8RPC3zq24nr0NqUGyC3Pr8cV0yTunOBEDU1/bH62mVBFCkwQLhh2rtE2btFSfvZcNiQlNOv3AC5Z2kzfn7GzVJLxMGuzlvp84NwGhggzEg+xMDGBRGUUxv19jtX+0qbMHMalq925QbIEx+uR/I4udO9BPYmWeldfRXim87BANKtoT/PV78HQOrXR13PPxXVwwYGoYMyNsoNkFdXtOK0IyXv6EzIi1yvf70oO8P3S2GBABIzzLMIkDufB6Dr9NNQvWtg92NKQFJugCxa2YqTx0kGBADn/OJ809xf+S1qIIDweOr3YHSy32Dc9teAuFVMfvuoACGwv5GV9n2D6h+Q7lMTvLVgv5zYU7b8GhDZirv3FxUgANYLK+P7eyTfgMTiyeOIsT+7l85/Dw2Ifw3DthAhIBDEpiCX9jVD4BsQnjCzIEwJW+gt2deARKG6O59RAkJgz5CVHu0u4m+39g+IYb4b1V7nGhA/pZfTN0pAAFjCyiT8ZOoLkKp4aoxgFNnaLxoQP6WX0zdiQOzLrBOQS9/tNVtfgHAjeQXAItuxVgPitezy+kUNCAP7a8FKH+M1Y1+AxAzzVQL29ercbz8NiF8Fw+8fNSBEWE25jOcZVu+AfL0pp7yvYbZQSw1I+APcr4eoAbHjFzExGmsbn/GSi2dAuGH+DMCVXpwG1UcDEpSS4dlRARBG7M5CLn2Klyw9A8ISyccZsUO9OA2qjwYkKCXDs6MCIAR8Rlamr5csvQFSP2UgF9xeOTHSnwYkUvkdOVcBEAAkKL8bcvNcL6buCRAeT/4nGPP1hNKRukUaaUCCUDFcG4oAAsbE9YXmRtcPtD0BwgzzbgYcH660xa2rCki3KoajtumMUd1q0K8TR6uLLT9iTV8VT7xdC84FOMujpnoDaqrXu+oro7EqgBDY+2SlXa8N5R4Qw+zBAfvbj64yBO7Ih4qAnNanFtP613mW5tNl3j9hqOucQ7xurWffYXRUBRCACWFs3BafzV/lJk/XgMTiyROJMbnrSm4lI9UAOapXJ1w2yN8i434AsWUy6r5EbecWN2Mg1LbqAAJw4Iq8lbnITcKuAeGGeQOAs904CautaoC8ckAP36n6BaS6qhXdEit9xxGUAZUAIdBSsrK7u8nNJSATY9zYxp69UmJ/AZUA2b++GuldfL0X11Y3v4DYNmxAbFBU+KkECIBWYWVq3OjiCpCqRGqsIHrEjYMw26oEyOR+dZjcz/f3OYEAotJllmKAgAt2fr4lfbXTcekKEG4kfwOw6U6Nh91OJUDO7leLhn7eb843aRXEGUQDsvWRR6CXycoe4HRsugTEXAxgT6fGw26nEiD7JqqRHaYvsTavuWpnEABfCSvj+C+Zc0AS5ghOeCnsQe/GvkqA2HHrm/TvVk9BQCCAH8PKOFrNzjEgPJ5MgjH567d0QIxqgBzRswYzBxtuGP9OW7+XWCpdXtnJqQgIA91dsLInOCmUc0AMcx6ABidGZbVRDRA775N6d8Z5O3bxLIEfQPSDQmeyE/AeWZmdnLR2DkjcfA0MezsxKquNioDYucftV016dsJID6+a1FruXhfRr5p4Gm2OlwRyBkjiJ905bVztKZQQO6kKiJ+U9cqKftRz3ldg4xBYN7xTrIcjQKJenGFrSWhAipU3+uMq3oPYqnBWuDTffP3lxRRyBAg3UhcCdEUxY7KPa0BkK+7en6qAMGJPFnLpQ4pl5AgQZpj3MWB8MWOyj2tAZCvu3p+qgBDYSrLSvYtl5AyQuPkIYxhbzJjs4xoQ2Yq796cuILSKrGyvYhk5A8RI3ctA/1HMmOzjGhDZirv3py4gbDlZ6T7FMnIESFTbGxQLXgNSTKHoj6sLCD4iK7NjMYWcAWKY9uY4ZxUzJvu4BkS24u79KQzIO2RlhhTLyBkgCTMNglnMmOzjGhDZirv3pzAgS8jK7FEsI2eAKPaa+6akNCDFyhv9cXUBoVfJyu5fTCFngCSSM0HskmLGZB/XgMhW3L0/dQERz5HVOKpYRo4AQTw1mjN6qpgx2cc1ILIVd+9PVUAg2PnCwZeFzgCxH80b5ucAis4bu5fQew8NiHftZPVUExAiYWW5Ew2cA5JIZkAs6cSorDYaEFlKe/ejIiAEOJrBsrN2DEjMMI8m4AHvUgXfUwMSvKZBW1QREA78Jm9lLnCSq2NAgBmdufHFxypdZmlAnJQ42jbqAWJfXnXqCVy7xokyLgCx70NStwF0hhPDMtpoQGSo7M+HaoAQ8L9kZQY5zcoVILFEahwRPeTUeNjtNCBhK+zfvmqAcMYuzTeni34HsilzV4DYnXjcvAMMnnbr8S/3ty1oQIJWNHh7KgFCoA/Jyg5wk6VrQJCYegAn8aIbJ2G11YCEpWxwdlUCRCA2GdacG91k5x4Q+yyiyLtZGhA3pY6mrSqAEODo3avNVfIECIzUUA6yF5Grj0b2r71qQKJU35lvRQAhwXA0mjOu75+9AdJ2FknOArGLnckUTisNSDi6BmlVBUAIWEhW5iAveXkGBJjBmfHFPQyY4MVxEH00IEGoGK6NqAEh2F8O9uwPzPC0dZcPQABsO70La1l/D2N0eLgyb9m6BiQK1d35jBIQIqymLrXDsPJq+z1CTz9/gNgujYaeMVTfS4CnU5inqL/ppAHxo56cvhEC0iywcT8ni8N1pIR/QGzrtcnteYzdC4Z95Miub9Jl6uzHVySAENaJAj8YX819xU/sdt9gALEtJabtxKlwt8z9Q/QZxG/5w+8fASBfCY4JaMo8HkR2wQFiRxOf2oszcaWsBR40IEEMgXBtyASk7TV2sAmw0m8HlVWwgHwTFY+nkmBkg+Jvs4wiWWpAghoG4dmRBAgxYn8s5NInBZ1JKIC0BZkwRzDClQwYHXTQm+xpQMJSNji7YQNCDGuJ8FOnO0a5zSw8QNoimVHFjS+uBNg5AHnfVWYrWWlA3JZbfvsQASECe42sniOBGe42VXEhQ8iAfBNJV3MHXsAJDJhIwH4u4uuwqQYkKCXDsxMCIBYDFhQYvxLN/mepimUuB5D2URip7/O2j67YqX7PKhqQYuWN/nhAgFDby4Zg18FK3yIzK/mAtMuuqn7q4SSoLxH6gKMPEfXlQB8C+gIourCwBkTmUPHmywUgBYCtJ5AFsFWcsAKMPmY89l6+aU5ke9P8HzsR1FDOckB2AAAAAElFTkSuQmCC;fontFamily=Helvetica;fontSize=12;" parent="1" vertex="1">
          <mxGeometry x="-180" y="515" width="60" height="60" as="geometry" />
        </mxCell>
        <mxCell id="78GjNDT4BSa-AALz03YL-26" value="" style="shape=image;verticalLabelPosition=bottom;labelBackgroundColor=default;verticalAlign=top;aspect=fixed;imageAspect=0;image=data:image/png,iVBORw0KGgoAAAANSUhEUgAAAMgAAADICAYAAACtWK6eAAAAAXNSR0IArs4c6QAAIABJREFUeF7tfQm4HEW1/zk1c+8NQVEJbrjhCgI+FQhIpicGF1AEAtM981gUxQ3Up09UEN9DQUUNwYW/KyhC2MNM9SQRUVSQkOkJoPCUVQQXEBRUiEDMemfq/OfMnTvpnumleqbvJeR2fV++fN+dU6eqTvfp2s75/RDSklogtUCgBTC1TWqB1ALBFkgdJH07UguEWCB1kPT1SC2QOkj6DqQWGMwC6QwymN3SWjPEAqmDzJAHnQ5zMAukDjKY3dJaM8QCqYPMkAedDnMwC6QOMpjd0lozxAKpg8yQB50OczALpA4ymN3SWjPEAqmDzJAHnQ5zMAukDjKY3dJaM8QCqYPMkAedDnMwC6QOMpjd0lozxAKpg2wFDzpfLj8bs9mdmo3GHBRivKnUo2MjI4+sPOKIx7aC7s3oLqQO8iQ8/gMvumj79bNnHwYAJQB4GwDM8usGAjxKAMuJyN64Zs01txx//PiT0N0Z3WTqINP4+Pcvl7fLCPEJADgZAHaI1TTR30CIz2d33PH8lQcc0IhVNxUe2AKpgwxsungVc5VKARG/BwDPiVezT/peJPpQrVi8dkg9aXUNC6QOomGkoUROP10Ye+zxFUDkWSOpogDxNKdQ+FLrf0pKaaqn3wKpg0zxW2FIeTUAHDRFzfzYsaxDp0h3qhYAUgeZwtfAkPJSADh6Cptg1Zc5lnXMFLcxY9WnDjJFj96w7dOA6PQpUu9Vi/hZxzTPmJa2ZlgjqYNMwQPfX8rdMgC/mwLVgSqVEK9ZXSjcMZ1tzoS2UgeZgqdsSLkMAA7XUo24lACuEQB3Z4S4c8O6dSq73Xa7o1KvBsQjAEB3j7HSsawDtNpMhbQtkDqItqn0BPO2vRcR3aIh/ZhCPHC1af46TDZn2x9Hom9o6AMCeEfdsn6iI5vK6FkgdRA9O2lL5Wz7B0j0/ogKa4VSuVWl0u06iudXKvMUIp+GPT1Unugqp1g8REdnKqNngdRB9OykLWVUKg8D4nPDKiDRW+Je9M2rVA4UiD+L6MhGx7K20+5sKhhpgdRBIk2kLzCvXN5fCLE6osbAx7I5KSUCmGH6SYgD64XCL/R7nUqGfsxS8yRnAUPKjwDAt0M1CvE6p1C4dZBWNR3wk45lfX0Q/WmdfgukM0iCb4VRqXwREE8NUfkXx7JeMkyThpT/AIBnh+j4kmNZYX0YpvkZVzd1kAQfedQGHQF+XrOsocJODClXAUA+sNuI5zqmeUKCw5rRqlIHSejx733zzSPb3XcfH9m+NkTlcsey+G5j4JKvVFYQIueS+BYCuC8DUFhlWb8ZuJG0YtcCqYMk8DIY1WoRlTqJAOaGqkN0HNMM/vpr9MWQ8gYAeEOYKAKsU0RnblyzZlGaZKVh1BCR1EGGsN98KV+vED8FRFoBiQTw+M5KzamUSs1Bmt29XB7dUQhOw9U9yr0JARbVLGv5IO2lddJo3oHegQXl8tPGhTip9aU+KcbL2m4LEQ+pmeZVgzSct22LiCpx6xLieSTEotVHHPHHuHVnunw6g8R8A/JSvpMmHOM/YladFP+9Y1m7xa3bSdf9PQC8KKIu562P+Mg8BEIscgqFb8ZteybLpw6i+fRztv0G3mcAYiGgyo2AuBiIvgsAz4tQ+3XHsj6p2XRbzJCS9X5Ipw4S/ZwQD/SVJfqFIlq0ulT6pY6umS6TOkjEG/DmanXOJqKTSKmTEFH4iD9GiIt3bjYX894iX6l8gxA/HvViIcAnapalFYSYq1Q+hYhnRemc/J0ALgGlKijEpwFgXkC9r6NSi2ql0j919c5EudRBQp56rlJ5P/ImHGBXXzHEi4hocd2y7pz8fcGyZbs0ms0/a71MRFeJTOakVYWCb+5IvlzenYTgW/G4dycbAXGPtxQK910r5SmEeEpAoOPvEXFRzTSXaPV3Bgo9aQ7ylnL5GRszmTnYbO6kAEYFwJrNY2OP3rRw4d+f7OeQr1bfSM0mL6feEeAYv0KixTXLsv1+N6T8CgDwS6lbVhPR1QLgNhBiBIh2J26baF9dBX1yRKc4xeKZ7eVZtfpaIDoFiI7000cAPI5Fdcu6eeD2Eqq4wLZf2ECcI4ie0Wg2n8iOjj666vDDH0hIfWw10+og+XL5jSQEr+GPCguX4BtnQrSbzaa8oVRaE3tUA1bYv1x+QTaT+RQRBS2RngCAxRt22WXxLfvsEwrilpPy/xDg9QN2JW41noH+0jPT3OxYludepnPAwI67h49DbeRN/NO3227RTw8+eFPcDgwqnyuXX4yIRwEig+jtFaLnLiCqIGK1Zlm3Ddpe3HrT4iCGlJwVx1+zV8fs4DgCnAtKfWGq18ocaMjLKSLaJeAre0kmm1286vDDtXI48rb9fCLioMSwuKmY5vARR3wkK8Tc8UZjL0T0zGh+CVQLli17ZkMpnk14f9JXEODXvImvF4vV4TsXrKG9FG00zgJEa4B26gDAQZk3DVA3VpUpdZB5tv0SodSFgPjGWL3qF14PiF+ZCmCCTp4FH9u+xbePRLfwJrxuWeW4Y9CMvo2r1iOvlJq3ulTi23XISfkIAszpCiBe4Jjme/0ayFUqeYF4CgEcHNCB86HRONM58sh7huqgT2XdgwyNdpdnlfrQylLpYQ3ZgUSmzEHmV6tvUkrxF+2ZA/XM9zNO1zeJCkksuwzbfhkQ8Qbc/+iUaB0iLs6sXbt45XHHbRx0DDnbPgCIliHAMwbVEVDvCVTqsFqpdP3k73nb/jIRfcYlv1aMj++x6qijAtfwRqXyYZjYxPvdr/yjcxOvddoWNb72rApwJRDtHSUb4/eHBZG5qliMysOJoXKL6JQ4SE7KExCAYTaTL0R/E5nMW4JOfnQaNKRkfFx2jucHyF+ulFq8ulT6rY6+KJn51eqrlVKcDRh1yRelavL3+0mpg+qlEl8cdsv8cvmlSog/uf+mc5zcnuknllxB9yzXAuIixzSv0e1gr1xOyj0QcSUQ7TSojtB6iMc7pvn9pHUn7iBGpXIIIP5oikHpHsxu3vz6lUcf/Ugcg3T2Qryc8g0YJIDfCD6dKhaXxtGrI7vfJZfskB0bOwMRPwwAGZ06PjIcw/XtrFKnriyV/u2nw5CSswm7y0UiuqFeLAbdhXhU5G37HcSnb0SGn25EPDvTbJ4Zd0mz4LLLdmqMjnJ08QsHHLdONQKiw5xi8cc6wroyiTqIUS7vDULU4sYn6Xa2R+7m7Nq1eZ3lz/ylS1+tslmeMXzX4wCwAYgWb5g1a/Ethx66fsD+aFVrH7kq9dXAPU+wlmuUECdGYV9xZDEo5dkvkVIH1ksl7TTcnJS85DrFb1lIRH/g0666af5QZ8DtEJlMppbwsiqo6fUgxLxBMzZ9Pwo6g9SVMaTkKf9VuvLDyhHil+um+b9BehZcd112/JFH+AacnWPHAANcwSEiNdP8v2H7E6d+58XJtcJC5hHinkDEl5GTtuON8d0IcCcQ1RtEq28olTbo6jek/FfP3u/7jmUdr1uf5eaXy69RQrCj+Ecq876KiG/ifxWmVyPLMk63dGTvcSzL/2JXp3aPTGIziGHbRwMRY9HqlN8hwA+aRHeOZrP3rDziiPvat8aZzK6o1FxCdG80w/RtpJGRl9cXLvxbr1A78nUidsr/sg2Rj2AXO6Z5mU6Hn0oyhm2fCURuNPk12bGxXVceemisJSmPufXR4zsrdhS/4MzNBLBIKbXIz4H3rVbnjCp1HwA8Lcp+nArA+1Yi+nWG6F6GRJq/fPmLmkrthkrtzse62nu4BPcjiTlIXsp7WzFAr4gyBN/oTt7wBsnOs+25QqnlgLhzpL6eo8x55fLrMhOXfb6AzgSwWSCemWk2Fwet4yPb3MoF5kv5SgXgOZ4lgI/WLSscUCJgXPv95Cc7jK5bNxmy0v/OIN4CSp3pFIueUPwYEQXXZjMZK4xyrh15IcQlAKCD+/WP2evXv+znxx67bthHlYiDaGI2ARGdVC8Wef0dWfYvl3fMCHFlSLBdV8f4xo3PeMazn91c/8QT7eUUAWzv2wCRVM3m4tVHHhmKZhjZuaeAgCElR+tugSJFvN4xzQXDdD1v2zniS0ZE35cUAS5sACy6wbLubs8+tr0GiJ4V1iYBrBpZu/Ygnb0k68nb9heI6LNR40DE45KIMUvEQQzb/g4Q8elMcBkATMC49NJnwdgYw3i+NNTIiGcjEb8MQfngd/A+wzHNi6MMu638nq9WjySlLveMh+gAp1hcOewYc7Z9vAA4xTfqAJGXcYuw2byZhIhq60+wadM+zjHH8J5Ju0SBY7QVIS51TJOXh0OVZBxESt4DBN0pMGbs49uvX/+CQaa8nG3/JxINeuza4Fvwjc3m4ltKpceHstRTsHLrvodjx9xwpd9xLOu/khhKO6iQAyABGAusvyA+AESh9z4IcMQg6cDtcJlmky8/A/c2/M7VTfNZwzJwDe0g86rV5wilQiNwo06boh6YISUbI+4ZOscSLZ6OeJ2o/j9ZvxtSfg0A+FJ0ohD9PUv0iiT3XrlK5e18E48A83tmK/6Khw39j45lRe9ZAzTohKtkEV+00jQfHMb+QztI5zgwNLpSIe4bhWIeNog42XQtauW7CIBjpy4cxjDbQt1OPkk3V6XtI4gn1E3z3KTHl69UTiZEvo33PU7vbQ8BvlqzLL60HahwCA8ShWdFDoFiOdmpoR1EZ4M+S6lnXjPEEidv2x8loqhcasUzBsyatdg55JBYa9qBntBTpFJOyut7vu7XOJb11qnofn758t2p0eBl17ui9CPRB2rF4nlRckG/LyiXn9cQ4qGw+oOAhPs48qBdnKiXs+3DkGhFmBbHsoZyxE4eQ9QGm09MvktjYz+oH3YY50Zs9aV9JI14MAnxgk6M0hwgGkchHiUi3uz+KYtYHWaZML9aPUYpxcej3ZIRYt71hUI7AjjpsuCCC2Y1dtjhgqDkLFd7R7cu9LyHCDE7Y0gZyvA7DIJMYjNI++iPyAn1ZMSda6YZ6u1h9TvBhbye1itEV4MQ33dMk5metqqSW7Hi6WJ8/EQCeDcAvEync5yjQQAXOpb1HR15jwzTUO+559rW7Dq7+9CJzq4ViyfG1hVSYb8VK547unnzp2giaiGyIOLHaqb5rUjBAIHOIUFopiEqtV/UTX9U+0N92Vm5Dh/fsMxHhpR82x3/yA7xEVLqB5jJLHEKhcTzGqKM6/5973PPHZm1004fEUSnkjtnI4YShhVFxM85t99+KZx+Oi8ptYoh5dkA8N8u4Qefr9QugwLYuRvNlcu7AiKDSkSRBnn6SgBL6pZ1nNYAfITyUh5OAKEfQJHNvnjYdN2hHaQTThAewoB4kWOa/MWMXRikrSHEXwFgh9DKfGJCITMu0S9QiO/XTFPG7sSQFTqXnkyNtt+QqiaqE129YdYsUzewMi/lfxBAL+XC+xzLOn/Q/hhS7tfOp/HJCCQiBsgLf1wAj64fG3ux7hh6lRlSXtE6kOE03cAy7NKeFQ/tIKwkJ+WfEcA3VbXbe6X2cUolHe4+z4DzUn6LAHTP7u8FgFdGONK/gGcVxEunI7eZ44lUo8GRtIkF0HXGdxsivk136WpIycvgnMs2P3UsKyibMNCE85ctO1A1mxzn9WZfoagPlbfSIseydOPuujVz5bKBE1HjYSWRw4hEHMSoVL4KiFFAaPfMXr9+rziXhVpHeT0mQsQi8ZeFqBj1dSQ+Jsxkzh95/HFbN9QhSqf7985JC4e1xL3D0W3m/qxSb9DJzzCq1WOB059dRQDspYsCn5OyhIgnR4Stc+yTf5hPwIgQ0aiZJueYa5UDL7po+3WzZ98R+UGeyFkfmkgoEQeJkXt9zSylLJ0j35yU+yDRj6P4/vqsSrTMKRYLnMVHREcREU/DUV/vJ4DoBxkhrrg+gnVW6ykCAD/I9bNncxrooBCluk3dumFsbF7UUuXt3/zm2Nqdd+ZogrGu4onwG1/wBpZpg2VnMu8BAHaMlwd2CPGe1gu7hAC+BERx36mHQalDdFYXnRt0XiL7z16uDpJSu/VmXOoa1C0XdzCBbeRtm7Gd9tfoxP18oVQ3TV5D9pW2ERqNUzVmpODnRXSUOyswV6kcIwBKYbwarpfmegK4eLtmU+o4clAnjEqFndsfV0vDSHFEkOhHtWJxYVSdvuUq0Z+dYrHvJI2jIzLN5ns0Lv4YR2vJE+vXL9lh9mwONwrfJ4Z1kOgMGh1dXF+4kE/c+kon7H4RALw4apytj1LVsaxQLkcNHW2RxByk/cUHiBMl+1dkpHIhbgWih2gCq4nXyG9PJCNx06Yde4Pg2nnRRMcSYkljiublwg+JSNaLxaj1rsfeOndDAQ/oVgJQOAGPNEv3IbbliN7rFIsXhNXpZHx6weEQj50M4jSWLn0VZTLvwYkbcT+Y1Un11/KMUbOs9v2KUS5f08okDfqqc6KXLl0DZ3Mub+2tbmxRStxDRDsD4usAgJfLgbF+fWNGfLljmp7c/Fi2dAkn5iBtQ9n2aa2TpNMH7Uzcei1gthWtPPKF7Zif/hOs3zmWxYk2vqV1sPBuZKRBxLdFtovoANHS8c2b5U1HHx2J/GhIyaE3r4nUC/Bw68TndMpmr+mlJmgDMCBynBNj8nbvMEJ0PtA6lYr8uvYS8PDsI4Q4o0nER67h4NhEy1oRvEvqpRJjDrTL3pdfvt92IyM3BvULif6XEL+kYYtERJDoK7Vi8X8SUZbkDDLZIUNKPps+PKkOBhoekR/obUQ0cTLm5yREn3eKxVCHnVet7pkhel9nYx+VoMWYtxdSs2kH5Xgbtn0EEEWCrvGL2cqcOyYqcLCDOMIzw5bcjmDj/lfUZaIhJefla+WTTzaDiEsAcUmtUOhCDLme9+Y+ugX+WCHy8uTxmmU9s7M8mvrMTaKrnGJRJ6FK+/VMdAbhVjs8FpynvKd2L+IKIp7pmGYb+9aoVG4KTKud+AK8Vvc4N2/bvCF9FxG9KapLiHgDL79odFS6Q1tyUi5HntXCCh8k8BoZMTRUoquCCA3b5q921MO/zbGsMI7EycMD3qxHIatwqPySJsCSGwL4DvO2/QcK27wTLXaKxfYhgGHbi4LQHKNsrfn772avXz83zimpjt7EHYQbzZfLz6aJbMBkLsbcIyE6wykWuxll/FIT0cTa23+pRY5lha2n++zUuVj7IAEc6UEq9Lcow6Nexs7CkDOGlLx3CVsS3Z9du3a3uMfK7Q8P4h+i0pBRqef4wbTyTf7sOXPeQxPILmEchw8i4gV80x22jjeuuOKLkMmE0k0LpV62qlTqIt3HSMHVeXfdMjdmN28+NC4MlE4jU+Ig3HA7aO3pT+dz99DbTp1Our6k726dulzUW8eQkjd3ExvBzvTu8SmAK+qW5YtsHtV+Z0nCL5X7ks23GgH8EQGCj0PZh4eIYtWJaiaA/3TDpPLHSiG+GxHfBwBhzFYPEtH/GxkfX6LzohlScqhL2PvzM8ey+vZ3RqVyHCAOfIPvY/jLHcvS4oiMetZ+v0+Zg0w2ZlQqx3Y2ms8ZpIOdOqtRqQ/USqW7/HT0JgYhwGPUA3lKROYwgMwdPCuGznlnANeGzvA2N5V6ZhwIH7fSDgDbP8JeTAL4Qt2yTluwYsUrGuPj7wGi94feJXU+KIS4rG6aQexZnrHlpHysDzOr98OkVMEplXxjpToINhzxOwy9w98Zf2DyJE3H+IPITLmDtGeTZcue2Ww2v0KI/xmVxN8ziLs6kJehoe6dl4HDTLoFEfmY0IPRlVXq+Tq3zlGGzNn2+1pH08djFO1zjyLet9RMUwvlMKgPkSdkRJcDIlNGcPDglkvBfoWcSOWhQWiMj7/0xqOOYpiewJKz7Z8iUfjJH9HfnWIxioaO9yXvaoX3M65Z1EWuuz9reEk7ptSpw9xTRT3jyd+nxUHcneEvcSsTbD4R8fn2rgiwWye6ldeqk2BptzQzmV+uLhT4a6lVeiE3AYCPHplvYtSl4LeOZSXG2bG/lK/PAnxQAbwXve349ln3Qi9swIaUVw/AOOVWWQYhLsgi3thoNtmRtrwDiKc7pvn5oPYPvPzy/dZlszf2BiIyL7sHSQbx845pah/3d0JyGOSbQa33IMTd2vdUDABBxGCEdxPAbwXAKt0DF62XRkNo2h1Eo08DieQqlUIvP0aLm4PzJzygAoj4PzXTZAaoREu+UvkyTcSjuR3S20YCx5CGlBwVzJepcQqT/SwRREvcKOiGlJx6+8GuIsQ7HNMMvL/JSbkZexh0EXEdEXnir5pKvfCGUokjsJ/yZZtxEH4SRqXysHu9TUTfQiGeD0QekpYkEmkmn3wnlJ1zqzlRKBv6RiD+yjHNoU724jBXIQBnJi4hxAvcPIqTfcxVqwYq5YkSIKUWui8CJ2UNKTmfpjdSWiHij4nosEk5AlhRt6wpvwebLs/bthyk/yb/H6TUXBSCo0XdEbUbHdOcrX0PEfA0Oidc7By6vOfNDWNjO0QFFgY9fEaIH5k1i5dF4XcYiA9wolhmZGRJVMJQC/GeL1q3UJ8RLXWKRU9yWq5S+TL6wMHSBB6Zl65OiLc7hQIvA7eJsk05CHMMZoTwwLxwaicBPAZE3uPhIZK45tn2fDFBvsPUcvEK0UecYpE5z2MXw7Y/CUQ6yJT/dizLjYcV2FZeyg8RgLs/jfGRkRe6yVT9jnRbyIX3M2cgTcyck+V+x7LC84Jij/rJrbBNOUhnmWUDovu4su5YlmFUKt+BCW6ObkGlirVSSTvDkBmSFNFJrRCKoHzu+wHgJWGPlAHNRpTaLe5pWpvsUgjesOoGMX7JsazQizzu54Irr9ypsWmThyud46dqxeKX+fd8pfKv1kzhZQkjGl9D9LQdhfiDG1CaAD5TtyyOuN1myrbnILb9FiDycmF0pv0Wuc/NgOih/1KIu6w2TX6xQ0vnS8vLKV8YVCQ6WzEp5cjI5X0gav2ar3FM80DtJd5EqAmjkMTav4yPjDxPh1bbkJLhd/gisV1aoTK/qVnWXvMqlZ8JxAN7u8+prHkpP0AAHkan8c2bn6cTzBll663p923OQdqzSM+GchIgIGfbb0AiL9xNxMY5Vy6/VQjBgNh9L0rnZfpJ6xTnrEnMW02IIoZjXQEjI+8Kyn+YfElioprz7bY7rEZryeOXuYmZzInUbPZxExJivW6ahiEl07F1Q9xpiGiFrckhevuyTTpIXkqG1XGnW24Q2eyuvGHNS/m5Vqyp96wf8VOOaXpghTo0xcwv4gvKzUxLgol3LOsHvUY1pGTecp2NO+fBfGH79esv7g2ya2/Ix8be2ZplTgMAnSiEPwLixT7pBlqpp4aUzMfoDnTsdTaeWdbVLOtp+Wr1jaSUF5g6IWDsrc1Zpt1B2uESIyOcsPRKQmTKYiZ1HOXbXyR6FAAeair1i0lq40EMZvz4x8+CjRv5tGfLfsO9rpbyql7641Z++vzJxKicbX8cJ8h3fMPfGTazKcRZQReZAwFuc86JUsxByEGXIzq0Dz3jO7xWLK4wbJvpzjwcg9m1a5+18rjjHguzpUacVzfo0wcK9m7HsjjJa5sr0+YgnPbaCZjTyWtgQ/NpVJlGRr7mxyAV9SQM2z4fJpKAJks3FJyhhJpC3OfBpyJ6ggCOQyE+BkS+vO6I+COFeFa9UAgFymsv8yqVih8kTlS/B/y9m2Kal/IgAvAcszI5ad2ythzl+jTSpmgm6mPqmhQdUerk60qlszp54X90Y/AS0Yn1YpGxt7a5MuUO0kFeZGYjDi0ZpGxEgG/Tpk1fjsMj4bvfICpNsiD5RpX6RAJ3OsyEMGfFwZHq5MUwaMOg49a11W1Npd7gDoDMS7mYADzA0DqEMjkpL0AAzonxFAT4R82ynst/zFUqH0dEz96kqdScJLjrdQc8nXJT6iCGlGcAQCDJZsyBPqyUensc7nLDtm92w9QggF2zrO6tes62L0CivhfC1S/FkcibEc/6VaHAy79YpfNV5uSxqYL9+UtWqf36joxPP13k99zz5tZBgCfurKnU7LBIYsO2Gd2l9/5EOZbVvZjsTdkdFiExlkGfBOGpcRB+QK95zUVBPIFDjHM9EVn1YvGnOjo46haJPAjimM3uUTv88LvmSWmKiUsu/+QhomWK6Kxh9kLcR8asHRkf/3nS8D+8bCIh3ha4D/KPTbvWsawuh7rbhoZt/7zFqNuP+o74Q8c027CizAWCiBwL1i2CKOeO79J5Lk8lmSlxEB1YyGGMhABWzbLsKB2dpC1OL3UHEJ5PAKM4kdfRDmX1yXtNlEq4g5HFLFlRKbNRQ2r/zkfEG8fGjo4KWfHjVSHEhXXT7IIusL55l146X4yN9eWbtzM0lXpiDdGz7yqVNhuVyoWAeKyrk4lGR2sNfpqFEneQTlRrbDjJmOPeRABG3bK8EDY+SnqBmzuwOt4UXL8sRMT/qScZ9UuEOds+FgH4pjkyV8LXHhOb6M84lnWxziVjB9eY+d89QYbPVyrrBq7OVSqbEDE4ChnxI5TNLsfxcd6cd2/yp4qMJ+a7MKXiiTpIJwGmLyV2KkbAkapKqb3qpVIoF0gAcLO3S4hMX/yyPlhNxLc6pskXYomV9myy/fYcqnJQ73FsYCN8BAzwsw2jo1+PmjV6dfg+E6KKUyy2U6F9o3T7Pxgc7MnLWt5TdguNjOwQddGZmOGeJEWJOUjna8V8Dd64neiB3Y+IfyMi5qt7drS4RyIUgPmNtj23yac5wTi9t/IteL1YvHTvc8+dvd2cOYxS7wY5+2c2k3lVGH93zP56xPmkaySTmauU2pMAOElo4ks/AeV5dwtn+M7xZvPXg6boTjZm2PaFQOReGgEqtUCNjr4NJxihvKXZvAgyGY88AHiAwQngnLplheNoDWOcraRuYg5iSMmnVZ4vTNAYOU8jg3iBWLv2d250D6Z9VqOjc8XEMWIg6JvnK6ZUvl4qee4lWA/NmvUpJOKjTr506ysK4PxRpf7bjUvlB/C8LbwIbaL6Eb6vAAAgAElEQVTVZvM3PheffbflALDGsaw5hm3fBUQTl38+S9AM4r5J4RhvJb7g241EHIRZk2B8/IG+RP7+Jh9QSh2mc1SrvZdBdBzTzHe/lhOoGXw6Fe5gRN91isU+CuO8lEsZGaSn60NxaWwNL0BOyhMQ4HsRfeneludt+2QiOrMzo3mQK5PIrd8abKLTh2QcZOKW3MOD19c40d+bRHvHScXMS2kSQHQ4uhC7tnIa+Ct5UhBANSI+RERdfFcCeHRjAIFL3rb/3MrE8+Q1xAGg0zH8kyGTk1IigC+oM78INReXpGHbvCfjTXn/owR4z0xhEU7EQQK+uh7Dks9SSOclMWz7HEYQCZVFvAaIfM/3AWAt7zNGms1ljWz2ds/yLCBEwhfkGSDwDkFnHFuDDAdgjo+P34FC9HN4KHWTUyp57oQMKS8FgF7MqQ3ZtWt3jAt8tzWMf5A+JOIghpQMWf+0oA4gwM9rlnXQIB3MrVixM46PDwQAQACXCICzJpEwfGBBb3Qsy5eywRcFUAPrd5AxTmcdw7bHgciTO89H33XXbflkf3xR6ofIxJzOcSbV1tAO0qEYC6dddkHsD9LxXKVyLSJG4uV2dRP9ConO6s0WzNv2O4hJeVyFhDiwXih4E6w6v/vi/hIdyhCjg4zjya6Tu+KKP2Am40F+5EtSfgkQce+aafKdSbd0QP88rFQEcFndso55sscyXe0P7SA6vCBZxBcNw/Wdq1Q+i4hf0DDKY+wYmZ12WrzygAMafvKGlLyudpPGXOxYVu+RZrvq23/yk7G169dv7NHz1/GRkb11MvU0+jttIvlyeTEJ4Qlg7Gn8L45ledKFAyCGHnIsKwoFf9rGNdUNDe0grTTWQ1pprAxUHVg2PPro6C3HH8/YTAMVv5iqXkWIeFMT4KOrIyjUcpUKUxYz58Zk2Tw+MvLioBfeN0MQ8QLHNBmv9ylTclI2MZwUB4jopHqx2AaF6ECtchKVXznasazLnzKDH6KjQztITsqDWxCcV4X1Ibt27XbDbOo8CO4Rg2X2WlLqvMkU2F7x/a+88gWZTZs8yCdE9Ll6sfjFINV+lAatEPAPt0LAo45NA3vLaIJNIY7qJG7xF5kTxzhzkGcsjhxmVME/oRA/2rxhQ/Wmd76T6QgGKnnbXtMCpn6WuzIhEhLx/VH3iJx/b50a7skYWn3c6u67EKJfOMWibwryQB3ciisN7SDzbHuuIOKQ7sCiC4wQ+ILa9meQqI2yoVvaKbFCcDrsxb1UyYaUHA7zLpeuOx3LCuUzMaRkZilP6qtC3Ddqxurtb4fwlBmXdBPHJlQQSZHJfG5VocDpvNqlN3d8QhVBvVhE32dH9FunWHy9IeVDYTFjKpN5RS8rlnannkKCQztImypMiFA+OAR41zAo3Eal8nNA7A/F1jd0lYjOmwyTn1+tvkkpda3niyqEWS8UApmh5pXLrxNC/KanSe2j33aOe7P5zYGwtNyNIl4wns1+RmcPNNe23zLWi/DCupT6lVMqtRFSclIubuWa9+5NmA3Ke7yL+AAQvcjVlYE4zvUf2dYhObSD8DAMKXn6DwYqI7q+teRZMMiQ5y1b9nLRbDL+UhLlr8D5Ic3mZZDNMsuuO9tvuWNZR4Q1kqtUvsTYvj0ykS8Kf6kzRD/1pPgON5oHCODtfnCibrUBUbpNx7I8x7wacKY/BcSbegAh+jb1ww1p66ydiIPo0I61ljzv5KDAuGYwpPyl7nKEiH6LQszp+dIFNdkH/y8AXrXKsjw0Cr2V/egHFIC1OiA/pZMjzjwZukyvuib6d2tGW7iqUGD79JWclH/wI/NhTKte4Xy5/EYSYgKlxIelqxU0WVREv2vl4dzhqRvCAaI7iK1dLhEHMaTkmCbOOw8ra0U2u0cUVqxbgSHlf7eig+OBASh1DAjBOQucWhsLBb0F4X9W3bJODhvEguuuyzYefdR7IkfEoSkLekPvO/sNTkTyDZhM4OXYpJQ6oDfr0ahUvurHM98EOO0Gy/I9Lu8iT/YGJiL+zTHNF3Bfe0NVCOAndcuaFi74BGw1kIpEHKTDfMTEK/0hDO5uccIP0WFOqTTBTBtSfLCtgqT51McNx/lPRHwtb8zbISOIpQ66iPvuI0zXR2YpZYeRswSwtl7muC7Q9i+XX5ERgnnj44b/R5mm9/fHVCazj3vD3Lo3arbujTxJYUT0r3qxuGOYcr/ckFYA6jdqlvUJrpevVI4kRM/xLo2MvGAQ1Jm4g3yy5BNxEO58HIAGBDgHlVrsJnicNMC8SuVAIcSX+5KXAiwkED+riHqPaLswOJPV+D6D80KCghkn5fiEBxE38KZeENm1Uqk/FXUC1qcKiJ49CwJ8omZZbcSPvJT3tkJdOMdlOso92UxmP85b8cXSBQC/pVVvxwwpGUr0A56/K/Uzp1RqM0oVy+XMQ0LwReuWC0Wi051iMZB0ZzoGP5VtJOYgHbwkDjnRQhXvDOo2IPrX5AARkROHGExOt7QJHHOVyjcR8aPuSoR4Yt00+5ZnRrX6KlCKb855CaZD/XVTS+7yLKLdGw3gF4NGQuRRKcag+n+ag+AN9/XtBCmAOxWiAqLdEfHVMEFHrYuI8h0ierVfSI6Oc3Q+cjzj7dPXb8RjHNNs85z7fAj/6FjWdH0INE2anFhiDtL5auqFpyfQf065bSj12snweUNKplzzgDsTwNywvHVmpQIhTkGiuVpdQmTcKLtmmu2L0fnLl79GNRq3uesiwOp2diRiNFyoD+SpW1cHl5f5GePTLHQUIcCva5YVSZZp+IF+uzozye/oe9y9jXGC9DxPrVdDW8ioVE7v4Mlq1xlAcAMBzHe//PlK5c3EYe+e0UUzOi247rpZ448++rBGspdbMztFuQlgZxGPJqIub7vuWOKc6uWkPAUBYtPGIUCz1nOkG9Q/w7YvBaIwOuXvO5bVTjvIVyor3EvVXrwxXRs8FeQSnUEmB2zY9uVANBAvuZbREAuOafZRDOf8btwRv+aYppvkpa8JHwalzR2U9HBKNdZExAld84JwfP3G44550hrvxJ7n08z4qyvPcrpLK+ZSJyH45rwLEEcAdyCAJ7qAj3trpin94tO2VXTFKXEQYOC4Pfb4GiF66bniPF1/2X/zxjgMaSRXqSxHxIWeiUSIw2uFworAr2e1+lpQyhOYhwAnE0CTAN6JPQiFQw1jCJ5CjQu9btdEJvP5VUccocU06xstjfhyIOLTRvcp3LqmUi8eW7dufePpT+f7ou7+qHWw8emaaS4eyjZbYeWpcZDOQI1K5cOAyEyzSZQHlRBvX10oeC+rejR3jldXAUA3vRaI/jY2OrrXtQsXcjyVbzGk5IjkLcBurhd5fqUyTzHvuBDM8z57qMEMsV4PYPLt606LN/CxWrHoCU4M67Mh5V0A4EZnbx9Z++WD8OGDY1kfNyqVMwHRfWe0TSK8T6mD8EPphE2zk+QGfLHGkeg7anT0c7oYTH7RvwhwRc2yApd9OSmZkoHDT7oFhVhQKxS6x7ynE4lrqtX3g1LvA8TIja/PeJ94vlI7ukHb4thk93J5dEchOHszGOQtxtKK2/bLGkSlDqmVSu2DCL+cEGbCBSH+xgcAnv5vgxwhU+4gkwZsv4C8L0FkaoHQC6tOnd8D4rWC6Oyo8A+/lywn5fcQ4ISe3/7LsazAGc2Qki87u2f8HDpfM802RGlvYUA6RfR+gXgsATxD80Vf6VhWvCjeHsV5KX/Fp3Mh7WlxE7qey/IW5dqWJSnRXS0E/D3c+g0peU+2JRoA8YFss7l7U4gr3DwrYfbStM9WJzZtDuIeeRvtEPG1QLRr+x8T6SDeB0r9HoW4o4n46yBQ5jgW7KM45lCjRmPv2pFHelJLJ3Uatn0qeC8dm02lnhMF7W/Y9tEwgcEVRXXQd4EZZzydLzrj6oYd+57vWFaXbzBM/zzbfokg4o+Ca9rsZ9vyhQxCXAxK3Q2I52+ZcpGazeb2wwLdxbXJVMo/KQ4ylQPqccQ+MhkAaLPe+vVhvpSvVAD3eN4XFzOVXx1OfGoIwfkdkRmGw4BXdJ24hxuwr0+IfwOljglKGOuZGfjo2IOsKLLZF/vFyxlS8r7Ok1yFAEd0KKS7+z2m3a6Z5rem6xlPdTvbtIOw8Xw5CQECQ9R9oG4CN5/tVGClvtI6iNCFTI1MzIp64K04MKaCflWUXIvheSVMoLB4uQRdFQ0pmd33xa4/Bc4+HaT8DT3tMnTrdeg+rSS63SkW/0Ojf08JkW3eQdrLEtv+MRB5o04D0EkCcuwPcyyrm3efL5f3JYZHRZwX9ykPE9zXSbr6c8w2fR3FL/BQER20ulhkLhPf0sr74aBFD9kpKbUEheglIXqDY1kcovOULzPCQXKXX74zZrO3AiLnfU+W+5UQ+/rtdXxyPq50LOswBptGxEUC4L+gJ1pW901obei/Ue9Ex+rW6S6vdED0gpV6HMWQkqGOtoDtId7imGZ/HFaPPr99Xfu+xMU/j4jn1UzTG/SoOdgFtv3CBuIcQfSMRrP5RHZ09NE4KRKazWiLzQgH6Sy1+ojvGViublnu3PS24YxK5ZOA2Eb36Baij3DcVmgy1kSoSw6IQpOjGFk9KEo46Mn5kXP6yK5FojsI0RcMryO/EjOZC6nZvKCn/n87lsUpwaFl/3J5x4wQvXR0vOxzB35udiyLUxB8uIm86nPl8osR8ahOSkKYg94ORFVErE4CAUb1NYnfZ4yDtF98KZmOzXvCg3i8Y5oc5t0t7a8YEVM5uB1kItvOpyDAA0R0qlMsXtQbpxTwkPgu4626y5AOISnn0IdeUk4es7ZR6ok+EMk/siU5ivNHXtQLbhH0gvmc9nHIzboWn2M3HwgBPujHIT+ps71c5P3bACFJBLCKIx107TeMo8woB+k4CQcavqZrNMSGajbn9iLOG1KeCwAfjDBuk4i+0dh++y/edPDBbVgezS/9hFqiU5xicQJBPaD4xpcFyCLA22qW9bPJnzlmSgF8AAHmh7WBiFfVTDMWPZwhJTP/BqcLhITUGFLyPqadhDVkWd5U6n1Rx/DDtDHjHGS+bc9XRL1JUNc5ltWFNm2/5EQ/BMR2qqnvrEH0S4X4ab9w+pyUnN8R+lK6dD5AiBeDUldvR3Rbo9EYUWNjuyul3gGIDPEZ2Ieefl3jWJYv8ksnA5L3BGGXlCs7Kcceks6g8fvOsj3CvYj4e1955ezZmzZV3JeLw7y8nbp/VJnMQVMFQTStDsJHheNPe9rBKMSRQMRsSpwcxRtnXrP/swOY9hAh/oKEKE/VoI1K5YuAeKr74RBfEDYa50A2+z1EPCzkwT0AiKdMJhD5yRlScl4K56dMW9GhZ8jZNseSnRsR2s+b+a/p4A/7Any7Rsz89jXLaieytXNbMhlm0h0kRCfKjmsI8R1100zc5tPiIG0q5Ebj8x0asDjoHv8HRItaoQ/MIZhoyUv5MwLwoAMS4nqMCEbUBYvL2faXkKgXIijRMUwqI4DP1C0rMhReB0fZ1cGViujs1cViYBQ0yxpS8l4tKOtxnWNZbdT/OOg0gxiJAB5HIfZ1CgXPRe8gutx1ptxBOglUHIYxTBTszXwZVTNNJpNMpPAXbYMQ9/d9TX1gbzwNBjBT+XVKhzdl2MEQwJK6ZR2no6fvkIKI2YLrEcj5KwHxm375N9xmrlzetbUi4P2Ib2HQwFZKMS/tIiMNdMYQIfPnplL7JLknmTIHYVo2HB/nr89QwXk93hx6MhLHwEw6Oi7EL1u4woGBfwjwIBHd3gJNc8MHPeFYlm5wIh8ZD4sKGTasUBJTd8W9zz13ZLs5c5gzvjuDE+K36qb5sXy1upAmTr3CIHxWdpZMffz0hpScf/8xv44S0e8RUSf3P87jC5ZFXOqY5lHJKJughki8tEkjleIb2dcmrjwkTES3rXnV6scyzebnWi+IL0AEp6oqou/usP32Jz3+73/vJYRY7dYdlx9c80RMt/ttOUaGqcVgmc1XKh8lRM89BwNM1AuFLgFq6xKQgyB5Mx8WDMmb+e/VLavs7rBh22ugByA71oAmhG8kol8LIe5tKvV7IcRz2+y/RMw3ebiuPr4HSmo/kriDtHnAZ8/mMANPyLTu4LTkiBY7xeKntWRdQvnly3en8fGL3Le+ATo2IcC+kxdSfTkRmrfObt0eUsy4He+Rd8ML6aoypOSMSfcHKxBXOF8uv0MhfqA3M7OnrZUoxLm1QmEp/32+lK9XAL5R0hp9/BMq9d6wy9P2Ui6TuUhzk/9/rdCgvTXajRRJ3EH8Nr+RvRhMIBbzbL5SOZ8Q+dY8Os984gvdpY2bVy6/RwjhuXkWRLlVxaJnZokaRuclYm6SN0fJ+v5OdDVkMqc4hcKtcer7HW1HXeSxfqNafRsoxTNKIbA9ousJ4AcMK5uz7R8g0fvj9A0QnVnN5iFhQH2emcrnBNKvPUQ0ktizJuogQZCXsQwWQ1gI8eYgbNpJNR3yHQaW25KC62qDiMZRiPNAqbU9KaR8kdcGReMYrAzivT33IoHMVFFDyJXLRotK+SAQYkHkbTeiA0qtJCGuGnTZYEjJmFZb1uWIj8xqNl+h+1K2wfx46YXIWGJBpdayzw9AKb4/0oJaRYA/0KZN+zrHHNPFRouyXdtx/QDueisOuMroVZOYg7RjaoTg8GmtgkSc+HMnCHFPU6m/CUYhnNjM8R2CB98qROGDjmW5Ifm7ou2LLIClQOSf6jtxWrUalfpArVTinGzfo0giOphpE/p42xEp22zusLJU+rfWgEOEGFUEs9mdmo3GHJHJUCunYg01Go/USiW+GxqqdLC1HutR8nXHsj4ZVzFDKwEix7T18si7Vd1ORK/BgLActyAhLqybJr8HsYomSOHvHMvivctQJTEHMaT8oeZR3o9pZOT4MDxXQ0o+EdFCJiSiE+rFIoeFdItRrX4blXofeTF73SIPgRD/6xQKnmXT3jffPDL7vvv+1bpRdmMM37VZiPnZRuNFvfwgBHBy3bLcdG5DPYypqOwHF0SNxv71I48c+FItZ9sHIJ96uWel+J2/17EsnbwWX835SuUbUag5G8bGtr/l0EPXx+/alhqJOIhO2EGnyUgOjsmudQL0GPvqeWEDJIDf1C2LoT4nwJUBGG3DnQS0pTrROAFcWC8WA0OxA4Cp26BpRqViA+KW9TjiPY5pTt8R5gBP2gcjWPtoOKo53ts0iTjWyzdvP7T+kEugjpP6Uj9020V8uWOaoeROUWNMxEE0v/g3rlHqjXeVSgwAoFXauesAvBEOR40XYldsNr9H4VTRN4EQx+rctPpkFQIhvh+I1vYhn/QECGoNbJqEOpvsn7qbQ8Tjaqa5JMkudPZUvEfxZQv2bcsnijpOn/Yvl1+QEcLDNdlbP4mNelIOwnkQoScz2UzmpSuPOMILEKBhEZ3jUQLYjAFQOET0dxDitLppepZhUU0bUjKr1RZOcaInBJGhhOBjze7alohW1ItF7TP6qHaT/N2H2OjBDWNjuw677Ajq47xqdX+h1GkAcFDUOJDoqFqx2D4iHrQYUkblm3gyQQdpZ2gHCchV9vZlCNrk9gmSEA8DwA4xB8inU5fVCoXedFAtNflyeXcSglmothSiq1rUZzf1crYj4s66uRRajScglLft5xPzsXj7P9D9kU53eMkjiI6P2MB3VQ3LEty5jA4EAuSGSKl8vVTqXoTqjKNvFhqkkruOYdsvAyLmjAgsvXkKcduMjGlysSLxJwWJbqHx8XfXjz7a+4LHbDhn259Fol5GJj48YOarLQ8b8Ys10/xcTPVTKp6T8vMI4O2TUvvokBfF6ViuUskLIY4nIg7N1y8TEcOhmMlhyrjdVgwZI62EvHhbwR6kQzMWemGGSj1nmCPLvJQnEUAg7itPg5259p8gxBlOoRCZOqr7JI1Khc/3PTBBRPTLngC/hx3L8r1n0W0naTlDSp49tsDxEP2oVix6MIuHabP93BFPiLXvcH9UAP5QsyxOeRio6CRdbRWnWPlKZSEhLg8bpS7KeJAOw7bfBUTMbR72tXgQm80TJiEzB7J6QCVDyk0euE/EP7X646F0m0Q+H6Rd9z0ICjHeVOrRsZGRR5gxahB9uWq1gEp5ggpJiHfWC4XYJKq97b/Rtuc2iRixMiw697GW47CN2qeLQYUA3lO3rAvjjnH+8uUvUo0G58GHpU4kEm4y9B6kfcuK2E3z9BvsLKWeqXtr61c/V6kcj4jnaBryIUbVwGbzAj+KN00dHrF5lcpC0fMRIIB/IECXJIdnlXqxqBVC0olX46SsUitAj+nN3ByL3baZJIgAlrcu3uyNa9Zcc8vxx3vJQ4Mc2rY5McmdXXjvhl122eOWffbRqu+nNr906V6UzTI/SFga8r85IStLdE5TiJcTwNURH7V/MYTpylKJ95h6hQhzts2RxaEZm4T45bpp/q+e0pDv7rAKdILUUKk9Jm+rB2lv0OQjjqciIc5zCoWhE64MKXkG60NAcY+HlNqtXirxl8238IFDFvFEQvwMALQTiWKUh1qgEaf3Akz01g/glY+F1+vW2YGJ5T3GCQjgIQZ1yW3kD1iD6NwbLKubG9LC0eI8/ShKvhtnKfU23Q+oYduLgCgyUDWJDTqPb+gZpDPdMTdhYAniC9R9OeLwYvjpRIDHCeCHIMRFcQP93Po84NYTBwPtM4FJGUQ8u2aaJ/r1oUNd8D1wzTq64++RuxeJPlQrFhnlpK/4xcPppOP2KuJTPIV4AiLyrBGEJt/gsPtmo3Hu6iOP7KOl8KFICBryA0h0XNCYuBKHMgnEb0WRsHYauN2xrETQHYd2EO6QISXjJIUhtv/Jsawtdwox3oz51eqblFK+L8OkGgKoCoC1RGS5oWcCmuEMuvNUNmvr0ilM6nnD5Zfvkh0ZCUY2JFrnFIt9M4PuVy+GWYCIPlcvFnvZfRlV5TE32nxcejQmOSWleLZgx/DPAkUk4tx2Ic4J++Dsd8klO4zOmvWnGMSsNQS4uHUixuQ87UIAO6IQxVjwQAnSMCTiIHnbviTqmA+Jzq4Vi75f16AXowNSdjMAvDRihnpT3TSv64S8lNhRMBw8jdXx1+88RXRZa+9Q0305Ddv+JBB5QeW8lT1h+Hkp+e7kYF39ceQ44NN9MmWUy+/iWdKtg+8lepOb/NqYt3TpyzGbPb5DGRG4LGJ6bCQ6R/e4OGESpUjzEMCKumUldnGbiIPkKpVjEPGSyN4jftYxzTMi5SZRMIRgCJoo/NsuMIBbL7O2IpHZmVXckKP9zRP9FoU4v9FsVidZc8P6aEh5AwC8wU/GzSrrF7KiM/Y4Mm5ODkNKztl32+sux7KYZzDwxpkpEDIAx/OsAYjBrFSIF/AGfBCwNk0wvTjD9pUdNHw+rOFEHKSTL/FnQHyuxiiXi2z2Y2F4qwwgzfnSCLCLhr5QPgzOPW8K8S41Mat0sa9C9F7c4ii/YpLqOUjOkFIF7eGY4AYR38H5JBr9T0LkVAS4kgC8iVQTm/rP+zXQjmWauMfgpVQYOj3b49xhko860Ra8TI762A1ji8eaSs29oVTiEKHESiIOwr0xpPxIC+Pq2zF6dlkr17icyWZv5RitvG3zmTnnbhxFRGHYsu4mNmaVeqnuMeE8257LMUAIwIk/vnkkXeWI9/Ddi2g0qquOPPJ3veOK4BXne6HEpnktmyJWgKjolhVC7L6qUPD0/c0rVjx3U6NxAhCxY4Rdbl4uEM9ZZZrht9VanevgYgnBtG6DUvEFtsTH4aDUwbVS6Vea3dEWS8xBuMWclH/W/OprdzB0+hsixKNNUMn3EPyljy5VAJBrlLLd0chGpXJO5wscrSFIAnEpAVwjAO7OCHHnhnXrVHa77XZHpV7NjL4RAApurZ4TNehB91hw2WU7NUZH2Sn4ki8Ix4qTyCoikzknKlNz0AEbtn1hBx9tUBW99e7OZjJvHyQQVqcDiTqITtiJTqc0ZW7Mrl17wMrjjtuoKe8rxqy4IpM5roWKzrNKVALPXwHxUkYZn1yLG7b9VyDaeYA+PKYQD1xtml4izB5FOdv+OBJ9I67+FlyRWS8Wq+3sOw4inDiZCluyVhXRuWH8IHH7ECTPmMEteumzY5xu+apCgK9ut3796T8/9th1SfWtV0+iDsLK81KaBCCnqsOstxWicN/I5s1zVx599CNJttOGvSE6FhDNyDsiol8QgD0ya9b1jU2b+pZgEf1aK5TKrSqVbtfpf5uGGpFvpaMu3SbV3ZpVyhhHPEEgcoTtKwInMKIfKcRz65alhcmr018dGePSS59Fs2Ytjg3ywMoRb1HN5vt7Acd12o0rk7iDcAcG2I/E6fc/hBALetfWcRREyb65Wp2zmeh9RHS0BrYXx0vxi+7h7wtrQwdsord+rlp9K05gjUUW5LB8RL532i3QMQB+QgDnuJmzIhVPgUCH4/GADvvxPkDkB9fD0eK3IuJKbDZX6n5YkujulDhI20ls+wheiiTRSZeO27OIB680zdBMsiTbzFWrBvOi40TcVDB8qivkPqz9YaiSc1JKBODZLbggErYj/v1Pdono5+0LPtPkdOatsvCteSaT2aVJ9GjdsoZKWRh2gFPmIG0nKZf3hom7jG5Q38AdJro6S1RMAkVkkD4Uy+XMw0K8lyaiWH3vQLT0CvG6QcNdhtzjXdu+x5gCIHCtcT9FhabUQdgm+1arc0aV4sQdX+xWDbsxe9NnGJhMQ3ZaROYtXbonZrPvFQDHxtxo/sWxrJcM00lDyn9E3Ft41SNe37ngu3yYdmdq3Sl3kEnDdoIaedm1oLPeDIvduqclc12Ly2/lsHnLU/1gjUqlCEK8F4g4bD2q/MyxLB25QD0xyHnqHfze6AiHqF7P4N+nzUF6bdwhVJmDzWabQIey2ceajcYjOqEeW+Pz4pvprBC88Q2LItWGPQoao0bYxj8R8eSkkUu2RptPR5+eNAeZjsFNdxu5SuWbiNhmVPItiC1Nj3oAAANESURBVI5jmtqnXX46wuLAWJ7vBmqWxXwsaUnAAqmDJGDESRWGbZ8WFn/FLEg7KzWnUio1B2l293J5dEch+Fg5LNX0k45lfX0Q/WmdfgukDpLgW6Fz/4OIh0QFQgYur2zbIqLQ7EiOM6tZVh/JTYLDnFGqUgdJ8HF34FI5FD6s/N6xrMALvKCKHXwwTucND7LctGnHuGjpCZpgm1OVOkjCj9SQ8qEoPOEWCF5sdHVDyu8CwIciunuTY1mD39EkbIttQV3qIAk/RR3U8c5m+hM1y9IKQsxVKp9CxEgU+aA03ISHOKPUpQ6S8ONesGzZLo1mMzhv3d0e0VUikzkpKK6sA3/KG+5IrFsAWLtZiJf+qlBgfIC0JGSB1EESMqRbjSHlVwDglBiqVxPR1QLgNhBiBIh2p4mMxH21dSB+yjHNr2nLp4JaFkgdRMtM8YWGhSqK2WIibEox25wR4qmDTNFj7qCrc454WL738K0jPpIVYu5UZdQN38GntobUQabw+eXL5X1JCIbf1yK1HKArm1rpukbdshgaKS1TYIHUQabAqG6VzJsBRMsQ4BkJN/UEKnVYGLd4wu3NSHWpg0zDY2e0QlDqFwDgz50Ysw+ccqyUemvSEDcxuzEjxFMHmabHzDCc2bGxMxDxwwCQGbBZjuH6dlapU5+sxLEB+/2UrZY6yDQ/OqNafS0oxdClb4nZ9DVKiBNXFwp9INEx9aTiMSyQOkgMYyUp2o6tymRySDSPEPcEIqaTnoQdugcA7kaAO1s8H/UG0eobSqUNSbaf6tKzQOogenZKpWaoBVIHmaEPPh22ngVSB9GzUyo1Qy2QOsgMffDpsPUskDqInp1SqRlqgdRBZuiDT4etZ4HUQfTslErNUAukDjJDH3w6bD0LpA6iZ6dUaoZaIHWQGfrg02HrWSB1ED07pVIz1AKpg8zQB58OW88CqYPo2SmVmqEWSB1khj74dNh6FkgdRM9OqdQMtUDqIDP0wafD1rNA6iB6dkqlZqgFUgeZoQ8+HbaeBVIH0bNTKjVDLZA6yAx98Omw9SyQOoienVKpGWqB1EFm6INPh61ngdRB9OyUSs1QC6QOMkMffDpsPQukDqJnp1Rqhlrg/wOzn6Je7X7PBQAAAABJRU5ErkJggg==;fontFamily=Helvetica;fontSize=12;" parent="1" vertex="1">
          <mxGeometry x="-640" y="570" width="60" height="60" as="geometry" />
        </mxCell>
        <mxCell id="78GjNDT4BSa-AALz03YL-27" value="" style="shape=flexArrow;endArrow=classic;html=1;rounded=0;fillColor=#FFE6CC;strokeColor=#FFE6CC;fontFamily=Helvetica;fontSize=12;" parent="1" edge="1">
          <mxGeometry width="50" height="50" relative="1" as="geometry">
            <mxPoint x="-710.5" y="599.66" as="sourcePoint" />
            <mxPoint x="-650" y="600" as="targetPoint" />
          </mxGeometry>
        </mxCell>
        <mxCell id="78GjNDT4BSa-AALz03YL-29" value="" style="shape=flexArrow;endArrow=classic;html=1;rounded=0;fillColor=#FFE6CC;strokeColor=#FFE6CC;fontFamily=Helvetica;fontSize=12;" parent="1" edge="1">
          <mxGeometry width="50" height="50" relative="1" as="geometry">
            <mxPoint x="-570.5" y="599.66" as="sourcePoint" />
            <mxPoint x="-510" y="600" as="targetPoint" />
          </mxGeometry>
        </mxCell>
        <mxCell id="78GjNDT4BSa-AALz03YL-30" value="" style="shape=flexArrow;endArrow=classic;html=1;rounded=0;fillColor=#FFE6CC;strokeColor=#FFE6CC;fontFamily=Helvetica;fontSize=12;" parent="1" edge="1">
          <mxGeometry width="50" height="50" relative="1" as="geometry">
            <mxPoint x="-430" y="580" as="sourcePoint" />
            <mxPoint x="-370" y="560" as="targetPoint" />
          </mxGeometry>
        </mxCell>
        <mxCell id="78GjNDT4BSa-AALz03YL-31" value="" style="shape=flexArrow;endArrow=classic;html=1;rounded=0;fillColor=#FFE6CC;strokeColor=#FFE6CC;fontFamily=Helvetica;fontSize=12;" parent="1" edge="1">
          <mxGeometry width="50" height="50" relative="1" as="geometry">
            <mxPoint x="-430" y="629" as="sourcePoint" />
            <mxPoint x="-370" y="649" as="targetPoint" />
          </mxGeometry>
        </mxCell>
        <mxCell id="78GjNDT4BSa-AALz03YL-32" value="" style="shape=image;verticalLabelPosition=bottom;labelBackgroundColor=default;verticalAlign=top;aspect=fixed;imageAspect=0;image=data:image/png,iVBORw0KGgoAAAANSUhEUgAAAMgAAADICAYAAACtWK6eAAAAAXNSR0IArs4c6QAAGvFJREFUeF7tXQuUHUWZ/v6egZzA7epLDKugKCxgWIiLmZU1QsRHMMhrkeziWR8oCaiI+Aai4oooHEziiw2+FiEKu64Hj0GXiJoFXcFEopHIQpQoCAfccHbJTqar54SFM+l/79+3ZzIzmTvT79t9u+qcezKTqf9RX/V3q6qr6v8JpuSGANv2XADzgg/REQBsENnw/fa/8jvz3p/l93bxgg+zB6K9P1tW+//af3sUwHb5kOftzK0RNVdMNW9/Js1n226TADgGljUPzKO/C0GKKEKQ7SDaDt8X0jwUEkd+NiUFAoYgMcFjpeaA6GVgfiWITgbzyTFVFFud6G4w3w2ie8C8hbQeLNaBalszBJmh/9hxjgTzCQDkcxKAl1e7y7EZwEYAvwLRr8h1H6l4e3J13xBkCnjZcRaD+azWt678Oz/XHui2cqIHW6PhXSC6nVz3rm67Uzb7hiBhj7BSCwGc2ZqGnAmi48vWUYX4w3x/a/q4HsB60vreQmyW3EitCcKNxnz09bVJ0Z4+mbIXgY0BWfbsWU/Dww/WFZjaEYSB/eE4y8C8FMCSunZ8zHZvANE6uO5aAp6NKVvp6rUhCDvOQfD95SBaBuC4Svda95zfBua1sKybyHV3dc+N4iz3PEF4zpzDMDIipJDP4cVB29OWHgOwFv39a2lw8IlebmnPEoRtWzbtloNZiFHUhl0vPytTtW0niNbC928iz5PNyZ4rPUcQbjYXwPcvDKZSzLN7rsfK2CCip8Op19dpaGhrGV1M6lPPEISBWVBqBQD5HJAUECOXCoHdAFZC65UEPJNKU0mEe4Ig7Djngvny1vv7l5UE17q7sQVEq8h1v1N1ICpNEG40joNlyYhxXtU7okf9vwW+v5KGh7dVtX2VJAgDBMdZAWYhR7Oq4NfE7yEQrYTryrSLq9bmyhGEbftsEMl06sSqgV1zfzeBeRV53verhEOlCMJKfRLAlVUC2Pi6DwJXkdbSj5UolSBIcOQcWA3mcyqBqnFyegSIbgNwWRWO2peeIGzb54BoNQAhiSm9g8AjYL6MPE/IUtpSaoKYKVVpn5ssHSv1lKuUBDFTqiyfvwroKvGUq3QEMVOqCjzQ+bhYyilXqQjCSl0CYE0++ButFUHgvaT19WXxtTQEYaWuBnBFWYAxfnQVgWtI64931YPQeCkIwo5zI5iXlwEQ40NJECCSS1kXdNubrhOElfoBgNO7DYSxX0oE7iCtz+imZ10lCCt1H4AF3QTA2C49AltJ64Fuedk1grBSOwAc0q2GG7uVQuBJ0vrQbnjcFYKwUpU71dmNzjE2JyJAWhf+vBZukJWSgMovNp1vEEiAwO9JawkMXlgplCCs1O1B9EJTDALJEZCoj2clF48nWRhBWKnPA/hgPPdMbYPAlAh8gbT+UBHYFEIQdpyPgPnaIhpkbNQEAaKPkut+Ju/W5k4Qc3wk7y6stf7cj6XkShC27fODwGKmGATyQoB5GXneN/JSnxtBwlO56/Jy3Og1CIwhwLw0r4tXuRAkzMr0Y3ML0DzEBSHwCIhOzeMKb14EWWfujxf0aBgzbQSIbiPXlZQWmZbMCWKuyWbaP0ZZPAQyv76bKUHMuiNeb5raOSCQ8XokM4KYdUesztYAJK/Gn0D0JzDL54ngZ6IGmA8B86EgksOc7X/ld+A5sazUs3Km65EsCWLWHdM9kMw/CXL+Mf+APO/3SZ5dtu25sKylYfq4U5PoqIVMhuuRTAhi1h1TPnaDrfCoG8C8AXv2/Jh275bj/ZkVnj37+dh//zPCBKSFnU3KrAH5K8pkPZKaIGGs3O/l397KWNgN5jUYGVlDTz/9X0V4zUodBeDtAN4LwCnCZiVsML8hbSzgVAQJoqwr9XMTSDp8XJj/ScjRrbTJbNvzQCSRYeRjCrAJWi9KE1U+HUHMIcTRh/BWMF9PnndPGZ5KVuqvQ5KYvCkpDzUmJkiYvEZGjzrn53gSlnUJDQ2V8kgNO84SMMtoUuc1yhB8f1HSJD7JCaLUzTXP7LQJlnUxDQ3dX4ZRY9oXaI5zQ+tV8oVl9zNH/24hrd+WRH8igoQ5AW9NYrBHZL5FWr+lSm1hx5H0EZdWyedMfSV6Y5KcibEJEmaTlalVPRNmEr2TXPeGTDuvIGVs2x9ubUR+tiBzZTOzJVywx8q+G58gSn2idTTsqrK1vhB/mA8mz9tZiK2cjHCj8WpY1k9zUl92tVeS1p+K42QsgnCzuQC+L6NH/fKQM89LugMep0OKqMtz59p49lk57lK3shuWtYiGhrZGbXg8gij1JQAXR1XeQ/Xe3Ao386891B6wbR8Dot/1UpsituXLpPV7ItZFZIIEgFrWfWCeHVV5T9Qj+hy5bk8ublkpebPzzZ7op6iNIHoavj9AnvdQFJHoBHGcVZJTLorSnqnD/B/wvNcRMJJHm7jROBZ9ffPh+y8E0QsByEfK461o94/Dsh7Hnj2/zXNnnpWSXByRv1HzwKFwnUSryXUllfiMJRJBeM6cwzAyIoGm586osXcqeABeR1pvzrJJ3Gy+Br7/WgCSsfe4iLofBtH3W3J3o6/vbhoaGoooN2O1cD1yJwDZfa9L2Yn+/gEaHJQrB9OWaASp45sroo+T614zE4BR/x7uHUngvFdElZmyntwdAb4Iz/siAXtS6QqF2XEWg1lIUqcS6Y3WjARhxzkIzDJ6HF4j9B5CX99C2rXLTdtmtm0hxAdBdG5aXZPkfyVEIa2/lYVert8LmMdANECuu2s6/GYmSD03ly4hreWNXarCSkkasU+nUjKTsGSItaxlacnMjcZ89PX9slYvYZgvJc/7XGKCMLA/2kluos6VZ+rOKvz9XtI63TQIQOtE7R0ATiuowRIx/0zS+uE09lgpeVgKiXmbxs8MZbdB6wECnu2kc9oRhB3nXWD+aoYOVUHVW9JOW1gpWUR34+LSK0jre5OCHMYV+CWAOUl1VE6O6CJy3a8lI4hSEvxtSeUandzhH5LWqfIlcrcx8/3n0vDw/ySFoIbZhjeQ1h3v93ccQYI5qWU9kBToSsoxn0+el3jjjG37MhCt6nLbf01aJz5IygcccCj6+3/bpRGwO9D5/ks67TV1Jkj9bguOYGTkhbR795NJeomVejOAf0kim4NMqvwZtUt0NM2tw84Ead81PymHziurymmH2umc5jlzFEZGNpXqZUaKAGrsOCvAnHvujRI9CBtJ60VT+TMlQViphQB+UaIG5O8K8+XkeauTGCpl2CPmn7TuyC9O1B7HGQDzr5PIVlhmyhccnQhyNYArKtzYJK4fneQ1aXCeyrLky0QlMZqrDPNy8rxE+VlYqUdrtjl8DWkt+1YTytQEse3ftKJlH59r55VJOfN/tvJLJGpvyXMvJt7TYce5sXVgcnmZuilXX5jvJ8976YwEqem5nMRR+Fgp2Tc4IdfOS6Pcso6goaHH4qrgZnMpfP+7ceUqXZ/oFHLdu8a3YZ8RhJX6IoD3V7qh8Z1/H2m9Jq4YNxp/Bsv677hyhdZPmKKslutQ4DrS+gMzEeTBUr2NKeZpSrR7XpFv2W+Q1sviwsjN5vHw/d/Elat4/W2k9fyOBAlDV0a6aVVxICa7//rW+Ss5NRCrsG1fC6KPxBIqvvJm0lreSsYqrNTRABJFoY9lqGyVmY8hz5OzbUGZMMVi2347iHLLGFo2LMb8ITqBXHdLXP9YKbmn/vdx5Qqu/zBpLQ97rBJEj99vP7l7Uq8y6TTFRIIo9RUAF9ULkSC/3Z+T68przViFlZLXu7G/nWMZSV95sLW+ip14J7wHJCkc6la+Slq/e+oRpH20fUHdEEF/v0ODg7HD4LBScizleWXHi7Se8d7P5DaEAQL/r+xty8G/raT1wD4ECbIXET2Vg8Hyq5w1y6annhqO4ygffHADzzwj99bLXpJNsV7wgtnQenfZG5eLf+MCBI59s7Bt/00QGKCOhfkk8jw5SxW5sG2fCKKNkQW6VzHREf6avsVq9xLz2eR5/yY/7iWI46wEc6RQKN3r65wsE72bXDfWxTB2nIvALGu2spc1pPX74jpZ6wDlRKvIdVdMJEj9Tu+Of2ZiH8moyAJdvg3PIs9bn4AgV4BZzuTVsYyd7t07gijFdURirM3MXyfPe0cUDNi2b2ilbK5Cvo0dpPXzo7Rpch1WSi6OJcqpkcRe2WRGX2wEBKnxBuHkfnkTaf3t6TqLbXtZKwriTWXr0Cn9Yb6WPO9jSXxlpWRNljp4RRLbpZAJNwxHCVLfBfq+vXGzBKogz5twH4Zt+0wQyRm1U0rRgVGcYD5xcjuiiAVfmkpJmofY+ydR9Ze+XrhQHyXI5SBaWXqni3RQIhgS3dOah/eD6DWVC7tKtJZcN9Fx9TCt9B+KhLt0tphXkOetahOkbmf/S9cbmTv0B/T3v5YGBxMdFWGlJN/6P2buVZUUEt1ErntBmyD1foNVpW6L6muqfCYFB72L2qai6wVvskYJIjvodYrcXjTYRdqLlSBmsmPcbL4Uvh85A1ORDSvY1s5W+NmDqdZHTApGPHdzRA/A919Dnve/SW2xUl8AMOHSUFJdlZeTIyds2yeBSEL8mFJ1BJjPad2r/l7SZnCzeXg4ejST6ugpOeZFQpDlILqxpxpWx8YQXUyum+roSynDF3WzL5kvIFZKwvPvE+6km34Z27ERSBx0YtRSrTMYd4b7aiFIHYM0xH4CSyzwFdI6debhityOLLobriOzB1I05hnaY/4ued7fpdXISsm14Z5Kc50Wk0Be9kLYtm/NIT1YJv4ZJdMicA9pfXJajPjAA58Ly9oAor9Mq6vn5Jm/I1OsHwJ4fc81rrcbtL11qPKYLJrISt0M4LwsdPWgjh8JQeoWxb3q/biLtM4kAxTb9qUgShSwu+ogRvR/o0yx7jfDa0S4SlAtSQCGqdxmx1kC5tixwEoAQXEuSMxmVuqPAI4ozqqxlBgBrWcTkDrSSHj/R+Lu1ik5axLYHxWCmHNYSaArWoZ5bpojJKPu8oEHPg99fRKQoLwBt4vGtrO9nUIQ+UaaVR6fjCf7INDX9yLatevxLJBhx/kZmFO//crClwroeMYQpOy95PvH0vDw77JwsxWx/UetzGEdM7pmYaPHdAQEMVOssvZqwpjBHRbl68B8TlmbWlK/gimWWaSXsXd8/1U0PHx3Fq61IrVL9l3JwmtKPAQeNa954wFWVO23kda3ZGGMlboewHuy0FU7HeFrXrNRWK6eT30yd+yNlW2bYBzp+najOWqSDsCspW8mrd+ehVJW6k0AvpWFrhrr+JE5rFie3v85tF5MwLNpXeJG42RY1s/S6qm9fHBY0YT8KcNzsAO+fyoND0t+yFSFlZINQMm8a0paBILj7ubCVFoY08v7/t/S8PC6tIrMyJEWwX3krzNXbjPHNKZC5hvI894ZU2qf6ubwYVoEp5S/2gRtyAXXyEp3gOiV5LqyF5W4sG2fDaLE0UwSG+51wSBogwn7081ufl8rweaaNA608pTI0RE5QmJK1giEYX/qm5swa0Dj6CN6EK67gICROGLj63Kz+SL4vtwI/YukOozcNAhI4Dj5szmP1YXHhPky8rzPprHMjvNdMC9No8PIdkSgHXo0JIjZTS/ySZHUCsAC8jzJwZGosG1fA6JEyXESGayf0Ljg1WYvpOjuT5RYc9RJVuqtADI5q1V0wytjb0L6A3Nmp9h+I1pCrvvvSYyGNwLvAXBUEnkjExGBCQl06pwjPSJeGVZ7mLQ+Oqk+VkoS20iCG1PyRGBSCrZ5IHooT3tG9xgCiU/rslKnAbjDYFkAAuOTeIYL9XqngS4A89DEW1sjiFxgil1YKblA9crYgkYgNgIT0kAHBDGX+WODmFBgIWm9Oa4sNxqvhmX9NK6cqZ8AAaK7yXVfJZLBa95wBDFpEBJgmUDkOaT1YFw5k7sjLmKp6l9NWv/DRIKYSHupEI0sPGuWTU89NRy5/ugXmG3/FESvjitn6idAgOhUct0Nk0cQifeaOLddAjfqKnI0af1wnMaHR0oeiyNj6qZCYGyUH5tihdOsewG8PJVqIzw9Aswnk+fJPkbkYjYGI0OVRcXNpPXCUUWTCfI5AB/KworR0RGB2PfO2ba/BqLUd0ZMn0RC4POk9Yc7EcRkGoqEYepKp7W+pSIdUWelTgcgdz32S23VKIiCwJtauVe+PTVBHOdIMMeaH0exaOrsg8ATILpwdCHYCR9uNo8Pj7MfYjAsCAGio8h1H5mSIME6xHEeAPP8gtyptxnmy+B5awh4ZjwQfMABh6C//10A3gHg0HqDVGDriR4k133JeIsT1iABQUwQhwJ7JDD1JIDbwPxDEL2slUxzHgCJvm6IUXRPANeR1h+YniCOsxjMdxbvm7FoEOgyAkSnkOveNS1BglHEtn8DouO77K4xbxAoDgHm+8nzXjrZ4D5TrHCadTWAK4rzzlgyCHQdgWtI649HJYhslPyi6y4bBwwCxSHwCtJaNsonlClHkHAUMffUi+scY6m7CAT3z6dyoTNBHOcjYL62u34b6waBAhAg+ii57mfiEaTRmA/LeqAA94wJg0B3EfD9l3QKHN5xBAmnWZJofkl3vTfWDQK5IrCBtO6Y2HR6gjjOu8D81VzdM8oNAt1EgOgict2vdXJheoIA+0Op+wAc1802GNsGgZwQ2AatB6ZLWjQtQYJplm1/GESpQmTm1Dij1iCQDgHmS8nz5IpHxzIzQRznIDDLKHJ4Om+M9DQIyB31P7SiJR4JYK5BqhAEHgPRALnurlQECRfrn2gFeLiqELfrY+QRyGne/fbbQoODT4w2mx3nr8AsoX2uBNCsDxyFt/RK0vpTM1mdcQQJCDJnzmEYGZFRxHy7zYRolL8T3UauO21Udm40joVl/bMEuY6i0tSJhcBO9PcPjP9i6iQdiSABSRxnVfCNZ0o6BMZFzIiiyIT7iYJSzDpEq8l1L48iFZ0gtn0MLOs+MM+OotjUmQIBoo+R68Y+ncBKyfXcju/qDdYxECB6Gr4/QJ4XKdRuZIKEa5EvAbg4hjum6tjign/SimayOAkgbNsSO1lSO6sk8kZmAgJfJq3fExWTeARpNhfA9+UQ4wFRDZh6Ywi8n7SWyOyJCtv2rSA6N5GwERpFYDcsaxENDW2NCkksgoSjiHmjFRXdifXOIK0TR2Zn2/4MiFYkM22kQgQivbkaj1Z8ggCzoJSMInJ/2pSoCFjWETQ0lDg6Itv2+SBaG9WcqbcPAlug9aLJATJmwik2QYJRxHHOBfOtMyk3fx+HQKNxIO3YsTspJiY3SFLkQjmiN5LrfieulkQECadaNwM4L67B2ta3rIE4c9/JOLFSklUq8Rqmtri3G34Laf22JBgkJ0ijcRwsS6ZaZrc3GvITIvZFE9lbi5VaA+CSuHKmPobg+4toeHhbEiwSEyScaplbh9FRT5x6LRyxJRz/66KbMzUDBKa5LRgFoXQEkQQ87QX7iVGMmTo4j7SW4yOxCtv2ShBF2vmNpbj3K28KF+aJ0wumIkjwzWbbZ4NIgiubMjMCw6S1PXO1cVOrZvNw+P6jcWRM3RAB5jeQ530/DR6pCRIO/58MT5+m8aUuspsxa9YpUbJMsVInAJAddFPiI5BqSjtqLhOCBCRxnHVgPid+O2oqwXw+ed43O7WeHecKMEsAP1PiIhDhtHRUlVkSRFInSJAHufRjSjQE7gTzHwE83DpGsq21t3QsiCQ+k4wcJnh1NAwn13oE7RPTYykMkqlpS2VGkGAUse1zQLQujUNG1iCQCgHmpeR5t6XSMU44U4IEJFHKrEey6h2jJy4Cmaw7xhvNnCABScx6JG7HmvppEchw3VEEQcx6JG2HG/k4CGS67sidIGY9EqdvTd3UCGS87iiEIOF6RM4OyRkiUwwCeSHwXtL6+ryU57IGGe8sK2WS8eTVe0bvlElvsoQld4KEi/Ybwbw8S8eNrpojQHQTue4FeaNQCEHC6dYPWscmTs+7QUZ/LRC4g7Q+o4iWFkaQkCQSfM4EQiuiZ3vXxlbSeqCo5hVKkJAkOwAcUlQDjZ2eQuBJ0rrQIziFEyQkSeLz+T3V3aYxsRAgrQt/Xgs3OIoIK7UdwItjIWQq1xWB35PW87rR+K4RJBxJbgdwZjcabmxWBoH1pPVZ3fK2qwQJSfJ5AB/sFgDGbqkR+AJp/aFueth1ggQkMSmnu/kMlNN2ymALWTWqFAQJRxJzLCWrXq2+nlyPj8SBpzQECUhiwmvG6bverMu8jDzvG2VpXKkIEpJEbiWuNld3y/KIFOZHkJIuy9uAWXheOoKEaxK5177aBIHIoosroINIrsheltU98ixbXEqCjDbQXN/NsqtLqyvza7JZtrTUBDFTriy7unS6SjmlmoxS6Qliplyle7DTO1TiKVUlCWKmXOmfyRJpKPWUqtIECadcEgtYAjmbgNkleuojuLIJzKvSxsqNYCfTKpWYYk1uMUvAO8dZAWbJ2Wfyk2T6SGSubAhEK+G6Kwmo3CnuShJkbMrVTuIjJDGZrjJ/rjNReAt8f2XS5DWZeJBSSaUJMkaUds5EmXaZxKIpH4iMxLeAaFWSnIAZ2c9MTU8QJFibtLPvymgiH5PHPbNHJJYiSVK6ElrLdOqZWJIlrdwzBBkbTZrNBfD9C0G0DMyzS4p7b7lF9DSY18Kyvp4mUWkZQek5gowRxbaPgWUtB/MyAHPLCH4P+LQzyN3u+zeR5z3UA+3Zpwk9S5AxosyZcxhGRoQk8jm8FzuxC216DMBa9PevpcHBJ7pgvzCTPU+QcQv5g+D7y4OpF3BcYQj3liFJ8iNTKQnatqu3mjZ1a2pDkDGiAPvDcWR9shTAkjp0cgZt3BAkRnLdtQQ8m4G+yqioHUHG9ww3GvPR13cmmCVwxEmV6bViHN0IovXYs2c9DQ8/WIzJ8lmpNUEmkEWphUGEFSEL0fHl66oCPGK+PyAFIJFE7i3AYulNGIJM0UXsOIvBLKFmTqnBemUbgDtBdDu57l2lf2ILdtAQZAbA2bYlYNlCEMkI8/IeiC28FcBmMMsIcS95ngTwM6UDAoYgMR8Ntm3ZUzkRlnUSmGXdUva1i6wlNsL3N7ZeSmwiz9sZs8m1rm4IkkH3h6OMjDSyOTkPzPKzfIraoJSHfjuItsP3ZUSQTbvtZnRI37mGIOkx7KghHG3aZCE6AoANIhu+3/5Xfmfe+7P83i5e8GH2QLT3Z8tq/1/7b48GpGgTwYwKOfXj/wOUH9QfiliSywAAAABJRU5ErkJggg==;fontFamily=Helvetica;fontSize=12;" parent="1" vertex="1">
          <mxGeometry x="-117" y="499" width="40" height="40" as="geometry" />
        </mxCell>
        <mxCell id="78GjNDT4BSa-AALz03YL-33" value="" style="shape=image;verticalLabelPosition=bottom;labelBackgroundColor=default;verticalAlign=top;aspect=fixed;imageAspect=0;image=data:image/png,iVBORw0KGgoAAAANSUhEUgAAAMgAAADICAYAAACtWK6eAAAAAXNSR0IArs4c6QAAGiVJREFUeF7tXQt0VNW5/v4zmYSEN2RmQFCQl4KIVvHR5ASlvVbspSYTLbbLequ9XdfWR6utetXWitWrXrWtrY+Wu3qLXnW1Us0khVux3hYlk9QqWkUQ5OEzCDMTgQDJJJmZ819PArQF4kxm9jlnnzn7rOUya83e//7+798f55x99v5/groUA4qBARkgxY1iQDEwMANKIGp2KAY+gQElEDU9FANKIGoOKAbyY0DdQfLjTfXyCANKIB4JtHIzPwaUQPLjTfXyCANKIB4JtHIzPwaUQPLjTfXyCANKIB4JtHIzPwaUQPLjTfXyCANKIB4JtHIzPwaUQPLjTfXyCANKIB4JtHIzPwaUQPLjTfXyCANKIB4JtHIzPwaUQPLjTfXyCANKIDYFOrBq2Tj2axN9rI0zNC1AbIxlppEgDCNwOTFKmTSfCYfYyDChl0FJEPYRcweT9pFmGIkMGTsoZbQl5i/aYRN0Tw+jBCI4/KGWhtnMOIlAJzBjJoimAzwFQLngoZIAvQ3mzUTYwOD1RHg9Vl2/TvA4njanBFJA+CujTcNBmOfjjG6AziTgdAAVBZgU0bWLgZc08IsZ8kXBWN2u1+4VYdiLNpRABhn1ymjTXB8bC1ijc8A8b5DdnWlOtJoMfi5D2sp2vXaNMyDcOaoSSA5xCzQ36KRRGIxaAFNz6CJzk60gNLHBkURNfVRmoDJgUwIZIAqB1qZpxMbFxPQlBh8vQ7BEYyDQRib+DZP2RKKqdoto+8VgTwnkkCgGow31THQZMRYWQ4Bz9YEJK4h5aVyvb8i1jxfaKYEAmLV+WelHu0quZMY3+1edPHyZq2KMn48dm37ozRMW9XqYiT7XPS2Q0WuWjfQn/deCcDWAMV6fDIf4vxOMB1LlqZ/smruow6vceFIgE1uXlfey/wYwrgMwzKvBz9HvfR9/zLyvlFL3tFUtSubYp2iaeU4godbItznD3wNRoGiiaI8jcdJwZ6wq/FN7hpNjFM8IJLg6UgcNiwGcJAf1rkXxOgwsjs8LN7rWg0EAL3qBhF5Ydqyhld5JxF8aBC+qaRYGmOk3mtF7c+ysRe8UM1lFLZBQS+O3mPkeAGXFHEQHfeshohti1XU/cxCDpUMXpUAqmxtmaET3AzjPUvaU8QMMPGMwX9NeU7+p2CgpOoGEopF/ZfCDAA0ptmDJ7Q93E+iqmB7+b7lxDg5d8Qhk8WIt8E9zlhDo64OjQLUWyQCDf5n4v7WXY/FiQ6Rdp2wVhUACLZGTifFLAKc6RaQa9x8YeIUJX09Uh19zOy+uF0go2ngRA48ArB6ppJqN1E3ApTG97kmpYA0SjKsFEohGbiLgzkH6rJrbyAADNyf08F02Dil0KNcKJBhtfBDgK4WyoYxZxAA9FNfrrrLIuKVmXSmQUDTyJAOLLGVGGRfKAAHLYnr4IqFGbTDmKoEctXx5RXp0OgLgczZwo4YQzQDRs6UUDLdVVblm06NrBDJ6zXMj/d37lgOoER03Zc9GBohWp8qGnr9r7jmu2ELvCoH0iSO57/cgVNkYSjWUVQwwWlPlwz7vBpFIL5D+sxulK12TQcSqSVVsdolWl1LvAtnPmEgvkGBLZCUY5xbb/FD+9J1nfTZeHV4gMxdSC0StVsk8dcRgk311S1qBhKKRBxhw5dq5mKnjHSsEPBjTw2ZeAOkuKQUSaG64kYhc+/VVuii7ABAz35Soqb9bNqjSCSQQjSwiwNX7d2QLslvwMHBRQg8vkwmvVAIJrn5qDjTfixZkQpeJc4VlYAaSMDJnxudduFYWkqQSSCAaeYmA02QhR+GwnwEGXk7oYTNLvhSXNAIJRht/AfDlUrCiQDjMAC2J63XfcBhE3/BSCCTQErmUGEtlIERhkIMBJlyWqA4/4jQaxwUSal4xhZFaC8JQp8lQ40vEAKOT4J8Tq1n4tpOoHBdIIBr5HQFfcJIENbacDDCwPKGHz3cSnaMCCbY0XgHmh5wkQI0tOQNEV8ar6x52CqVjAhnzQuPRJT5sAFg9WjkVfVeMS53pDGbuPKvuAyfgOiaQYDTyGICvOOG0GtN1DDwe18OXOIHaEYGEmhsWMpF5+EldioGcGCDmL8Rq6lfk1FhgI0cEEoxGzEqrKoeVwEB6wNQrcT08124/bRdIoLXxSjLM1KDeviaVD8MJw0fh2IrhGF9WjlH+UpT7SvpISWbS2J3uxfbuJN7p2ov1e3fjveQ+bxMGgDW6KlFVZ+uijr0CWbPEH+wOvgdgvBejPbViOM4NTsRZY0I4unxwaxMfJDvxws4Yno23YWvXXi/SZ/q8PT4kPglzL0/ZRYCtAgk1R77PhNvtck6Wccw7xcUTpuDssWL+XXj+o+14YtvbfXcWr13EuCVWE77DLr9tE0hg1bJhVOJvA2GkXc45PU4Jabj62Jn44vjJlkD57fZ38cA7G5DmosgTnRtHjA5OpyYm5i+y5ZnTNoEEo5FbAPwwNxbc32rOiDG4ceqJmFxhbY3Qd7v24e6tb2Dtnp3uJy13D34Q18O2PInYI5BVq0qC/t3bAVTmzoF7W54bmIBbZ5xsqwO3bXoNzya22Tqmg4O1x1OjxmP+/LTVGGwRSKg58m0mmBWfiv6qG3cMbph6oiN+3rP1DTTueN+Rse0elBjXxGqsr7hri0CC0chbAGbYTaLd450XnIBbptt75zjUx9s3v45n4m12u+7EeJvievg4qwe2XCDBaEM9QE9b7YjT9k8eMRoPnyhH4scr3mjFa3t2OU2JDePzBXG9vsHKgSwXSKAlspwYC610wmnbpZoPj56sw/z4J8P1XrITX32tGb1GRgY4lmFgwopEddjSoxKWCiTQ2jSNDGOzZQxJYvi7U07ABRYt5ebr4tPb38WP3l6fb3fX9GNNm56oqt1iFWBLBRJsidwKxmKrwMtg98Tho7FkjhyPVofycfnaVryxt8gftQiL49Xh26yaC5YK5OP6gRsYfLxV4GWwe/fxczFvbEgGKIdhWP1RDDduNPeFFu9FoI0f10GcaZWHlgkk0NygE1GzVcBlsDt96Ag8erLc5UrMd5HNnXtkoMsyDMxck6ipj1oxgGUCCbZEfgTGd6wALYvNqyfPwpcnHCsLnCPi+PW2d/DAu29KjbFgcIQfx6vD3y3YzhEMWCeQaMR8cZpqBWhZbD596mcwfki5LHCOiMPcMn/BK3+SGqMAcFvjeniaADuHmbBEIJXRprkajJetACyLTTc8Xh3gyguPWQa009r1WuEvXJYIxAvb2sPjJuH6qbNl0esn4rh36zpEdpjHcIr3smobvCUCCbY0vlDsJdPM/Vbmvis3XOb+LHOfVlFfRKvj1XVnifZRuEAqo03DNRjFvWwC4IHZZ+DUke7YnPxKRzuuXvcX0XNHOnsGtBHteq3Q45biBdLS9M8aG7Znn7A7Wr8+5WxMGuSxWbsxHhjP3Hry5Vefd2p428Y1SFvYXl37vyIHFC6QULThLgbdKBKkjLaeOf0cjPSXygjtMEwdqV6c99JzrsBaCEgC3x3T628qxMahfYULJBCNrCLgbJEgZbS18oxzMKLEHQLZk+7Fgr8Uv0AYeD6hh+eLnC/CBRKMRjoBVIgEKaOtp06dj6OGuMPND7uTuLD4v4WY06QrrocHly4my+QSKpBQS8NsZiry5ZJ+Rv9rThVmDx8to3YPw7Ru7y7829pWV2AtFCQRnxirrl9XqJ0D/YUKJBhtuBigx0WBk9nOrTNOwrmBiTJDPIjt2UQbbtv0uiuwFg6SvxLX658o3E6/BaECCUUjdzIg9CVJlKOi7VwycSq+OckdG5V//t5GPNa2VTQFUtoj4K6YHr5ZFDihAgk2RyIg1IkCJ7OdU0aOwYOzPy0zxIPYrlr3Z7za4ZG0QIzGeE04LCowYgUSbVwH8AmiwMlu549nLkC5zyc1zGQmg8++uFJqjGLB0fq4XidsD5BggUS6vFTjfPGMT+FzgaPExlewtT8kPsTiTX8VbFVqc8m4Hha2vChMIIFVy8aR328mh/PMVT06hHtn2Z6Rf1D8Xv/mGrTsig2qj9sbcyo1PjF/0Q4RfggTSGX0qbkafEW9xf1IhD9ycg1mDB0hIhbCbWzq3INLXyvqQ51H5MxA5rR2/UIhW9+FCcSrVaOcSDOaq5I8lo70IC0iq1EJE0igpfEyYv5VrsErlnaczuD+mXNxRlCud5G/xD/EtWbCBskXEayYB0z0tUR13VIRtoUJJBhtuA6ge0WAcouN9K5dSCUSmDFsFJ784mVSwb7ot0thPmL5Q0GUjJDzEdA6wvj6uF5/nwj7wgQSaIncTozviwAluw2jqwu97e3I7O44CPWi2afg5prPSQH9zuY/4Ml1rx7E4q+sRGko6Jm7CTPuSNSEzXIbBV/iBBKN/ISAawpGJLmB3lgM6XgCzHwY0uuqPotLTjrNUQ8ee/1l3Nf6x8MwaOXlnrmbMHB/Qg9fKyIQwgQSjDb8AqDLRYCS1Ubv9h19j1SfdN169nmon3mSIy40bHgdtz3/zCeO7Q+F+u8mRX3xkrhe/w0RLgoTSKi54VdMJNeDuAiG9tvo+eADpHflVhPwRv0cfPlEe6tc//qNV3B3NLczH74RIzFksjvO0+cTQmJeGqup/1o+fQ/tI0wgwWjjowD/iwhQstno2rQJ3N0zKFhfPfkMfOfTQs/uDDj+j/+8Co++Nrgz51RWiorjLC+vMSjOxDWm/4nrdV8VYU8JJAuLXevWg438imSeNmESrq/6DI6rtCZ371vtMdzb+ie8vC3PlD6ahqGzi3HrnIQCKcZHrOSmzTC6uwv+h+hrnzoTl33qTIwoG1KwLdPAnp5uLP3ri/jVX18s2J5v2FAMmTKlYDsyGZD0Eau4XtJ73n0P6T3isheVlfjwxVmnYOFxszEzzzvKhvYYVry1Dr9981X0pMUVx/FXjkXpUXJ96CxMcBK+pAeKaJm398PtSLW3FxajT+g9bUwAp088BnOCE2D+PXHESJQfkiElmepF254ObNmZwNr4NrzU9n7f31ZdpcEg/OOseRS0CvNAdqVc5g00R24ncv+HwvTu3eh5/wO7Y4ohJX4MKSnpG7c7nUZ3OmU/hknHwDdypO3jih6QCXckqiX7UFgMW03YYHRv3QojmRQdM1fY04YORfnUYngfkXKrifs3K/bG40jt8NbZiUOVWzZhAkrGjnGFoAd8xJJxs6Lbt7sb3T1Ibt0KZMS9/LpxllFZGSqmTQF8/Y97bryk3O7u9gNTPdu2If2RRxIbZJn15g7g0pB7X9ilPDDl5iO33JtC1+YtQCbtxn8whWM2v7KXT58O0jThtu0wKOWRW9PxYNSdSRvMDYjmRkR1/Y2B0gkT4Hfnu4icSRv6BeLOtD/JzVs8u3I10D8K2tAKlE91Y4lJmdP+uDBxXKajA93vva9uHkdgoGzyMSgZ4bLvIjInjnNj6tHetm1I7VQv50f6F6Jk9GiUHe2O/MMH8MudetSFyatFbUgsxltQ35LvcTNc5prMyatdVv6Ae3vRtfEtl00Ae+GaAjGF4pZL6vIH+1eyXFNAxzwhaJ4UVNfADJROnAD/GNd8WZe7gI5Js5tKsPW0tSG9c5fSxycw4Kb3EFeUYHNTEc/klq0wU/ioa2AGtIoKlE9zx3KvK4p4VrqoDHTXho3glP3byt0kSPL7UTHTHYWCXFEGujLaNFyDIe4onoWzqXOtJ8opFszg0DknFmzDDgMGtBHteu1ekWMJS9rw96CCLY0vgHmeSKCibZk5dbvefFO02aK0VzFrFqhE7kJBIFodr647S3QALBFIqDnyfSbcLhqsSHtGdxLJTVtEmixaW+UzpkEbUi61f8S4JVYTvkM0SEsEUhltmqvBkLpWSKYrie4tSiC5TKgh06bCVyGsaFMuQw66jQHttHa9VkhNkL8f3BKB7P8eYs4+eZc/Mhl0rlePWLnMxIpZM0H7z8vn0t6BNlvjeniaFeNaJ5CWyI/A+I4VoEXZTG58C0ZvryhzRWmHfCWoOGGm3L4RfhyvDn/XCpCWCSTQ3KATkdT1v7rffReZPUIXPayIkaM2zTMh5tkQmS9mrknU1EetwGiZQEywoWjjBgZLu4juVIofKwJplc0hkyfDN2K4VeYLtkugjTG9zrJbnKUCCbZEbgVjccEsWGig++13kNm3z8IR3Gu6ZPQolB19tNwOEBbHq8O3WQXSUoEEWpumkWFstgq8CLuZri6YIkGeCapFYJDRhlZairJjJ0OTfCcva9r0RFWtZcuRlgrEDHygJbKcGAtlnAQHMKlThYdHp/y4GfKLg7AiUR3+gpVzy3KBBKMN9QA9baUTImybIun5oC3vUgciMEhhw+fr25wo+52jnyu+IK7XN1jJm+UCMcEHoxHzVJL0R9OMzk70fLjdswkczGq4ZZMnWTnfRNreFNfDllcAskUgoebIt5lwv0h2rLLFmTRS22OeOqeu+f0oCVTCrIbrlosY18Rqwj+1Gq8tAsGqVSVB/+7tAFwTATOBtZlpsZgTOpiVb82VKvNQFPkk34z4j0poj6dGjcf8+ZZn+rNHIP2PWWbd6h9arXjR9o2eHpjfSzIde4RUmxKNLx97vuHD+kRRMmpUPt1l6PODuB62ZTOsbQIJrFo2jEr8bSC4LNHS3+aD+SKf3rMX5tIw9wyuqKfTs8o3bBh8w4fDLLlm3jlcezE6OJ2amJi/yJaPV7YJxAyIG7bB5zpxTIGkOzthdHYh09kJM0OKTJd5EtDMjmi+ePuGDZf/PEeO5Fm1rX2g4W0VCNYs8Qe7g2ZJ1vE58uGeZpkMMslk/92lK9n3t13HeU0x+MrLQeVDYJ4h7/tb7t23+cZ1e3xIfBLmXm7bOWl7BWJ+OGxtvJIMfjBfhtzUzywfbZ5cNLPGc9r8LwNzlQzm/5nBGbO8NANGBjC4/xsMAUQaoJl/aIBP68+yTgTNrNlRUtL3Qt13wu/A3y7Nwj7YWLJGVyWq6h4abL9C2tsuEBNsMBoxD7acWghw1ddzDLwS18Nz7fbaEYG4vRqV3UFS4wEiq0YNhk9HBLL/LvIYgK8MBqxq61kGHo/r4Uuc8N4xgYx5ofHoEh82ADzUCcfVmG5hgDrTGczceVadIzliHRNI312kpfEKMNv60uWWaaFw7meA6Mp4dd3DTvHhqEBMpwPRyO8IsHTLslPkqnELY4CB5Qk9fH5hVgrr7bhAQs0rpjBSa0FQj1qFxbK4ejM6Cf45sZqFbzvpmOMC6buLtEQuJcZSJ4lQY8vFABMuS1SHH3EalRQC6V/VavwFwJc7TYgaXwYGaElcr/uGFEhkAHEAQyAaeYmA02TCpLDYywADLyf08On2jjrwaNLcQfruIqufmgPN9yIAF283lSW0rsSRhJE5Mz7vwrWyoJdKIPtXtRYR8KQsBCkc9jHAwEUJPbzMvhGzjySdQPpE0txwIxHdlR2+alEsDDDzTYma+rtl80dKgZgkhaKRBxi4SjbCFB7xDBDwYEwPXy3ecuEWpRXIfpE8ycCiwt1UFmRlgIBlMT18kcT4ZIXWjyvYElkJxrlyo1To8mKA8Gy8Orwgr742dZL6DmJyMLF1WXkvl66UvaSbTfEqnmGIVpdS74K2qkVJmZ2SXiAmeaPXPDfSn9z3exCqZCZTYcuRAUZrqnzY53fNPacjxx6ONXOFQA6KpKfzd+pO4thcETMw0epU2dDz3SAO02HXCORvj1v+iHonETNXbbdCeLaUUmHZH6v+nhdXCeQA8FA0ola3bJ/dhQ0o+2rVQN65UiCmM+o7SWET1s7eMn/nyMaDawViOqa+uGcLr/O/y/qFPFdmXC2QPpFEI+beLfPcgNrgmGvU7WmXZOBS2fZWDdZ11wvEdNjcBcya75dqq/xgw29Ne3PLOhmZr8u0KzdfT4tCIAecV4eu8p0GIvvJc9hJhFdFJZC+Ry7z+K6BB9UZdxHTYxA2GJ2s4SoZjskOAnXWpkUnkL4VruYVUwxK3a+ypWSNv5AGZvYRjf3XOJ1gQYgzhxgpSoEcfOTqy7uFe1RyOiumjmmTOkG4wcm8VVZ5dsBuUQvEdLI/gyPfqdKcCp9Kj6czdLNTGQ+FezOAwaIXyAG/9yfMXqyyyhc8tV4h5sWxmvoVBVtygQHPCORALPbXJ/leURbxsXbCbWeN/sPu+hzWupTduucE0kfJmiX+UDL47wxc5+aaidnDK6AFo4OA+2Ll8f+0s7KTAORCTHhTIPup6yss6vdfC+BbbipRLSTy2Y20f/wK9zNOpX5iV8HM7JDsb+FpgRyke9WqklDJ7iuZcAWAGfaHQaoRNxHj4Vh61EN21CGXyvMjgFECOYSUYLShnokuI8ZC2YMnEh8TVhDz0rhe3yDSrtttKYEMEMFAa9M0YuNiYvoSg493e6CPhJ9AG5n4N0zaE4mq2i3F6GOhPimB5MBgoLlBJ43CYNQCmJpDF5mbbAWhiQ2OJGrqozIDlQGbEsggo1AZbZrrY2MBa3SOa87HE60mg5/LkLayXa81KwyrK0cGlEByJOpIzSqjTcNBmOfjjG6AziTAzEpeUYBJEV27GHhJA7+YIV8UjNXteu1eEYa9aEMJRHDUQy0Ns5lxEoFOYMZMEE0HeIoFB7qSAL0N5s1E2MDg9UR4PVZdv06wS542pwRiU/gDq5aNY7820cfaOEPTAsTGWCYaCcYwApcTo5RJ85lwiI0ME3oZlARjHxF3MGkfaYaRyJCxg1JGW2L+oh02Qff0MEogng6/cj4bA0og2RhSv3uaASUQT4dfOZ+NASWQbAyp3z3NgBKIp8OvnM/GgBJINobU755mQAnE0+FXzmdjQAkkG0Pqd08zoATi6fAr57MxoASSjSH1u6cZUALxdPiV89kYUALJxpD63dMMKIF4OvzK+WwMKIFkY0j97mkGlEA8HX7lfDYGlECyMaR+9zQDSiCeDr9yPhsDSiDZGFK/e5qB/wc2nfUyd2/ZvAAAAABJRU5ErkJggg==;fontFamily=Helvetica;fontSize=12;" parent="1" vertex="1">
          <mxGeometry x="-177" y="620" width="59.5" height="59.5" as="geometry" />
        </mxCell>
        <mxCell id="AiGol-srTTA_0abKe_U3-2" value="" style="shape=image;verticalLabelPosition=bottom;labelBackgroundColor=default;verticalAlign=top;aspect=fixed;imageAspect=0;image=data:image/png,iVBORw0KGgoAAAANSUhEUgAAAMgAAADICAYAAACtWK6eAAAAAXNSR0IArs4c6QAAGD5JREFUeF7tnQkUdVVVx/+WJs5lVE6p5QCOCDgkolYKKQ5kWJCkWanlQOGUEpgDaIqiiZStVq0SBwzREANF0ZwIFXBEzTQHVCQlRFMiJer85D7X/Q7nvrfvvecO57691/rWB+8743+f/z3TPntfTS59EfhpSQ+VdFdJe1Z/9y3T84+DwDmSzpXE32+W9I242quN047F1rKvpNdK2nmxPdyejl0k6WBJb6932QnSbQBcQ9LRkg7tlt1zzRSB/5N0jKTDJF1OG50g3TR1XJiOn9gtq+cqAAH0e4gTpJum9pb0vm5ZPVchCDCT3FPSB30Gaaexa0n6tKRbtMvmqQtE4LOS7ugEaae5h0l6U7ssnrpgBB7iBGmnvSPD5u2Idlk8dcEIPMcJ0k57p0rar10WT10wAm9xgrTT3n9I4mLQZTsQuMAJ0k7RnG5YxHG1oDRtGpMul6DI+0q6g6QTJH1zYMxNoPr90sBayFO8SZelE+RJkl5R4cWx3D6SvpQHv2QpJlCdIANqIF/RJl2WTJAbSjpf0nVqmEGOe0n6aj4cdyjJBKoTZCD08xZr0mXJBLmfpDMSmH1B0r0HIokJVCdI3pE8UGkmXZZMEHA7u8G8fKiZxASqE2SgIZ23WJMuSycIJh9nSrppArshSGIC1QmSdyQPVJpJl6UTBOzGJIkJVCfIQEM6b7EmXS6BIGOSxASqEyTvSB6oNJMul0KQsUhiAtUJMtCQzlusSZdLIsgYJDGB6gTJO5IHKs2ky6URZGiSmEB1ggw0pPMWa9LlEgkyJElMoDpB8o7kgUoz6XKpBBmKJCZQnSADDem8xZp0uWSCbCLJxyXdTdL3WuBuAtUJ0gLR6ZKadDlnguCM7R6Sbly9weAdxuoPb8NzyOGSXtCiIBOoTpAWiE6X1KTLORHkBpL2r/78SmSEOBSMbwueKx7YonATqE6QFohOl9SkyzkQZHdJR030lPUzknZtoSMTqE6QFohOl9SkyykJcuvKOyGeQqYS3EwyW1nFBKoTxArnpOlMupyCIBgW/qmkx00Kz5WV+x5kBkqYqAmzJAh7jNdIuq4BlAsqS128b39F0pervz9vyLtKAhnxgvhziTznSbpTi7JIagJ15BkEV0S/Hp4c79KyL3NP/q/VM+rnDdRQky7HnEGeJWlTZ3HK9gZJH5D0xZ7ArCMH5OPlYds6TKCOSJD3V/3oCdWss79XEn4HcotJl2MQZCdJx1dfuVQnaegpkiDQJzKhADl4J5JyEcpzXMjR5e26CdSRCIJz5WMz4TX3Yp4g6ZWZG2nS5dAEuVG4y3irpLs0dI6gJexHuLTLJTeTxJc1RQ6Wajif7kKOuS2xPrIG11xYzqWcD1V3YjnbMzlBrlktlVLkuCzMFgdIOi1nj6uXhUPMHKtmmkAdaQYBQzDeBvnPAYIUmXQ55AxyYsOy6uuBOA8IF4J8AXPKUMuqehtNoI5EkFRbcutzqv7Opm+5AV0NJhw8c7oSy6cq31VsknPKkMsqJ8hmTeUeR4smSFOIAI5pMQ7Ev21OYeZgz3HLRKFdT6ua2jfVFzXVntkMogFmzNn0LTfzcebG0en1Io1eWm2yuHvIKWOSg3bPiSAfDpFZMdNZCUvWPXKCO2F/Z9O33AR5saSnJZRENNh3ZFYexTXdA3BahfO4tvccm5o4J4LcPwzgZ0vaTdLHwlf8uQ2O9Db1ad2/T9Xf2fQtJ0Fu3nB8+iJJz+yjpYa8TZ4V+x7lznHADACfqcipCGJqXM9Epr7lJAgmJMSZrsvXgmkJRokssXJLyjdvn0tAS/tMoA6wJre0bYg0S+6vqW+5CHLnapqPlfTIyvZqCOVRZuzdnaVc7mVVve0mUJ0gQ6k7a7kmXeYiyMnVQ6d6D86StFfWLqULY6PKYyvW4R4fJC/gpkFU6AfB1LccBCH8wHcSetlTEqcRSxITqIUOmJSeltxfU99yEOThlQVuHeCPRkeQSyGJCVQnSBHqNukyB0Gw1GWvURcsc3lGuzQxgeoEKULtJl32JQj5L5F0/QiS24YTLUKiLU1MoDpBilC7SZd9CcJDlndHcGBvRVDNJYoJVCdIEao36bIvQZ4ans++JILjb0L4s8cWAVH7RppAdYK0B3aCHCZd9iXIMZKeEnWurSOECbDpXKUJVCdIZ3zHzGjSZV+CEJv8oKhXj6ge24/Z2bHqMoHqBBlLHb3qMemyL0HeI+k+UTO5HOSScIliAtUJUoTqTbrsSxBOqrC1qgu+dC8sAqL2jTSB6gRpD+wEOUy67EuQ7wbviNeOOte3zAmwMldpAtUJYsZzyoQmXfYZzOS9ItHDPmVOCZilbhOoThALlJOnMemyz2B2gjTruA+uk4+cWgNMg6jQD4Kpb30U6QRxgqwQ6DOOpvogOEEGQN4EaqFf1BRcS+6vqW99mO8ziM8gPoOs+QpvI0FwWUQYuHVCGlyuLkFMX9lCZ0xT33wGaTeM8cyCx411cnrlObJdyfNMbRpETpBm5cUADuFDdU5DZ5/wjJioVOsEbyvvmlOje7TFCdIDPLISzKYenOakNWEOelY1m+xPDu9fXtrQmkMlvXw2Le3fECdITwzx0I717u2Co7Z3Breij68iQfUsdvbZ6S9EwYvK5dWMAWmIirQkcYIsSZvel+wIOEGyQ+oFLgkBJ8iStOl9yY6AEyQ7pF7gkhBwgixJm96X7Ag4QbJD6gUuCQEnyJK06X3JjoATJDukXuCSEHCCLEmb3pfsCDhBskPqBS4JASdIgzaJt7G/pLtLumsVgHNJil9yX86VdI6ks4OH/TeHIEMX9eisEyQBHubcr5J0kx7AetZ5IIB19SE9HPk5QSI9/l0IYfboeejWW5ERgVOD5fWjJF3cskwnSA2wY6uvTUsMPXkhCHR5yOUEqZTLsmqIOOaFjJ2taSZe9/G+bxUniKSdJX26+tsKnKcrEwE8Yd5e0vnG5jtBJD09uA892giYJysfgeeHR15HGLvhBJH0+jCDHGgEzJOVj8ApiZDdTb1ygkj6nKRbla9374ERAfwIWPXtBJFkBcGIvycrAAGruyfr2LCWNydoTH2jY6aEhfo+mpNCxmhLbl1ay9vUt/NCzJg/kHTmpoQj/rupb06QETUyQlUmpbf42FnLs3SNpfxtLAlHSmPqmxNkJG2MVI1J6RMRBAjmtBQzYeUEGWnkjlSNSektBqq1PEv3/i3YhO1iSThSGlPfnCAjaWOkakxKn4AgWBhz//KPI+FgqcaElRPEAmU5aUxKb0GQcnrevqUmrJwg7YGdcw6T0p0gP1ChCSsnyJyHe/u2mZTuBHGCtB9ay8jhBLHr0YSVzyB2QEtIaVK6zyA+g5QwmIdooxPEjqoJK59B7ICWkNKkdJ9BfAYpYTAP0UYniB1VE1Y+g9gBLSGlSek+g/gM0nYw30vS10MIOUI4f7tt5hmld4LYlWHCattmEHx9/WoVW5Dgo8Q8j2OaYzN0vCRcIF1gx3sWKU1K9xnEZ5B4tEKCl4Ugmwe1GMZXBAcHJ0o6UtKnWuSbMqkTxI6+CattmEGIvPvCELr5+nbsrpIST5MlONQzKd1nEJ9BQOBa1VLp4T2IUc96lqQHhvDP38pU3hDFOEHsqJqwWuoMcm1J7w/Om3c34PWZFu8UiIN+jxlv5E1K9xnEZxC8mj+0gRxflXRM5QH9I5K+U23U8WK/R0WA/dYQ67TgOf1BBuJNkcQJYkfdhNUSZxCc4OEMLyX4AGNPcskGHO8j6XWSbtqQjj3NYXZdjJbSpHSfQbZ3BmEG4PVaLJdK+p3qVMo6WomRclzwG/ZbDRl2k/Rxa2EjpXOC2IE2YbW0GeQkSQckMHqCpFfasdsh5asbSHKypId1LHOobCal+wyynTMIX/xvJpT/bkm/1GNEcjzM5vzGiTK4aPxGj7JzZ3WC2BE1YbWkGeRgSa+J8MFsZFdJX7Pjlkz5i5LelSAfdyPckcxFTEr3GWQ7Z5ATEjflxMIgJkYO+UAiVuM/tLydz9GOdWU4QewIm7Ba0gyCOcjtInz67D1iqF8cjoSfFv1IXBXibcxFTEr3GWQ7ZxAscdkT1OWekvjy5xDuVbhfqcuFDXuTHPV1KcMJYkfNhNWSZpBUhzE3ucyO2dqUNwwxHIkaWxfKpo65iEnpPoNs3wwC0bG+jSWnL9gx6uhLNCeIHUETVkuZQcYYvGPUYVdvOqVJ6T6D+AyyGj4+g6SJlBOXvqSeKr/pY+IziF09PoPYsSohpRMk81LCCVLCsLe3casIAiypDudeSoxRh13FV01pUnqHD8dDQlXPqYJ/YtKzLXLhUpZYTpArh+wQBHlG9WR5W0hR7+fpSyHIGMufMeroOwhzEwQjT2zQtlWOdoLYVb+NBHmnpF+2Q7S4lAc7Qew63UaC8Hzgx+0QLSrllyTdwQli1+k2EgTTGkxstlH2Jq67E8Su+m0kyBmS7meHaDEp/0LSk+iNE8Su020kyP0lvcMOUfEpOeTgWcPhki5fEkH8mHe4Y96nVG6Sih/9GzqA8/JHSOJg4odSygyCSTmPoXig9N8NHR3jEq9NHZY25x50uY95V+3bRdJTw5p8H0m3zN3oCcvDX8Hqz3tS7SiBIHgO4a053hJx8sbb81MSnWkzeLvqxFrH/lWbr7uhzV3b0ZRvKILkbmcx5ZVAkPMl/WwN0X8Pg+/WMyfI54MzB8IrrKSpzbkHihMkM6IlEMT61bam6wOhtQ5ruj5tSeV1gmRG1AnSDlDrwLema1f75tROkM0YtUrhBGkFl9li2AnSDtfZpi6BIMTjiIPf/KSkiyNUU2YR7FVY/+eQ24RjQMKz1YWb5p2j32jbRdFv9GEMkw2fQXJoulZGCQRhgP981O87Svpk9BtxPm4b/UbwnDdmwuw3wlEzjuLqQhtoS134/09Ev3020bZMzdqhGCdIZlRLIMgHJd096jc3vDtc6ASr0/eG3+4dpTtK0rMyYUbIA95G1IU20Ja67Cvp9Oi3fwk30kTSHVqcIJkRLoEg/5QIWPPIhB/el4bwaE+O8CEvr+FyCIOewV+XVJwQ/PUSIbcuOJwjuu7Q4gTJjHAJBHmRpD+O+n1s8OT+R9FvWF++L/rte5KIHBUvedrCyLKJaFRXjzISju1D0W8YuuHytC7PD7Y9R7SttEN6J0gH0NZlKYEgDwhOo98adYIwajdLdAxXoD8T/Z7aJ7SBcafw9f9oIo7hV6ILzFWZxFaPQyVgETvGy7ylEuQ6kvjw3Lcydfli+O9/Dp4uDwnRxL7bRplt05ZAEMDBxCSWPUMcwg9HP+JcGmvMWP48sfyyYvWXVdi2OD0zGDNZXZhRUr6AMZNpsiGztsOSbokEuYWkt1VhLGIMsM0j8jCPmwaREghCx4lYG29yX9IQixDQiAkSy99WyzLrF+d6kl4m6fcSZbFku3Pi99Q+CCM44ouMIUsjCDEi0f06A0lmE5bXrCqySykEeWIVL7AOAI6jAQ6v7nVh4J4j6RoJtL4s6Td5KbYBSQb0ayXdJJHufyTdLbGvwbM8XzKWZHX5/VDOX2fXXLrAJREEcqAnZpBNAu58QLOTpBSCYDrOmj9+/vnDl18Rgnz1CZ7TJJRFAE72FgT9/LHqPoNl253WRLelPIJ6Qp5Y/ipEsoIMdSE8WxySYZOy+/z7UgjC/pJj+7rB5yZcvhD2eUQnRrfZpBSC0OEjG06CbiUJ69lY2B+wicspLKF4FxFL6padNDhbe27OBmwoawkEsSyrmmDIvtwqiSCcTjGVXjNCh2NW1qDfT6DG8TB3FfSzjzDwKIt9Tyy0h435XaJ/4Ij5RlVg0T51t8lbOkHaLKuacMm63CqJIADyvIab8b+v4qCnQOPB1Ss2LJvWDUL2LTzgTz3SIt/rqn1NXAY3+NzkjyklE2TdzMGgT+1Fmn7PNpOURhAGW9MpVerYtT44fzcYOP6hpN2MI5YjZJZp66LYNr3XZm+zu7GenMlKJQh7Dk6rUiRgT8EKgUEfC4c05EvdiUEe8vXak5RIEG7Gz24YVdhKHb1hxLFpfnD1xp3//qkqPY/2CRfNxSJmJZvinz8zLPf+rKEuyAFJxpYSCcLgxgIidZTL4Ma+DnI0PSEgH/lTJCEf+TuTpESCMOgw3fiThtHHCdNjMsYmTFXTtKxaLQOfPTYzqvpKI4hl5lhdAq57Y8PMM8hMUipBfqRa+x/YMBA/V1nevinzQMXknVkjNr9fVYM5PPcs1oGauXnmevseWuRo97oNOfcZ3GvUb8g3PUKDJNybUG4snTfupRIEAH403F2ctMFKFlN5NthcHPYRTEiOqwwfm8o5WRLvT/63T0U981qJOTVB2pIDWDYRhDTZSVIyQVZjKWUOH4+z04Ij4jdUhErZdaXGJa8YGfDMUrGZe5x+LHP2TfwphSB86fdKdAZDT2aO1IbcQhCKZE9C+SkriNbvcpZAEEBhY/70TaOn+ncIdVZ1P3FJ9XSXJRtPYn+i+hsl7WcsD3N8NuxzkBIIgmUzPn9jqW/IU1haCbIiSdPGnZgnOIszyVIIQmfpOBv02NTcBESHRJjWHxBmF75Kc5ESCIK5EL7OsNJeSWrPEWPahiDkTS23MFS9ecKfQaP+lkQQOoknQ268MXvHfmsIAWRmLMxOrMu1Idph/cqm0k29B2FfyOUtwnt9lrCpZVW97W0JsppJ3h4+nJgCIdSL/Z5ZlkaQVcfxNHKYJC7ycgpvTVhS4c1kjlLCDLLCjcdPvNTkyByPNJukC0Eok2Uz7mo/lnhxuqnOxYQ/aOoopyW/Vm38uDBKbdzWgcTUz1qWM3aOjLlInLOURJC2OHYlSNt6dki/1BmkCRTcAuEeyCLcdWBCXZI4QTJra9sIQn+vMGI49Trd2Mwdki2VIOwt/ysChP0frz4HFSdIM7xOkEGHXqvCUzP/KM74nCBOkFYjdaLEbOjju4tR3vo7QZwgE435VtVi38ZpV11e3/AOp1XBmxI7QZwgm8bIHP499e4GjzO5j/Gv0lcniBNkDgTY1IYTJB0UJcK0KPUEelNZrf7dCeIEaTVgJkiMxxls5mLLiFY2VV3b7QRxgnQdO2Plw3Mi1th1+XblAmrwpwVOECfIWAO9az043XtslPn4cIn7210LbJNv2wgCNku9TFtq3/CcGTvfw4o692vRJG+2jSB+k37lMCjlEpR4L1hN1wV/Y7zdGcMZ+OKNFVNfBZ9ByiAI70V4S07Mx7owczCDjCI+g/geZJSB1qGSJlez+E4+r0N5nbI4QZwgnQbOwJmaPOXzYhTn4aPJthFkqRvZ1YBZyvKRY12Od2PhGS3PdUeTbSQInuA3udUn9DQx1kuTJRDkBdVr0Bh7nujiOnZU2UaC4Etr0yYPB3CxacOoiulYWekEwc0S7pli4e0HH7WLOuLSOds2EoQwBUSsXSdEqeobGbezUnpkLJkgbL4JI0E8x1iw5sV6d3TZRoIAMp7gCeyZEqbxlceN0RXSs8JSCcJ+g5k9RQ5CXkzl63gr70FWY3AXSY+r9hoMLPYdmDVY36z3HMuDZC+RILhpwlNMSt5YebccBCxLods6g1iwKTFNSQQhMhePoPA6kxJiSP7CWDfmTcp2gpRIg+Y2l0IQHLjxngMvhykheBHLLmK2TCpOkEnhz175nAmC6cjjqyCoxG5sEk6xHjVwfBcz8E4QM1RFJJwbQXDX86BqGcWMsM5ND20/IoTk5h5kNuIEmY0qsjRkKoIQKgKvlfzBmyV/E7Pc6iEff8cc5b4lCwoZC3GCZARzBkXlJgiDnECm1sCnXSAgQjEzB25eZydOkNmppFeDchMEj+upyLO9GlllPjHEtj88GB8SLm+24gSZrWo6NSw3QazltWnsqVWs+03WDG3KHCytE2QwaCcp2DqgrS8KuTxtClhq7eClVVhtiMFt+besGeeQzgkyBy3ka0NugmA8SJyVPTY0ERIQV54YgxdX9xf8N7ZVhLwrVtoQpNhOesN3QACXOTdwTGwIQBCCwxC00mU7ECAgEKdTLgYEIMgLg73LMwxpPckyEHh58FR46DK6MnwvIMiD53hBM3zXt7aGR4fHR6/a2t637DgEubqkc4MjLh4JuSwbAd5z3z4YCnJz7WJAYHXct2v1ym4nQx5PUiYCnHDtPbO47rNHsn4eXo9dPfuGewNbIzBKPI3WrZp5hvjC6DHhCBAgscJ0WQYC3w/L6KMqK9nLl9Gl8XqRulHl5vTVkvYarxle00AIfFLSgZL426UDAutMDrDg3Lf6w9rV9ycdAB45y2WSzgx7jTOqP7zMs4a9HrmpZVT3/zA32YyEyNiwAAAAAElFTkSuQmCC;fontFamily=Helvetica;fontSize=11;" parent="1" vertex="1">
          <mxGeometry x="-360" y="790" width="60" height="60" as="geometry" />
        </mxCell>
        <mxCell id="AiGol-srTTA_0abKe_U3-3" value="&quot;My name is Bob&quot;" style="text;html=1;align=center;verticalAlign=middle;whiteSpace=wrap;rounded=0;fontFamily=Helvetica;fontStyle=1;fontSize=11;" parent="1" vertex="1">
          <mxGeometry x="-800" y="811" width="100" height="30" as="geometry" />
        </mxCell>
        <mxCell id="AiGol-srTTA_0abKe_U3-4" value="" style="shape=image;verticalLabelPosition=bottom;labelBackgroundColor=default;verticalAlign=top;aspect=fixed;imageAspect=0;image=data:image/png,iVBORw0KGgoAAAANSUhEUgAAAMgAAADICAYAAACtWK6eAAAAAXNSR0IArs4c6QAAHk9JREFUeF7tXQmUHFW5/v7qSQK4a0LIdHVAxeWhqMeQrk5AdmUXNxQ3XEhXJ6Asbk/UJ0EfKirLk7WrBxDcRXkKKstTiGzp6gEXRHlolEe6epJAEMWFhEzX/1IzHZylllvV3ZXp9F/n5OScqX+/9+t7697//pcgj0RAIhAYAZLYSAQkAsEREIBI75AIhERAACLdQyIgAJE+IBFIFgEZQZLFTbj6JAICkD5paHEzWQQEIMniJlx9EgEBSJ80tLiZLAKJAKIXlh0I1m5NplK4eikCjm0l6iO95GOYrYmcF4DsKM0f7YcAJDpG0ygEIAmC1qMsApAEDScASRC0HmURgCRoOAFIgqD1KIsAJEHDCUASBK1HWQQgCRpOAJIgaD3KIgBJ0HChAGGc5dSslQnECst2ioBumBykWgCSoFEEIAmCNoNZBCDBjdP5fRAZQWYwFPxNE4AIQHqu06ZpsABEAJJmf+s5XQIQAUjPddo0DRaACEDS7G89p0sAIgDpuU6bpsECEAFImv2t53QJQAQgPddp0zRYACIASbO/9ZwuAYgApOc6bZoGC0AEIGn2t57TJQARgPRcp03TYAGIACTN/tZzugQgApCe67RpGiwAEYCk2d96TpcARADSc502TYMFIAKQNPtbz+kSgAhAeq7TpmmwAEQAkmZ/6zldAhABSM912jQNFoAIQNLsbz2nSwAiAOm5TpumwQIQAUia/a3ndAlABCA912nTNFgAIgBJs7/1nC4BiACk5zptmgYLQAQgafa3ntMlABGA9FynTdNgAYgAJM3+1nO6BCACkJ7rtGkaLAARgKTZ33pOlwBEANJznTZNgwUgApDE/a0fLgsSgAhABCAhERCACEAEIAKQRH1ArmCLCJtMsaxEfSRRb5yBTImc74dOs62t+sFXmWLJFCvxb5MAREaQ2J2nHzqNjCDjEZB70mPDAxCAtIK2g1x5LVMsmWIl+BkYZ+mHHwMBSB8CRM+bK0E409d1cg9yqkOrVFDTSYAEd0Re5diVg1Ts6QaNAKQ/AXImCCsFINGQEoD0J0BkBInGxvg00jA5iFQ+0hWDOJGsk9OOBOqVWPS8KSOIUqQEIGFh2mE3CgUgiuiQESQ0UDsyQGSKpYgRmWL15zeITLEEIIoREIBMjoAs806Kh4wg/QkQmWIp/n4KQPoTIDLFEoAoRkAAIlOskK4iI0h/AkSmWIq/nwKQ/gSITLEEIIoR6E+AyAii2D1kBOlPgMgIIgBRjEB/AkRGEMXuISOIAERWsWQVS/HnYkpXScLVI9m8MoIoNq6MIDKCyAgiI4jiz4WMIIDkYk3qBTKCyAgiI4iMIDKCTIyAFG1Q7w8ygsgIIiOIjCDqvxgTKOVEYUTYOrliJ2V/EvXR7cokABGASFWTkD4gABGACEAEIFMiIMu8ssyrOHGTEURGEBlBZASRESTsd0CWeWWZV5Z5ZZlXcVLVJ6kmiaLhw9TJZd5O2dRpOTKC9OEI0qlOJACRK9hi96V+6DTbgtIPvsoIIiNI7B8BAch4BOT6gwRdpx9+VQUgAhAvAjvsPkgC3Puy9MOPgUyxZIqVGC99ARDvPseAx6lZge8SB7WHGGUEiWisfgBID/XX1E0VgAhAsGiROWvDbG1XHm3Oy2jaPJd5HhN2BWMXAm1wNTysEW0YZTw8QDtvcFaf/0TqPXU7KRSAqAAkhEb1Ount1L6T1O6113GzH3/msw9hF4cSqADCPGDs37Nj2vc3ABvAeJgINTB+PkDu6gftoQ0x5cx4cgHIjG+i9gwcXFJcmmHtYDAfwMABAGa1JzGU+1cA/RzkDoO1mmOX/9BFXamIFoCkEuZ0leQKxde7rL2RwB4gnp+u9gnaiO4j8HXN0dGrR+6+4oHtZkcbigUgbQRvprFmjdJbCFgG8GEzzLZNAK52qXn1SPXyO2eYbaHmCEB6qbUCbNULxXeC6UQAB/WAO9cS6Oq6Xf5hD9gqG4W90EhBNuaM4vvZAwZhaQ/6cRuYrnZq5ctnsu0ygszk1gmwbfwbA58m0KIumf84gDoYfwUwH4T5AJ7eJV0/YJfPagxXftUl+W2JFYC0Fb50mQcXmbtoA3QWwB9pSzNhM5hWgVwHLjkA1QmuQ6TVZ2O2s8a+0APIpGfeXic9faedR+c3NZ6vEeYztPkE3o0JxxDw6rbsAf7CwFkN27qgTTkdZxeAdDyk3RGYyy8/jKn5GYDyCTU8CMLP2OUfNmqVHyWU4cu2W2H5HhmXDyfi1wM4og3ZM240EYC00ZqpsB53XCZXf85nmPGJuPoIfKcL3JoB3bTWtu6Iy5+EfvdF5oLRWXwYsfa61mrac2PKmVGjiQAkZuulSZ41zIMIY1Oq18TQ+xiDL+bmwNdH7r50u+495PZ9/6A7mlmxNV1lBYDnxfDBI712wB04+f+GL1kfk6+j5AKQjoazc8Ky+dIJRHxVDIlNgC7amjpy8Uzbwd49v+z5TdI8kHj/4nzs38tMyxu18uoYcegoqQCko+HsjLCcYZ7MgNfZlR4GrhwgXPRQ1fqFEsN2IhpcYr5Uc8dA4v1TTXl5AoxlTs365vYwWwCyPaIeojNrFM8g0OfUzOLvgfjidhMm5+77/mfM2ZJZQBoPkptZAOJBF1hA4EEACxi0XiOsYxfrmHg9E9YNNLGuSZvXN2pXP6pm67+osvnSKzXiFQyUVHmZ8clGzVKMi6rUaDoBSHSMUqPQDfPzAD4epZCBDUR0klMtXxtF6/f+BYvMZ23OYD/yUlLIW3WiPZPIafE8SuAfu0w/mk3ubXEyevXC8iJc90IQ5ijpZww5NauoRNshIgFIhwLZrphs3ryEaGzqEfXYzFRq1Mq/jiKc+H6hYe7nAvsB2L/NpdgItXQLkXsrmtpt9eHybVE25haX9meNLwWwVxSt956An9Zt67UqtJ2gEYB0IoptytAL5jfAeEeUGGL67qZdMic+suqSv0fRbnufM4rHM7RTAS6o8nSOjmvet1TDrnwtSmYub17nbTpG0Xnv05xuCUBUWqSLNDmj9DkGn6Gg4kuObX1MgW6MpHVU+FQAb1Dl6SLdzS7RRSPV8vVhOvRC6d/B/AUVO1yX9x0ZrtylQtsOjQCknei1yavni28EUeR3BAEfqNvWxSrqvJWiDNOpzLxchT5lmmvIpYvCpl6tla77Vex6Eu5uD3f5FKMARKUlukCjL1mehev+FMBLw8Qz4+hGzfqxigmti0u9USPuEVoV8Z2jYQxt3mXg9KCporeI8OQA/hKlkBjX12uWl97StUcA0rXQhgvOGcWrGHRCGBWBT6zblStUTMwa5rcIOF6FdhoN4UZ2cTsIG4loI7nNR0Y1bKQt2iMj91gbBxeZc3mWO2/AxVzWMvOYeS4Yc4l4X4C8w1mZ2HoJd4EG3uOsvmSNH6++xNwbLu6Nkkugz9ftcuw0nCi5294LQFQj1UE6lY1AAsp124qcJg0uMhdqA/AOH70qhol1An7CRDdv3ilzc5yP/qk69jzig3OeeHTzoZqGQ5jxOgAvi2HHOmL3bfXa0O1+PNm8eRQRohMrGUWnZg3F0KtMKgBRDlVnCPUlJ+bhZryp1TOCJfJNjl05PErjeK4WfgJgpyja8fe8igjn1w/P/ggrV7pqPPGo9IJpgPEBAO9S5WTGWxs16xo/+lzBXMGMS0JlMT9CA7Skfpf1R1WdqnQCENVIdYhOL5g/BeOQIHEM3NOwrX2i1OmFYhFMVhTdOC7wRyI+r25XwjuakjA1Iu9QFzNOB+hAJQ6iU5xq+UI/WpUNVAZf0rArJyvpikEkAIkRrHZJs4ZpelOnEDkPZdg96KHa0INhunSjeCpA0YeLGJtBOH909pbz1t9+5SPt2p+EP2cUT2KmD4Hwwmh+Ps2xK//lCxKVvaIYl7NG2zJOIQBRjVQH6LKGeTcBQcdk/+kSHztSrXjTr8Ant7i4mDWqRZnjnQUZJTpl3QxIYNztNe+bN/DkrHMBvDvSbpfz9eHK8FS6bL74YgLd0Sp25yuGgesatnVslI447wUgcaLVBm3k6EFsOtVKJUxF1limE7R6lBkMfKdhW8lWtKKEt/E+VzDPG592hT8MN9ewh5ypVDnD/DADXw7npnc7dvnrUTpU3wtAVCPVJl3Y6MHAHQ3bCj8UdeDKAf2JEe9cRNT3yRcc21LZmW/To2TsWcM8jYDzI7jvdnYeXIJVK0en0ul5cxVorEKk70PAL+Y8d87SNTdcuDmZhZO5BCCdiGKEjKjRg4iOr1fL3wkfPcwrCHhfGE1a6Rfthiy7uPgq0uiXYXK8My4N23r/NIAUikeAyVu5C3vOcGxLKWUlyhcBSFSEOvA+/NuDf+LYlaPC1OSM4ucYFDoquKN42sg91j87YG4qIsYrtOAfYcoI/Pm6XZm2CaiQ+fwgtMde5qy+pu0q9AKQLneHqNEDoKMcuxz4izi4uLhU0yi0XKcGd5+19tA9XXal4+IXGssWudDujjsqLlh68u6Z5havCIUeyEvau5zqZd9o12gBSLsRjODXDbMKwPAjU/mY1o3iNwF6e7Cazn6Udjkc08TrRuldAIekw/O3HLsy7SiAnjc/AILvvsmYEqL/dqrlN7XrjwCk3QiG8Ld2lT2A+D4a8Jqwcjx6xHybCJ+rV61PdtGFVETnCubZoWWNiI90qpUbJhoz78CTnj7nidHfAcgFxtfll68drvy2HScEIO1EL2r08O7+I5zpT0YVxy6bYSJ0w/SmXr6F2NLIZO1iaKaJjjgwdYNjW0dOZcoZ5vkMnBZsJ5/p2JXPtOOHAKSd6EUBJGx6xXxMWIXDXL70diYOruSh0RHO6vKNXTQ/VdH6ktLhcHnSKDHRAGJ6R71W/tbEv7WOEfsmOrbofu3YVpwkzmk+C0C61A3CplcEbJjz6Jzd16wJXqvX8+adQVXbVb5duuRWV8VmDfPbBLzNVwnjLqdm7Tv1nW4Ubw3L9yLiY+vVynVJDReAJI1c1OgRMr1i8FcbdiVwT6N130fwbrDLBzrDlZ93yfTtJlZfXDwAGq0KNID4XU61MmllSs8XPwiirwTxEOGqetV6b1KnBCBJIxcFkJDpFRjvDCuEpudLXwfxO/1UMOirDbscumHYJZdSEZs1SlcS2L9DM33DqZUnpdF75U15dMD7EA85RUm3u0RnjFQvi327lQCkC80etXo1+uSWXdf/0j+7ds89Pzhn0/M2jwDwLfpMAcl8XXBju4iMSMb8806PzhmcOjXVDdO7hGfarvv0Dwq+UGsOXLB2+NI/qTonAFGNVAy61tlw39WrqLpO2cXFt5JGQWkntzq2dXAMU3qSVDfMW4Kuk2OX39YYrnx3omO6UToSYKVz+wAeJpCpegWcAKSDXai1eeWV5glcm2fg9LCLYsKmVwR8um5bn+2gyTNSVM4w/4MB/+VZn2mWapbzBGf/yS69vjFc/llUAAQgURFSfK+ayg3Qi8Oqr+uG6dW69Z9eMS2u18qhqRmK5s5osly+tA8TTzsT0jL6z45tTbtKQTdM77jtC2I4th6ENzhVyw7jEYDEiGgQqW6YDQBeoeeo53HHtp4VRDRYKB6qMf1PwPs/OLb14igFO8p73TB/D+BFfv64xK+derBML5SuB/PRMf3/vebym8J22wUgMSM6lVzPm2vUjpOOcf7Wsa2XB6mMyNr9imNbXs2rvnh0w/SO3p7i56xflq9umF8E8NHYwWE6x6mVAwuGC0BiR/RfDHq+dC2I36gugm5y7HJgtZKsEXLmowvnrdXtTp+yVTr1Vj/NfmdFopMeA31Y49iW70jlcQhAEra94sm4ydKJL3eqlWWBU7W8eQMIvgDS3MwL4yxPJnRrxrAtXLziBa7W9C/jw7jRqVmTctRy+yx/OWfc3yRxgFk7plG7zLf+lgAkQURbJ+K8X7d4JT4ZZzk1a2UgQAzTuyv8lX7v549i9j33WFsSmNuTLIsWmbM2DODJAON9c6z0grkJrHjXyCTB/in1MoIk7DptzHeXObWyt6nl++QMcz0D831ernNsS2URIKFHM5NNN0xvw3TBVOu8XLa6be029e+6YXorX1Fn9n2ddWzLd7CQESRm35j/inc/bWDnne8jYI+YrCDmw+u1yk3+fCs13Rhp+r/jmmNXfA9dxbWhl+h1o2gH3Qvv2INb6wFPrg6pG6Z3qdArkvi4eeeBZ/iVYBWAxIzmeMVA8mrhxn400MvW2mXvkM+0p1XtfVqpmxbh9x3bektshT3OoBvm9wC82dcNTdOd1Zd5y+tPPSEjcGQkBtyBBX5XTgtAIkM3mUDPmx8D4ZyYbGPkO2HOs9bYFz7ux7vQWLHIRdN3E3Csnm7V+lASnb3ME7b5qiGzz1r70onn8Ek3zOT1hrWBF/lVmheAxOxB0WfEgwUGzXM9jrACBgRcULetyIJrMV2Z8eRhJwanFqrYY/FJu41qo+uSOuU2m68eufvyaaWIBCAxI9qND0HPhN0XmQuaA/A+Sv2eax3b8p9qxLS/l8h1w/w+AN/CC5lRDD50j/UUIFRqbYX5Tuzu73cNgwAkZo/RDXNtWDJimLiwKZbHpxsm+/GrVnyP6cqMJw+rJzZ1NM7llx/G5CY+guyOYp53WdDUoAhAYnYT3TC9kpazY7KNkYevYo0BJCina6NjW/OidI6NQhmUoui29/uwvaCJtumG6VWkn+tj74hjW9mJf8/mzfcQ4atJfAv7ARKAxIxozNyrydIjNgrDfjFVKyfGuU45pusdISfgsLpt3RwlLKzyol+H1gvmx8DJFk/CvvEEIFEtNeV9/PyrCQIIdznV6YUHtlGEde4muXutqw5F3v6aK5Q+xcwz9czInzf/bWD3R34Xfc/7gsKyf8uw5rsk7lfySP24wfQG1+C+bq095JtFLQCJDRDzHBCU7yufKj5ortv6BvEu1/GvlUX0ZqdajrwyOre4tD9rPFMLOvjWt/JrAr1QehOYvY90v8dybGvSVFI3TO+U4XExm9O7feuXTs16dRCfACRmRLP50hIiTn6BfUhHDzuqu3Ul+ArHtk5UMTfB4SEVse3TREwxp3x/BJ8z95GjF8w7wVga28gImwQgsSM69jGd7NdqPH068PbahUZpLxccVCpzvWNb0/KSfH99DTN4JErgb6dYwrJmp+rQDdNbwp2Wb+XR+WUk6HnzIRAWxrFVpb6YACRORFu02XzxaCK6PgGrx/KgYw/uOTWPaJss3TDvC7pKmVw6oD5cvi1KbzZvHkeESYUNonjSeD917yJIZ8Q00ffQmW6Y3mU7ce5rvzczisMn7qX42SMASdgzQqsARsh0SdsvqEaTnjfP3DrM+KbEE+HsetX6VJTJC/db8Rx3S9NL3PMvHkH0caAZehY7Sofve9Z8DziN0RLuc6rW3ipycwXzP5nhX5Tbb0o0fvuW8lEABjZoLh/jdxfiVPsEICot5kMzWFi+r8aud0dF7IfAH63bFd+79kK/cQjDTtXKqyiMugk37G5yFfk+U6I/ANg6Mvo/TPhUo2qdrSJbL5g1MBb70TLT0kat7F1F99QTt6qJ6lLzOK4TPGHHIRHjQyyB6hnFEvFRHWhr1G2sodMs0BtUazrphumtZu0fZEhYblicQIceFR67ph33P4F/FP5sf8M3UXNSZw+fHvpOryKqoDwl3os7k/bFOBUWkwFkibk3XNzrj3A+r1GrfDhOgHuZNiFINmXIffVDAfsa2XzxXCIKyt692bGtw1RippSaH5DFqiLfo9GN0o0Ah9rDhJMaVetSFZm6YXorhEvi9K2cUTqWwT8Ikb+awEN1u3KFig0TaRIBJJs/+XlEW6blrXiCd/TasX4B1vPmR0HwqmooPwQ+MajBklwFEKQ4a5QuJvBJoYb5XFAT5UirmuFFAJ4fRhu2ajeVL5s3TyfCeYHyAq58yBnmyQx4tkx86iD6Nbt8daNmXRPlT9D7RAAZ/+UobgZoWk4SM65v1KzXJzWoV/my+eVHE7ne9caB8/BJvjGGnJpVDPI3bClZ6droCYJV0mMY+LYG+nbU9M37tXbBxxMQfQ87Y7Ozy+DT/a5zngaO8TvgvW+LoHsHr3Fs662+P1CFZQdO/PuTjPsftoc2dKIvJQZI1jAfDDh2eq9jW76FBzph8EyWscfi9+42SrNPAOGEoKXaCfb/dhbcQx4MaMjIHXF2lzm1ocDz7VPjpBtmPfTSy20MhGFiup+ZH2Tgt6RRE+A9wXgJCHsHfTz7tUuTsGhd1fqFSptFpYqoLnGr6IpDkxggYXNFtDmvjePATKT1KnI8nHHfwtAOBuEQn2nI3wDcQQyrXrMC58563qyA4F8miHGfxplj45QCameDM2acnwC5RzrVoeC7PiYIjPxWihhtY9oWi7wdgARXsiM6xamWg28gjWVi7xN7hR5ol6fNm9VszuOBWY/5He30nToYK17R2q/YyT8KvMqxKwfFiVDOKF3FYG+E69bzK5B7uio4WgedvERBv7R2z8ZNQMZw7Et9F4W65cS/BtSEGnL54mFMFHRARTkpLaH6vmHTjdKXAP5IiMOxCzroBfMUMH0B4J07GkimczbN2nL2xjuv8EZIpUc3zP8F8JJgYvqyY5fjlxRV0h5NlHgE2dP44DM34clHAR7wU8OM9zZq1lXRJghFWAQWLD1xd62Zscm/XtY21i84tnVGnEguLCzf12U+DeC2q6V46ecu3AsatSHvXg/lJ2cU72DQtHsHtwnwdrzdTNNYd9flDykL7TBhYoB4dkSsgf9m884DS/1qDXXYhx1eXNYwTW+5NNRRl45whuPfejs2xSHteJD7ZoDUVuBahowDQ7OCynaG2Rt9hbO3ZxBvIaIbHaE9gITeAz62KRJaarMbDu2oMnWjdAHAodXdGSg1bMtKGoOxDAlXO4KI92WQ903g3cPh/e/teT1K4I0ADbukrSbmX4bdcxJmQzZvXkKEFWE0zDi7UYvOO0vqqypfWwDZ41XvffbonNne2vVLQ+aQ73bscvCNraqWCh2yRvFmAr02NBTMFzq1iu+1Ads7hK1jtF6W8VHhPuCbTs3yvcQ0bR/aAohnbDZvlohwWYjhf3ds6xlpO7aj6tMN06u+OKlgwXRf6RbK0Kn1uy7zUudnxNOq+3UlgPCM3ohjyWk70zZAxr9Fgi9dHHeIbnfscmDSXNpO97K++UuX7zqr6arsEj8Mpk+EFctOKw56vnQiiM8FEHi7VsuWGVekuyMAidzoGfOe12jQjg2qTZtWY+0IeuKl2tNNxO75wUWzuxeR8a0A7fSoZMaWBX9zbOuZ3bMmmeSOAGRsqmUUP0ugqMM8f2fgw+18SCZzc8fj2u0175s38OQsbwq1q5J3xJdrrJ2Xxg/U2NFhcj8EJqUz9ED8DU8lnztA1DGAtKZa3i094R9g4+cDvKLDlgCl/RbUjeI1AKnuZTwOxvlgvtUZrnS88om+uHgAiA4CwasjrDQaMHBuw7bCNkLbD1IbEjoKkBZIfC898beRHgBwvQZcmcYvWxtxmtGsulE6a+umwadjGcnwrje7lTS+vl6tXBeLdwLx2PTapWMAeMB4YRw5YScr48jpJm3HAdICSUT6gJ9LvAqkPQbmxxh4jBh/76bjO4rsbWU8c0bxJAZdnMgvxmYmvo3G9jvoEe9/l7ARTI8QNTcyZ+aCeJ7GmLv13MVcgOd5/xPT/qAkV56NTSOKTs0aSmRvikxdAcgYSArmOeDkBdZSjEEPq5o8dx9fLNFOBfjgGezUzS7RRSPVctKqMKm61jWAeF4EnPRK1cEdW5n/x20rNcXbdd9r5vjPNe/UX8OufG3m2BRtSVcBMgaS8SvLThubo8rT4QgEr/6MJ5NuOg0gDyjP7bDiGOLoATBf5NSsqUdiY8jYfqRdB8g211o77h5QQtJStl8gelNz9PJoNl988dZvu1MJ7F1E41upsEu+P0DEX5+1hS780z3WX7uko+tiUwOI58lY7tbs2aeBxkrReP/iVMLrejB6T0E0QJ7yySuu9o91h0LjAwA6EOBC5/3lVQS6hUi7ZW31sjs7Lz99iakCZKJ7Hlias2cfCMIBDBgMLCDwoF8hiPTD0isaYwBkikveRuOszbMPZeJDGXjl1nR6r+5vnLvYR7ZmD68j4l9xEzfPcemmXh4pglp8uwEkyKCxkkKZLYNg10u1liciAqpHW1UD6d1SxQPuYJMHFoDcwa3n5geZMALWRjI0uo5GtZGoeraqunqBbsYBpBeCJjb2TwQEIP3T1uJpgggIQBIETVj6JwICkP5pa/E0QQQEIAmCJiz9EwEBSP+0tXiaIAICkARBE5b+iYAApH/aWjxNEAEBSIKgCUv/REAA0j9tLZ4miIAAJEHQhKV/IiAA6Z+2Fk8TREAAkiBowtI/Efh/B6m4yKjiu+AAAAAASUVORK5CYII=;fontFamily=Helvetica;fontSize=11;" parent="1" vertex="1">
          <mxGeometry x="-360" y="891" width="60" height="60" as="geometry" />
        </mxCell>
        <mxCell id="AiGol-srTTA_0abKe_U3-5" value="" style="shape=image;verticalLabelPosition=bottom;labelBackgroundColor=default;verticalAlign=top;aspect=fixed;imageAspect=0;image=data:image/png,iVBORw0KGgoAAAANSUhEUgAAAMgAAADICAYAAACtWK6eAAAAAXNSR0IArs4c6QAAHNpJREFUeF7tXQm0HFWZ/v7qruokJiq4JF2dOFH0va73nqKJjsqijiiLRkdU4oALaBqPC3uUoKCOCpLEIcgEojOToKCigoIOQXY3lokiKkPS1XkKBpOuTpRFhpzkdfXr+ofb7yXkJW+ptbuq+tY5nJzz+l+/ez9uLff+P0Fe0SDAJ2TyMHvIbvZCQQ8cPA+EmQzMIsJMMGYBmEkY+Zv4bfRvAOEpMHYS8BQDOyH+IzzFo38Tv0HBY3AwyFpmcw3GIOi6ZjSJdLdV6u70g2ev7xqYR6rTA+YeUIsIvSz+BQ4Jbt2ThYeIMQgFmyH+JRrkhjJozdi41ZMVKTwGAUkQjxOiMFTscRR6AwFvxch/B3k00W7xJwDczsDtisO/qk6rDLY7gCT7kwSZYvTm7C7OVxQcBqLDRgkhVockX4Igt4P5XsfBvdunV7YkOZmoY5cEGQdhvVE8mpmOBXAYAa+NehA6aZ+BXwO4l4hvsdTKbZ2MJY6+JUFGR0Xf1Xs4MplFRLyIgYE4DlbUMRGwkZnWo9lcb83YfE/U/pJgv6sJUrD7DwU5i5ixCMDrkjBgbYxxAxHWg5X1VW3TA230GytXXUeQedyrDzeUEwh4B4CjYjUa8Q3mTgZuzKrOdVtpsxXfMMOPrGsIMoeL88mmEhFKAGaHD2VXWNzBjLWs8drt1B0P96kniHgty0QlKFgCxsFdMY2jTpLwOBysI+a1aX9tnFqCzK4bA1lCialFjJlRz5mutE/YSYx1w4y1O3LmxjRikDqC5G1jAYnVwmndSmlpHLQY5mRDwVp2sK6mmb+LYXy+Q0oNQeY+2X+wM8M5F4xlvtGQisERIKxQdikrtz1n0+PBjXXeQioIUrCLJzPoXAB9nYdURgCgTOCVVa1yVdLRSDRB5tj9r8kQL2Pm9yR9INIYPxH9qMm0Yru26b6k5pdIgryA+2aqw7zndko+Z8R79tkgrGhkaeXfqCy27ifqShxB9HrxRADLQHRoopDu9mCZxdf4FVau8r0kQZEYgszn+dPsxvRLAHwiSQDLWA9AYI2m7l66hbYMJQGbRBAkbxcXKqBLGHhjEkCVMU6OAAG/dMBLa1rl/rhjFXuCFGzjQ08fSRUrx/PjDqaMzxMCjz59pHhpVTOv9qTVZuFYE0SvGytAEK9v5ZVWBBgrrZwZ229XsSRIgYs9bNMqEN6e1nkh89oHAcZNpPE5VYrfceDYESQ/bBxPTQhyzJeTqIsQYGzhDM6pZc0b4pR1rAiiDxVPg0Kr4wSQjKXNCDh8ujWtcnmbvU7oLjYEyTeMC4lxflyAkXF0DgEmXFRTzQs6F8EznmNBEN021gH4SBwAkTHEBoErLc1c0uloOk6QfMO4iRhv6zQQ0n/8EGDCT2uq2dEXNR0liG4b4uzAq+I3NDKiGCHwe0szF3Qqno4RRG8YFhj5TiUu/SYIAULNUk29ExF3hCC6bXAnkpU+k42ApZltn69td6jbxmagVdxZXhIBrwgMWprZ61UpiHxbCaI3jBsxUqRNXhIBfwgQ1luqKWqateVqG0HytrGKgLPbkpV0kmoEGLi0ppnntCPJthBEbxTPA9PF7UhI+ugSBIg/Y6mV5VFnGzlBdLt4GiC3j0Q9kN1pn0+3tGi3pURKkIJdPIVB3+zOwZNZtwMBAn+4qlW+FZWvyAjS2pXr4PqoApd2JQJ7EGAF745qF3AkBBk9z3Gr3LIuJ3FbEGBsIY2PieI8SSQE0evGennYqS1TQzrZu4zgJitnhv4JIXSCyGOycs52DIEIju+GSpDRAguJLzfZsQGWjgMjQMDJYRaCCI0gojQPgW6R1UcCj7E0EAyBRxl8bFglhUIhiCjq1mhMv0XWrQo2slI7HARE3S1V3X1sGMXpQiGIbhtXyIqH4QyutBIaAmsszfxkUGuBCdKqlUt0TdBApL5EIHQEmE8KWgs4EEFaVdZt525ZSDr0oZUGw0CA+YGGphwRpKp8IILoDeNLYHwujFykDYlAJAgQvmyp5uf92vZNENG8RoFzt+wD6Bd6qdcmBGwHyhF+m/j4Jkih0fdD2dmpTUMs3QRCQHS6qqrl9/ox4osgoz0BI9tB6ScRqSMRmAwBAp/ip2eiZ4K0uslOd+6SDTPlhEwYAmVlt3Kk1+67ngmiN4zlstVywqaGDHcEAcIKSzXP8wKHJ4LkbWMBAbHvCuQFACnbXQgwsLCmmaJgoavLE0H0YeMKOLJHoCtkpVA8EVCwxsq6/8LumiCz68ZAhlqrh2y7HM+hl1G5Q8BuMhbuyJkb3Yi7JkjBNr7GwJlujEoZiUCcESDgsqpmnuUmRlcEKQwVezhD94Mx041RKSMRiDUChJ3U5IXVaVO3fHNFEL1urATh07FOWgYnEfCCAOOrVs6cskHslASZw8X5ynBr9TjYi38pKxGINQKEx50sL9xOlS2TxTklQfJ140Ii2Rot1oMtg/OFADMuquUmb/U2KUHmca/ebCjinfFsXxFIJYlAvBHYkVGdBVtpszVRmJMSJG8bZxLwtXjnKKOLEQJ1ALkYxTNlKAycVdPMy3wRRLeNOwAcNaUXKSARIPwNpJTQdGaA8L0EAXKnpZlv8UyQgt1/KMP5Q4ISlaF2DoGHFOLSNrXyCxFC0so/EZRXVrVND4wH34S3WIWGcT4zLuwc5tJzQhD4A6tYUqOx+5vytlEi4L+SkAMRLqiq5kWeCKLbxv8AeF0SEpQxdgyBXykOStummX8cLwLdNkRVkcs7Fp17xxsszXy9a4Lou3oPR1YRx2nlJREYHwHC+uF6pvTXmRt3TAZRYai4lBX6t9jDOOwcYc3YfM/+cY57i6XX+y4Gsad987EHQAYYIgJ0jaL+X2kbbdvtxmi+0fdZYh73FsaNfltkmJZbufJnXBGkYBsPMjDQlsCkk0QhwAq+UcuaH/cStD7U2wtFuRbAK7zotVOWgI1VzXz5lATRG8WjwXRrO4OTvhKCgMv9S/tm80IemJ0dbl4LxhtinyXxMZZauW3fOA+4xSrYxqXi40nsk5EBthUBYnyumjM9vdUUNZtte8a1IG5b2+YgoIiP4lXNHNOJ+QCC6LZxH4BXB3EkddOGAJ1paeV/95pVoW58mwkf8KrXQfnfWpr5mglXkLlD/S91FGfcV3YdDFq67hQChCYxl/w0ydTtvtUAn9ap0P36VRzlZdumbfrTHv0xK0iSPu74BUDquUbg76zwklq24rkRa5J3gDNwak0z105EkKsI+JBrCKVgOhFg/AWMkjXNvN1rgvqQ8WkoWOlVLy7yDFxd08yTxyWIXjceBuHFcQlWxtF+BMTrTgKVtmnlX3v1nreLpxLoP73qxUqe8WcrZ77kAILM4f4+peFsilWwMph2I3Avc6ZUy200vTou1PsWM/EPvOrFUd5Rlf7ttKksYtv7DKLbxdMAWh3HgGVMbUCA+BYl65S20WDVq7f8UPEYUkh8CHy2V914yvPpllZp7SHbS5BCw/gRM94dz4BlVFEiwIzrGpqz5FHa/JRXP3Ptvtc6YEGOF3nVjas8Ea6vquZ79ltBjCcAPDeuQcu4IkNgnaWZJT/W9XpPkSlzLQEHbNHwYy9GOn+3NPOgvQTRdw3MQ7b5lxgFKENpAwIMXFrTzHP8uHrhzoHZ2VzzOjCO9KMfe53hzIusGRu3tm6xCo2+o5hZHK+VV7cgQPRFSy3/q590F/JCtTa863owFvnRT4IOEb2lqpbvHCGIbXycgTVJCFzGGBwBIl5aVSur/FrS7eJ3AHq/X/0k6BHwiapmfn10BTEuZZYbFJMwcEFjZPBHa1rF91FYfdi4HA4C9x8PmkfU+kT4WlU1zx4hSN34KROOi9qptN9RBHa2vo7nTN/fKgr14kVM9NmOZtEm58S4uZoz39YiiG4bYnPWIW3yLd20GwGC5RCVtmfLN/t1rdeNc0WHJr/6CdR7yNLMlxL4hIze2DicwATchixKF73SrXD65KgCopKlbjrgvLXbXPN28aME+g+38mmRs9SBLOV5wKBGs/VZPXUX0XKlyVc6RKtBfEzq8psiIQLfRyqWbKPKg35z1+vG+0D4vl/9JOuxmukjvW68C4QbkpzI+LHzakurnCF+O/ixlz47N0td3WU7le90mlzaPn3y6uWTjXt+qP9YUhzxlXxW+uaHi4wYx5PeMM4Fp+7e8kpLM5fsD0HX9Dkh3KDsUkpeWx7vi9dcu+8fHfAPAcxzMZXSKUJYJlaQFSBM2UgkQQh839LMEyeKNzF1mvwDfpWlzi6BfuH7uXLukPEyVnB911e2Yawk3TauAFLSuZbpxudqeG+Zyvaktw71vg8Qsdi5nK69ZwqttrLl1m2l30vnnuejofwYoMP92kiR3hrK28bVBHww+UnxzxQ1c8I22vS4m1z0IeOtIKx+uhJ5rxv5uMsQ81equcr5geJkZPRh4ydgvD2QnZQoM/Bt8Qwi9tQcn+ScGPg1qbTYorKnDZdz672vcEgRK0n8azZNNkCM86ycGfgbhW73fRfgk5I8F0KNnXCDuMUS544n7I8QqsNojG1yVGXxnhNgXl2IXakZtbmaCCd41Y2D/J49Q0Fj0W1D7MXzVDExqM8E6N8hCJKCKu58T6bBi7c+a+JWWlMNRuLK1BCG2KFSLVf+7lS5TfV7odH3FWY+oC7tVHpd8PsGSk0dXsJ6JfvUYrcFlccb3ELduIAJX07AwP8NCi+xspUbg8aqN4xlYCwPaieN+q0CFrptiDa4/5CGBAn4dlUzA5UtGq3MIZ5L4tlrj/GQ47Q+ALa6OQW5Cnbfxxj89SA2Uq77iHhIfxSM56Un0We+oPvNSR/qfSfEwzvF7pz17xko1bSx3Zz85FkY7lvMTjqqkPjJ35UO4TGxgojOpJorhaQIMX3JypW/ECRcUYyA4axm0JharUFsBtEl4JfkKKV9y2L6tac3jLeCISomzvRro0v07HQSBAADZ9c0M1AL6zm7i/MVRWx07PDRUqIbm9lsaQf971+DTsy83ftqYuXHIBSC2uoCfTuFt1jPDBspfEo1W7kqyEDO3Tp3ujN7lngmOWBvVxC7rnWZr9G0oSVbaMuQa50JBOcNDRzSVJo/AdAf1FZX6I/eYqXmIX2cQbPBtNjKlcWkCHR14jQdA9+oad66OU2U5Iv45QcNN4bXAzgsEBDdpfxIel7zTjxwO5iwuKaavwo6tvpQ3xlQ+LKgdlzpM1ZaOXOZK1kXQvJYtQuQ9hPZ85o3BR8Kp0qeKk3mE3bkzI1TSU71++gBInHL9YKpZP3+Plnfbj82ddu4BsCEO5z92OwSnQ1p2Gridqw2qA28+5FnmTW3ChPJzdldfBMpJLanRNDolM6wtHJoNZLztiFK13wsaM5dqn9HKjYruh08UaniORq9a6rt8G7s5esDBlFTTOSj3MhPLcNNAnx1c5rItt7ouxgs23lPjf0EEmKzYnq2u7uFga6xtHIoRc/mPtl/sDOtuRpEQXfAPsHMpVrOezenicmRypOibgc5FLmR7e5pOjDlHpYrLM0MrX9e3jZWETCmO6r7UPAICCVLNUMr/ZqKRjYeAIxQdE0aj9y6wosZF9Vy5gWuhF0I6XVjGcjbpj8GHsyMdHP6jQsXrkQK9d73MinXuRKWQpMj0Dpym86iDa6Gnog/VVUrl7gSdiFUsIun8EgTIjdbOO6F2lxi0WDFhWlXIoVG/5uZnf8G8CxXClJocgRGizaktOyP29GnJZZWvtKt9FRyc4b6jlPEeXeapFIl8y1K0yltm+G9m9OEzxx236vAvB4EfaoY5e8uERBlf1JdOM4VDtyEorzHygb/2r7HXd42FhAgVpLxvlpfaz/plB59gfduThOl09ozlqGbAPS5SlkKuUKgVTiuC0qPugHjURAdb6nlu90Iu5GZu6un4GQyYiXZ97z/WkszT3Wj71bmoMdf8pzpM3Oi5u7r3epIOXcItEqPClFZvLoF2B+ZM//sp8PrhHD//E3Z/OE7REXHjzHRqppaXupuaNxL6fXizSA61r2GlHSJwGjxatn+YC9eBPxmuG6/Y8eshwJvK993EPRG8QuWWvmiy4FxLabbxvcA/ItrBSnoGoEx7Q8KDdlAZy9yjNsszTwOBMc1mh0QlFVIogV9bAMd2YJtf7R/YGlmbP/P3Imt99FOx/hZ368Fm2ziuf8QhXkWI8zh14f6PgWFvxqmTWnrQATGNPGUbaDHnyLEdHE1V45NyzHd7vsIwOvkhG4DAvu2gR59kyVq2raap8vrGQTI4U9Vp4X3td0vtvm6cTxRq9CCvKJH4AlLMw8WblqveUcJIpo7Lo7ed/I8hHG2PUjW4vzJ6IfAGUHsSF3XCFxraeb7xhAkbxslAny3B3btOpmCTAq/s5qtiDPdbb3mcu8rHFu5BYR8Wx13sTMGTq1p5toxBCkMFXtYoc1djMtUqT9BxG+vqhVxRLktl84D82AP3waiYlscSictBMjh3uq0yuAYgozeZgmC9EicxkeAQA/DcY7bA16UOL2A+2aqDRaV918XpR9p+wAEBi3N3NszZu8zyChBLgfwSQnapAjcr6jK0W4b9fjFUlYh8YtcYL0xh+nGEqRePAlEgcvpBw4x7gYId1iq+daowtTrxe+GcIw3qvDSbZf5/VauIqrAjNxu7Zvt6LbpP6cbgdCy2/umIzSLYuPocN9qOBzaceAwY+sGW06TX7xv6+wxBBEA5G1jAwGv7QYwQsjx65ZmfiIEOy0TesP4EhifC8uetOMNAdHKr6aZY575xiNIkAIE3iJKgTQzLqzlzMCTumAbZzOwKgWQJDYFBi6taeY5+yZwAEH0RvFoMN2a2Cw7EDgDZ9U003dJ0tGz7N/sQOjS5Rg28DGWWrltUoKIH1PTlq2Nw89MH6zlyt/x6lIf7n8nHCdwcW2vfqX8WAREHd6qZr58f1wOWEFa98L1votBsiKf10nkKPS27dmyOP7q6so3+o4k8K1gTHelIIWiQ4BpuZUrH9DIdHyC7Oo9HFkltPPZ0WUVL8tEeLLJdPR2F3WuZteNgYyC28GYE68sujSaYecIa8bme1ytIK1VJBXtoTsw2IxHslr2zX+hBx+eyHuroEM2I76SGx2IULo8EIENlmaOW/Ri3BWk9RzSMM4Xb2gkmr4QuH+aWj/qYXr4yf215/Lc6U5jligzKhvZ+II2fKXJ2k1MTBC7/1CG84fww+kSi4TbLNU8Zv9s9YZxI7jDPQ+7ZAjcpklQXlnVNj0wnvyEBBm9zRL/pwupvL/bcFMl9z1LM/dWfi/YxtUMfDBVGSY/mTstzXzLRGlMSpC8bZxJQKBOscnHL2gGdLmllU/X7eJlAJ0R1JrUDxeBqb5hTUqQedyrNxvK7wDMDjesLrPG/EUQBerb3mWItSvdHRnVWbCVNlu+VhChlK8bFxLh/HZFLP1IBNqFgJsWGJOuICLQOVycrwzT/WC0DrHLSyKQCgQIjztZXridKqIN+oTXlAQRmnrdWAnCp1MBjExCIiAQYHzVypnnTgWGK4K0zqtnWquIm8YwU/mUv0sEOosAYSc1eaGbo9OuCCKyKdjG1xg4s7OZSe8SgeAIEHBZVTPPcmPJNUFae4cI9wPQ3BiWMhKBmCJgNxkLd+TMjW7ic02Q1rPIsHEFHIR2gs5NgFJGIhAqAgrWWFnTdWESTwQZbS0mVhF5SQQSiQADC2uaKb7tubo8EaS1ijSM5WAsc2VdCkkE4oQAYYWlmud5CckzQeY+2X+wM925SzaM9AKzlI0BAmVlt3LktudsEkXaXV+eCSIsF+ziyQz6lmsvUlAi0GEECHxKVatc5TUMXwRpkaTR90Nmfo9Xh1JeItBuBIjoR1W1/F4/fn0TZI7d/xoFjjiWK1/7+kFe6rQLAduBcsR2bdN9fhz6JsjoA7ssdOYHdanTPgQIX7ZU8/N+HQYiSKsCue3cDaJD/QYg9SQCkSHA/EBDU474G5V3+vURiCCtVaRePBFEe4v9+g1E6kkEQkeA+SQrVxG95H1fgQnSIoltXAHIL+y+R0EqRoHAGktz/8V8ogBCIch8nj+t0Zh+CwNvjCJTaVMi4AUBAn6pqruP3UJbhrzojScbCkGE4bxdXEigWwA8P2hQUl8iEACBRxl8bE2rhLIlKjSCiIQKtvEhBjx/jAkAhlSVCIxBgICTq5p5dViwhEqQkYd2YwUIU57UCisBaUcisBcBxkorZ4a6TzB0goySZD0Ib5dDJxFoGwKMm6ycuShsf5EQpMDFHrbpVhDmhx2wtCcROAABxhbS+JgqjbRuDvOKhCCth/Zh43hycH2YwUpbEoHxEGAF765lzRuiQCcygrRutYaKp0Gh1VEELm1KBFoIOHy6Na0i2pdHckVKkNZK0jAuJJaF5yIZvS43yoSLaqp5QZQwRE6Q1kpiG+sAfCTKRKTtrkPgSkszl0SddVsIMrqS3ESMt0WdkLSffgSY8NOaarblLWnbCDK6kojD8q9K/xDKDCNE4PeWZi6I0P4Y020lSIskDcMCI9+uBKWfFCFAqFmqqbczo7YTZHQl4XYmKX2lAwFLM9s+X9vucM9Q6baxGUBPOoZOZhExAoOWZvZG7GNc8x0jyOjtluzX14lRT5JPwnpLNd/RqZA7SpDW2y3bWEXA2Z0CQPqNLwIMXFrTzHM6GWHHCTKykhTPA9PFnQRC+o4ZAsSfsdTK8k5HFQuCjDy4F08D5LaUTk+IePjn0y0tuu0jXnKMDUFE0AW7eAqDvuklASmbLgQI/OGqVolN1c5YEaT1TCJ2ATexSm6VT9fEnzIbxhbO4JyoduVO6X8CgdgRpLWSjJwnESRpy3YCv+BJvZAQYNxEGp8TxXmOoBHGkiB7kpLHd4MObwL0IzgmG2bWsSbIyHNJqxDEJbJaSpjDHgtbjxKwNMwCC1FkFXuCtJ5L7OJCBXSJrLsVxRRov01Rt8oBLw2rNE+UGSSCIAIAUZzObkwXK4nskRjljIje9hpN3b00jKJu0YcKJIYgzzyXFE8EsEwWzG7H9AjRB/MDAFYErZUbYkSuTCWOICKrVlX5YT53tFei7E/iaqg7JmSDsKKRpZVBqqx3KvpEEmQPWKKJT4Z4mex01anpM7lf0dmpybTCb/OaOGSVaILsAXC0Z6Ko5tgXB1BlDCgTeKWfnoBxwy4VBBGgtrrvznD23HbFDefuiYewQtmlrPTaTTauAKWGIHsAztvGAlKwBA5Ksn9i26adDQVr2cG6mmaKugOpuVJHkD0jM7tuDGQJJSYsAWNmakYsTokQdhJj3TBj7Y6cuTFOoYUVS2oJsvf5ZKjYw0QliFWFcXBYwHW1HcLjcLCOmNdWp4VfDzdO2KaeIHvfeHFxPtlUImrdes2O0yAkKJYdzFjLGq/dTpUtCYrbd6hdQ5A9CM3jXn24oZxAgDjnfJRv5LpL8U4GbsyqznVbabPVTal3HUH2HdyC3X8oyFnEDNFX4nXdNPAuct1AhPVgZX1V2yS+gnfl1dUE2XfE9V29hyOTWUTEixgY6MbZQMBGZlqPZnO9NWPzPd2Iwf45S4KMMwv0RvFoYjqOgSMAvDrlE+W3BNzNxDdbauW2lOfqOT1JkCkgmzvU/9Km4rwJwJHEOBKEF3tGOU4KjD8z4a6nn7/uyjjKL7ZN2/SnOIUXt1gkQTyOyBzu71MazTcT0T8x480AnuvRRLvF/06EnzHzzx0187PttKnc7gCS7E8SJODo6bsG5pHq9IC5B4QeOOhl8S9wSEDTXtUfIsYgFGyG+JdokBvKoDVj41avhqT8MwhIgkQ1G/iETB5mD9nNXigt4jwPhJlPHx+eRYSZYMwCMJMw8jfx2+jfxCmdp8DY+fSR1KcY2AnxH+EpHv2b+A0KHoODQdYym2swBkHXNaNKpZvt/j+GqAAuK1pePwAAAABJRU5ErkJggg==;fontFamily=Helvetica;fontSize=11;" parent="1" vertex="1">
          <mxGeometry x="-170.5" y="900" width="40.5" height="40.5" as="geometry" />
        </mxCell>
        <mxCell id="AiGol-srTTA_0abKe_U3-6" value="&quot;My name is Bob&quot;" style="text;html=1;align=center;verticalAlign=middle;whiteSpace=wrap;rounded=0;fontFamily=Helvetica;fontStyle=1;fontSize=11;" parent="1" vertex="1">
          <mxGeometry x="-280" y="906" width="100.5" height="30" as="geometry" />
        </mxCell>
        <mxCell id="AiGol-srTTA_0abKe_U3-7" value="&quot;Open the door&quot;" style="text;html=1;align=center;verticalAlign=middle;whiteSpace=wrap;rounded=0;fontFamily=Helvetica;fontStyle=1;fontSize=11;" parent="1" vertex="1">
          <mxGeometry x="-280" y="805" width="100.5" height="30" as="geometry" />
        </mxCell>
        <mxCell id="AiGol-srTTA_0abKe_U3-8" value="Attacker" style="text;html=1;align=center;verticalAlign=middle;whiteSpace=wrap;rounded=0;fontStyle=1;fontFamily=Helvetica;fontSize=11;" parent="1" vertex="1">
          <mxGeometry x="-780.5" y="901" width="60" height="30" as="geometry" />
        </mxCell>
        <mxCell id="AiGol-srTTA_0abKe_U3-9" value="Receiver" style="text;html=1;align=center;verticalAlign=middle;whiteSpace=wrap;rounded=0;fontStyle=1;fontFamily=Helvetica;fontSize=11;" parent="1" vertex="1">
          <mxGeometry x="-360" y="951" width="60" height="30" as="geometry" />
        </mxCell>
        <mxCell id="AiGol-srTTA_0abKe_U3-10" value="AE" style="text;html=1;align=center;verticalAlign=middle;whiteSpace=wrap;rounded=0;fontStyle=1;fontFamily=Helvetica;fontSize=11;" parent="1" vertex="1">
          <mxGeometry x="-500" y="901" width="60" height="30" as="geometry" />
        </mxCell>
        <mxCell id="AiGol-srTTA_0abKe_U3-11" value="ASR" style="text;html=1;align=center;verticalAlign=middle;whiteSpace=wrap;rounded=0;fontStyle=1;fontFamily=Helvetica;fontSize=11;" parent="1" vertex="1">
          <mxGeometry x="-360" y="760" width="60" height="30" as="geometry" />
        </mxCell>
        <mxCell id="AiGol-srTTA_0abKe_U3-13" value="LS-UAP" style="text;html=1;align=center;verticalAlign=middle;whiteSpace=wrap;rounded=0;fontStyle=1;fontFamily=Helvetica;fontSize=11;" parent="1" vertex="1">
          <mxGeometry x="-640" y="901" width="60" height="30" as="geometry" />
        </mxCell>
        <mxCell id="AiGol-srTTA_0abKe_U3-14" value="" style="shape=image;verticalLabelPosition=bottom;labelBackgroundColor=default;verticalAlign=top;aspect=fixed;imageAspect=0;image=data:image/png,iVBORw0KGgoAAAANSUhEUgAAAMgAAADICAYAAACtWK6eAAAAAXNSR0IArs4c6QAAHMdJREFUeF7tnXmcFMXZx39Vs7uwy/QspyIgyqEgnnhhjBDEA/GAVyPeijGyr0wPvMagMfqqBEnURF8FZmYF7xhjjIlGjTfe4hmRCFHj8XoioIDs9iwCO1PPm17lzYqw02d1zUzNP3w+dNVz/J76bndXd1cx6J90BaoSqbFE6Ecktgez/2X9GEM/ANsDSABUIIZmEFvOwd9lTPw9z/hCNM19THqwFe6QVXj+8tKvmzqcczoLTEwCmOHVMQEfxBi7Jd+cvtyrDd3PuQIaEOdaeWjZUBczqk4VYCcxYIwHAx11EURYEuPszxqWgJVtZ04DEpK2PGFOA+E8ADuE5KK92VYG3FewMhMl+KooFxqQoMsdT+7CGJvJgOODNl3MHhE+pqrYmVg756libfVxZwpoQJzp5KgVj5sNYPgFgN6OOoTRiJBnDDcVrMw5YZivNJsakCAq3vXcHXmhdSaA04MwF4QNAv5BLH8smue9G4S9SrWhAfFb+dqp/XiVeAjA7n5NhdD/K8GrJqBp9uMh2K4IkxoQP2XednqX2Lr1DxLoB37MhNqXsE4UMAZfZV4O1U+ZGteA+CgsM8x7GHCsDxOyujYLsBGw0m/LclgufjQgHivJDfMGAGd77C69GxFWU13Vrvh89krpzkvYoQbEQ/G4kbwKYBd46BppFwJWkNVrADBjfaSBlJBzDYjLYsWM5GQCm++ymzLNCXifrMxgZQJSPBANiJsCdZm6J+eFBQDr6aabam0Z2G8LVnqSanGpGI8GxEVVmGE+yIAjXXRRtakQTIxHc+ODqgaoSlwaEIeV4PHkZWBshsPmyjcjsE/JStuv1+tfBwpoQBwMj1hiyjgibj8MLKsfA7u3YKWPK6ukAk5GA1JMUMPswRkWgLBXsaYleJwEi01C85zbSzB2KSFrQIrIzA1zHoAGKdWIwAkBX5CV2SYC1yXhUgPSQZliRvLHBHZjSVTSR5CM8Hghlznch4my7aoB2Vppu6R255yeANCrbKvfLjFBbBpy6bmVkKubHDUgW1GLGeYDDDjajZgl3rZJWL3+9XxnRr7E8wg0fA3IFuTk8eQlYMz+vqOifgS8QFbm+xWVdJFkNSCbCWQvySOIHqnUQcIZu1QvAvHv6mtA2pNQP6UbL/AFYNi7UgEB0CI6te6EVfOXV7AG/5+6BqTdKOCJZCOIVfy33ES0mHLZ4RoQQAPyzSiIGakfEehmPSi+VoCDrslb2emVrocGxB4BcXNXzmAvlVMRU7oOB/0GQbF9kZuz1GH7smymAYG9EKh5HwPGl2WFfSRFoH+SlR3qw0TJd614QHg8dTEYzSr5SoaUAANuLFiZySGZV95sRQNSVW8eJgT0iukdDVNCXlSJQ7G28RnlR3MIAVYuIN0a6nlr9ZMVPqXraEgR6EOysv/6lr3yfhULCE+kMiBKVl7JvWXMiO4q5LIneetdur0qEpCYYU4i4NbSLVsUkRMJih2P3Nx7ovAelc/KAySe3IUzZl9P6yldl6Pu62WDMtu57FbSzSsOED2l62+8MrAHC1a6Yt5yrihAuGH+HMCv/A0R3VtATIbVWPYfktmVrhhAqrqYhwiOBXp4+1eAGFtDzeke/i2pb6EyAOl5gcHXtzytp3SDG5CM8HQhlzk4OItqWqoIQHgimQExPaUb8Bjkgk/Pt8y9JmCzSpkre0BiieQZROw2pVQvn2AsYbX2BuavK5+Uvp1JeQNipIZy0LN6Sje84Utgr5CVHhGeh2gtlzUgekpXzuDiTMzKNzdeIsebXC9lCwg3UhcCdIVcOSvW23oR6zwUa6/5qNwUKEtAquKpMYK1rWmlf5IUILClZKVV3MjUlwLlB0ivZJx/xZ7RU7q+xoWnzowwt5DLTPPUWdFOZQeIClO6vbepQ59t6tCje2f06NYZPbp2QreundE1UYOdBtS3/X9VjKO6iqGqKoaqaobqKt72f9v2qgUIEIJARBCEtn+JgJZ1rVi2ogVNzRux5ssN+Hz1eixbkcPHy3JY+vYaLH1nTdTDrFUUxPewrvG1qAMJyn9ZARJLpE4jIikrlffvE8dOA+vbBvzgHesxbKdu2L5vHPb/d+oUC6o+ruzYxdzQWkAul8fHn1l498MmLP7Hajz38nK88vrnrmx5bVxuW7yVDyCGuTMHng96SnfbnrXYbWh37DakO3bduTsOGtEbA/snvI6fSPu15gU++tTCW++txcuvrcQjT30SylmHQdxWsBrPjDTZgJyXDSBBT+mOG9Mfcy8/CP226xKQ1GqayRcIV2Vex+XXBXpVJATn49A0t+Q/Zy4LQMKY0rUBuffGsWqO6oCj+uWcRUEDgnLZ4q3kAamKp0YLRvaaVoH+NCD+5WSgewpW9of+LUVnobQB6dNQx5urn3M3pWunTEUV14AUlchJAxJEJyOXvctJYxXblDQgYU7pakCKDVf7j4w9fDr+g1PqW7yVLCDOpnSdnS22NBQ0IMUAcX6ckXi0kGs8wnkPdVqWJiCJ5GBO7IWgp3Tbl0UDEuwgFcSmIJe+Plir4VsrSUCCntLVZ5DgZ7G+qylbK6x0t/CHdLAeSg6QMKZ0NSAyAGmbGnmerMzIYIdwuNZKC5B4ajQPYUpXAyIHEFtnzsVF+abGkvkMoYQAObMzj3dZ6G5K1/tfF30P4l27Ij1bhFXTH7g28jcrnWRYMoCEOaWrzyDyziC21kRsEeXS+zgZoFG3KQlAnE3pBiulPoMEq+e3rBGBM3ZV3spcGKKXQEyrD0j91EG8UHgDjNUFkrFDIxoQh0J5bUaCBMsPhXXDO15NyOinPCAsnnybMTZEhhjtfWhAJChObI3Iqb1Co9KAxAzzLwRMkFCq77jQgEhSnegNkcvuKcmbazfqAhI3GzjDPNcZBdRh1Ig+eOzOowKypraZ6TNfQvrWJZEFyThuKTRlzoosgA4cKwsIN0wbjoaoRNt5YFe8sWBiVO6l+v1hw6N4cMHHUn22d0bAZ2Rl+kYWQMkBUj9lHy7436IUzP6uvOktJf+oBS7LgAPvwPIV0a4eGhN0XmtL9trAk/NpUMkzSNRnj02avvn0SRjY3/Apsdrd7dVT6gZHv9UHAR+QlRmomlrqAaLA2WNTke5qPBQTxpb35q6r1qxHv32lLARTdOwLsLNgpW8p2lBiA+UA4Yb5awDnS9Rgq66mn7MnZl2wvwqhhBbDwleX45AT/xqafTeGCfQqWVmlBFcOEGaYDzLgSDfChtX2gL23xdN/Gh+WeSXs/vevX8HV1/9diViIsJpymZ5KBPNNEMoBwg1zGYA+qoj00cunfb3aYVn+GDoPnK9SZkJYmWhW3duKCmoB0vWcHXkh9oFKFUvPOghnn7KLSiEFFsuHn1gY+oM/BGYvCEMiFhuDtXMCX6XGa2xKARIzzKMJeMBrMmH0G/W9PnjsjvJ8YPjL2Ytw+exAF4zzXQIOKPUSo1KA8HhyBhi7zLfKARt44f5jsfduSl0a+85ww0aB+qE3+bYTtAEi8QzlGkcHbderPaUAicXNk4jhTq/JhNXvzBOG4PorR4VlPhK7dz/4Pk6f+mQkvjtyqtoWCkoBgrqpw3lMLFKuagAWPXI8hu1ccmsObFHKja0FJIbcrKLMEIKfgpa5yvyRVAsQNNRxo7pFxcpNPGYQbp89RsXQXMc073dv4r8uXei6n4wOwmrtBcxfJcOXEx+KAQIww3yKAcpcg7YX8a7soZhwRGk/WV/+eQsGHPB7J2NDfhuGtaI5o9RpWjlAeDyZAmNz5VenuMcd+hp49eHjkIjXFG+sYAt7l6qDj78fL72+UsHo7EVM6U8FK6vUK9TKAYL41GGciX8oWUEAJxwzGL+dfbCq4XUY15ybl+CCWS8pG7uIidFY2/iMSgGqBwiAmJF6kUAHqCRU+1guOXcfXDxtb1XD22JcTy1chnGnP6RszASsICuznWoBqglIYspRRFyNN+i2UrH0rJE4+5ShqtVzi/EseWsN9jvqzwrHShCMTkdz4+9UC1JJQGyReCI1E0SXqCZY+3jmXTUKkyZKX0/ClSRvvfslho/9k6s+shszsIcLVlqJF1Q3z11ZQOxAWdx8jDEcJrtgbvz9z4wDkTxjVzddpLVdtHQVDhx/rzR/XhwRwxpqzvTw0ldGH6UBQSK5Hye2AIDS28qq+N3IAws+xsSGR2WMIV8+BLFpyKWVnLVs+yPtKzsJnWOGeSyh7fWTThLceXZx5Jj+mKPArritrQK/uPZvynzjsVVBCeAMv8pbmYs9iy6ho/KA2BpUxZMHC8bsu0ylHiJtXp9u9Z1w5UUjIrsvWfL2Ghx24gNYa22UMHR8uRAcuChvZa7yZUVC55IApE2HLsnenDN7pRMll4dpX6tDR/bDz8y9MHJ/ObOWn69a13bWuOnOf0oYMj5dEPICmIZcptGnJSndSweQb+RQ7YvDjqp09KE7oOHUYTj8B/1CKeaHn1qYfcMSNN6u7HPVzfMuCEaT0Jy9IxRBQjBaQoA0VHOj2t7jruQWqxoyqB7HHTkI9n3Kfnv28lFGwher1uOJhcswa84ivPdBkw9b0XQl4D3i7HA0pZX6cnRrapQGIF3P7coKrbcz4Oh/J2KHXny/82iGwda99upRixHDt8Feu/bEkIFd0X/7OHr3qkW90QmdO3F06lQFe62qfF6gpaUVK75Yh7fea8KTCz/FTXe+rVo6XuNZL5iYrOKDwc0TUh+Q2nP68qqY/X7OIK/V0P3UVICDXZu30uepGd3XUakNSPyc3TiLRbeqssqVK4nYip/lVX6KrjQgMdfvY9mXW2rzXhJjOoIgVfsOvb0ESo6oKLZci2BcaJftFFAVEuUA4QlzGgiz9eipPAVUhEQpQHg8eRkYmxHM0NCXXMHoKNeKapAoA0jMSI0n0H3BlqP4TWKw/rS1IBQQFEshNycThC2/NtQApDa5Pa9i9oOjwNdl1ecRv0Nka/3DVVYwGofm7CNhRe/UrhKAxAxzIQEHOg1at6sIBXKCsz2ifuIeOSDcMK8BIOlhkb7kKiW0CLSMrGw4L7I5FCJSQGJx8wRiuMthrLpZBSrAQH8pWNljo0o9OkC6TevP84UnAAyOKnnttxQUIBKEk5HLRvKHNDJAeNz8HRhOjbZE4d5oRptbUN6j14jAlpOVjmRTpUgA4YlkCqTm6olBDSttJ1gForrUkg/I11O6rwDoHayE2lqZK1AQonpftFy3WGae0gHhRuoKgC6UmaRzX9FfTjiPtfJaRvGUXS4gRmooh3jFXsNd3fLqqWB1awPpZxGpgPC4OQcMUxUuQFto+jyiboVkn0XkAVJv7s0F7HuPwF8nUbecOrIQFCgIsN1gpaV8fywNELlPzIMsSzlfcpVmbozYXYVc+qQgq7w1W3IAMcweHGwJQHIWipKhnPYRmQLEsJYk7UQlBRD93COysVS2joXAT9CSuS7sBKUAUl5v6+pb+LAHpRP7BFpKVnZ3J239tAkdkKpE8ghB7GE/Qeq+QSlQmvccW8leCM4Gh/06fOiAlO7NeVCDUtsJSwFONDufy54bln3brgxA/g5gjzCTiNa2vuSKSn8Ce4esdKhbfIULSGLqAZzEi1EJKM9vWV26yJPNrydieZHbWA/MX+fXVCTTvDyevASMzQwreJXs6vNINNXgjH6Rb84GtBLOd3MI9QwSM8xnCBgVjXTf9Rrbtjuqhw1A9YA+iPXuAV4fB+tUrUp4bXG8MEqdBbk3CODTdcAnTa34aEUOz778CV58YDEKK9cooxkRLaZcdnhYAYUHSDy5C2fszbACd2O380F7ovOo4ajeaXs33SJp+/yeViR+nTpdm2dYuGwDHn30n3j0evuD0Kh/bIOw0p3DiiI0QHgiNRVEc8IK3IndmuE7o8uxB6Nq+22cNFeijeqAtBfp+ZUF3PXHxXjsluci1S7MjUBDA4QZ5n0MGB+VcvFTxqL2sP2jcu/ZbykBsinJPyxag8vO/q3nnP12JGAhWZmD/NrZUv9wAKlr2I7Hqt8HUBtG0B3ZZDXVSJjHo2aP0lwLohQBabt3WrYBZ/3wRtDGVtklt/21CCsTD8NxKIDEEubpRJD+J4VVVyHx01NQM2SHMLSSYrNUAbHFeWlFK86cMA/UmpeiVXsngrFT0Zz+fdCOQwGEG6nbADoj6GCL2aufdgJqhof63KhYCL6PlzIgdvLzX7dwzY9v8q2DWwOMxKOFXOMRbvsVax8CID+p5caG9wEm9dX2LseORt34kcXyVf54qQNiC3z9sytw7bl/kKo1MfqSmrPdg3YaOCAxI3kMgd0fdKAd2ase1A9d//tHMl2G5qscALHFOfHip7D4YfstI3k/wflYNM19LEiPgQPC4+ZsMEwLMshiturPOxk1u5fmTfnmuZULIPe+vx4XTrR37Zb3Y4Q/FnKZE4P0GDwghmk/HNwlyCA7slUzpD/qL5wky13ofsoFkLazyIznsPj+10LXbJMDAlaQlQn00j5YQIypIznEs9IUAWD86Bh0HrWXTJeh+ionQO5YYmHmJLk37KLA98a6ua8HVaRAAeGJ5EwQuySo4JzY6ZE+H7xLaG8aOAkh0DblBMgXG4GRI9NSp30ZcGPBykwOqiiBAhIzzBcI+F5QwRWzU04355tyLSdA7JzOnfMqHr51YbFSBnacQB+SlR0QlMHgAOmS2p1zeiOowJzYqT1kP8RPC3zq24nr0NqUGyC3Pr8cV0yTunOBEDU1/bH62mVBFCkwQLhh2rtE2btFSfvZcNiQlNOv3AC5Z2kzfn7GzVJLxMGuzlvp84NwGhggzEg+xMDGBRGUUxv19jtX+0qbMHMalq925QbIEx+uR/I4udO9BPYmWeldfRXim87BANKtoT/PV78HQOrXR13PPxXVwwYGoYMyNsoNkFdXtOK0IyXv6EzIi1yvf70oO8P3S2GBABIzzLMIkDufB6Dr9NNQvWtg92NKQFJugCxa2YqTx0kGBADn/OJ809xf+S1qIIDweOr3YHSy32Dc9teAuFVMfvuoACGwv5GV9n2D6h+Q7lMTvLVgv5zYU7b8GhDZirv3FxUgANYLK+P7eyTfgMTiyeOIsT+7l85/Dw2Ifw3DthAhIBDEpiCX9jVD4BsQnjCzIEwJW+gt2deARKG6O59RAkJgz5CVHu0u4m+39g+IYb4b1V7nGhA/pZfTN0pAAFjCyiT8ZOoLkKp4aoxgFNnaLxoQP6WX0zdiQOzLrBOQS9/tNVtfgHAjeQXAItuxVgPitezy+kUNCAP7a8FKH+M1Y1+AxAzzVQL29ercbz8NiF8Fw+8fNSBEWE25jOcZVu+AfL0pp7yvYbZQSw1I+APcr4eoAbHjFzExGmsbn/GSi2dAuGH+DMCVXpwG1UcDEpSS4dlRARBG7M5CLn2Klyw9A8ISyccZsUO9OA2qjwYkKCXDs6MCIAR8Rlamr5csvQFSP2UgF9xeOTHSnwYkUvkdOVcBEAAkKL8bcvNcL6buCRAeT/4nGPP1hNKRukUaaUCCUDFcG4oAAsbE9YXmRtcPtD0BwgzzbgYcH660xa2rCki3KoajtumMUd1q0K8TR6uLLT9iTV8VT7xdC84FOMujpnoDaqrXu+oro7EqgBDY+2SlXa8N5R4Qw+zBAfvbj64yBO7Ih4qAnNanFtP613mW5tNl3j9hqOucQ7xurWffYXRUBRCACWFs3BafzV/lJk/XgMTiyROJMbnrSm4lI9UAOapXJ1w2yN8i434AsWUy6r5EbecWN2Mg1LbqAAJw4Iq8lbnITcKuAeGGeQOAs904CautaoC8ckAP36n6BaS6qhXdEit9xxGUAZUAIdBSsrK7u8nNJSATY9zYxp69UmJ/AZUA2b++GuldfL0X11Y3v4DYNmxAbFBU+KkECIBWYWVq3OjiCpCqRGqsIHrEjYMw26oEyOR+dZjcz/f3OYEAotJllmKAgAt2fr4lfbXTcekKEG4kfwOw6U6Nh91OJUDO7leLhn7eb843aRXEGUQDsvWRR6CXycoe4HRsugTEXAxgT6fGw26nEiD7JqqRHaYvsTavuWpnEABfCSvj+C+Zc0AS5ghOeCnsQe/GvkqA2HHrm/TvVk9BQCCAH8PKOFrNzjEgPJ5MgjH567d0QIxqgBzRswYzBxtuGP9OW7+XWCpdXtnJqQgIA91dsLInOCmUc0AMcx6ABidGZbVRDRA775N6d8Z5O3bxLIEfQPSDQmeyE/AeWZmdnLR2DkjcfA0MezsxKquNioDYucftV016dsJID6+a1FruXhfRr5p4Gm2OlwRyBkjiJ905bVztKZQQO6kKiJ+U9cqKftRz3ldg4xBYN7xTrIcjQKJenGFrSWhAipU3+uMq3oPYqnBWuDTffP3lxRRyBAg3UhcCdEUxY7KPa0BkK+7en6qAMGJPFnLpQ4pl5AgQZpj3MWB8MWOyj2tAZCvu3p+qgBDYSrLSvYtl5AyQuPkIYxhbzJjs4xoQ2Yq796cuILSKrGyvYhk5A8RI3ctA/1HMmOzjGhDZirv3py4gbDlZ6T7FMnIESFTbGxQLXgNSTKHoj6sLCD4iK7NjMYWcAWKY9uY4ZxUzJvu4BkS24u79KQzIO2RlhhTLyBkgCTMNglnMmOzjGhDZirv3pzAgS8jK7FEsI2eAKPaa+6akNCDFyhv9cXUBoVfJyu5fTCFngCSSM0HskmLGZB/XgMhW3L0/dQERz5HVOKpYRo4AQTw1mjN6qpgx2cc1ILIVd+9PVUAg2PnCwZeFzgCxH80b5ucAis4bu5fQew8NiHftZPVUExAiYWW5Ew2cA5JIZkAs6cSorDYaEFlKe/ejIiAEOJrBsrN2DEjMMI8m4AHvUgXfUwMSvKZBW1QREA78Jm9lLnCSq2NAgBmdufHFxypdZmlAnJQ42jbqAWJfXnXqCVy7xokyLgCx70NStwF0hhPDMtpoQGSo7M+HaoAQ8L9kZQY5zcoVILFEahwRPeTUeNjtNCBhK+zfvmqAcMYuzTeni34HsilzV4DYnXjcvAMMnnbr8S/3ty1oQIJWNHh7KgFCoA/Jyg5wk6VrQJCYegAn8aIbJ2G11YCEpWxwdlUCRCA2GdacG91k5x4Q+yyiyLtZGhA3pY6mrSqAEODo3avNVfIECIzUUA6yF5Grj0b2r71qQKJU35lvRQAhwXA0mjOu75+9AdJ2FknOArGLnckUTisNSDi6BmlVBUAIWEhW5iAveXkGBJjBmfHFPQyY4MVxEH00IEGoGK6NqAEh2F8O9uwPzPC0dZcPQABsO70La1l/D2N0eLgyb9m6BiQK1d35jBIQIqymLrXDsPJq+z1CTz9/gNgujYaeMVTfS4CnU5inqL/ppAHxo56cvhEC0iywcT8ni8N1pIR/QGzrtcnteYzdC4Z95Miub9Jl6uzHVySAENaJAj8YX819xU/sdt9gALEtJabtxKlwt8z9Q/QZxG/5w+8fASBfCY4JaMo8HkR2wQFiRxOf2oszcaWsBR40IEEMgXBtyASk7TV2sAmw0m8HlVWwgHwTFY+nkmBkg+Jvs4wiWWpAghoG4dmRBAgxYn8s5NInBZ1JKIC0BZkwRzDClQwYHXTQm+xpQMJSNji7YQNCDGuJ8FOnO0a5zSw8QNoimVHFjS+uBNg5AHnfVWYrWWlA3JZbfvsQASECe42sniOBGe42VXEhQ8iAfBNJV3MHXsAJDJhIwH4u4uuwqQYkKCXDsxMCIBYDFhQYvxLN/mepimUuB5D2URip7/O2j67YqX7PKhqQYuWN/nhAgFDby4Zg18FK3yIzK/mAtMuuqn7q4SSoLxH6gKMPEfXlQB8C+gIourCwBkTmUPHmywUgBYCtJ5AFsFWcsAKMPmY89l6+aU5ke9P8HzsR1FDOckB2AAAAAElFTkSuQmCC;fontFamily=Helvetica;fontSize=11;" parent="1" vertex="1">
          <mxGeometry x="-780.5" y="841" width="60" height="60" as="geometry" />
        </mxCell>
        <mxCell id="AiGol-srTTA_0abKe_U3-15" value="" style="shape=image;verticalLabelPosition=bottom;labelBackgroundColor=default;verticalAlign=top;aspect=fixed;imageAspect=0;image=data:image/png,iVBORw0KGgoAAAANSUhEUgAAAMgAAADICAYAAACtWK6eAAAAAXNSR0IArs4c6QAAIABJREFUeF7tfQm4HEW1/zk1c+8NQVEJbrjhCgI+FQhIpicGF1AEAtM981gUxQ3Up09UEN9DQUUNwYW/KyhC2MNM9SQRUVSQkOkJoPCUVQQXEBRUiEDMemfq/OfMnTvpnumleqbvJeR2fV++fN+dU6eqTvfp2s75/RDSklogtUCgBTC1TWqB1ALBFkgdJH07UguEWCB1kPT1SC2QOkj6DqQWGMwC6QwymN3SWjPEAqmDzJAHnQ5zMAukDjKY3dJaM8QCqYPMkAedDnMwC6QOMpjd0lozxAKpg8yQB50OczALpA4ymN3SWjPEAqmDzJAHnQ5zMAukDjKY3dJaM8QCqYPMkAedDnMwC6QOMpjd0lozxAKpg2wFDzpfLj8bs9mdmo3GHBRivKnUo2MjI4+sPOKIx7aC7s3oLqQO8iQ8/gMvumj79bNnHwYAJQB4GwDM8usGAjxKAMuJyN64Zs01txx//PiT0N0Z3WTqINP4+Pcvl7fLCPEJADgZAHaI1TTR30CIz2d33PH8lQcc0IhVNxUe2AKpgwxsungVc5VKARG/BwDPiVezT/peJPpQrVi8dkg9aXUNC6QOomGkoUROP10Ye+zxFUDkWSOpogDxNKdQ+FLrf0pKaaqn3wKpg0zxW2FIeTUAHDRFzfzYsaxDp0h3qhYAUgeZwtfAkPJSADh6Cptg1Zc5lnXMFLcxY9WnDjJFj96w7dOA6PQpUu9Vi/hZxzTPmJa2ZlgjqYNMwQPfX8rdMgC/mwLVgSqVEK9ZXSjcMZ1tzoS2UgeZgqdsSLkMAA7XUo24lACuEQB3Z4S4c8O6dSq73Xa7o1KvBsQjAEB3j7HSsawDtNpMhbQtkDqItqn0BPO2vRcR3aIh/ZhCPHC1af46TDZn2x9Hom9o6AMCeEfdsn6iI5vK6FkgdRA9O2lL5Wz7B0j0/ogKa4VSuVWl0u06iudXKvMUIp+GPT1Unugqp1g8REdnKqNngdRB9OykLWVUKg8D4nPDKiDRW+Je9M2rVA4UiD+L6MhGx7K20+5sKhhpgdRBIk2kLzCvXN5fCLE6osbAx7I5KSUCmGH6SYgD64XCL/R7nUqGfsxS8yRnAUPKjwDAt0M1CvE6p1C4dZBWNR3wk45lfX0Q/WmdfgukM0iCb4VRqXwREE8NUfkXx7JeMkyThpT/AIBnh+j4kmNZYX0YpvkZVzd1kAQfedQGHQF+XrOsocJODClXAUA+sNuI5zqmeUKCw5rRqlIHSejx733zzSPb3XcfH9m+NkTlcsey+G5j4JKvVFYQIueS+BYCuC8DUFhlWb8ZuJG0YtcCqYMk8DIY1WoRlTqJAOaGqkN0HNMM/vpr9MWQ8gYAeEOYKAKsU0RnblyzZlGaZKVh1BCR1EGGsN98KV+vED8FRFoBiQTw+M5KzamUSs1Bmt29XB7dUQhOw9U9yr0JARbVLGv5IO2lddJo3oHegQXl8tPGhTip9aU+KcbL2m4LEQ+pmeZVgzSct22LiCpx6xLieSTEotVHHPHHuHVnunw6g8R8A/JSvpMmHOM/YladFP+9Y1m7xa3bSdf9PQC8KKIu562P+Mg8BEIscgqFb8ZteybLpw6i+fRztv0G3mcAYiGgyo2AuBiIvgsAz4tQ+3XHsj6p2XRbzJCS9X5Ipw4S/ZwQD/SVJfqFIlq0ulT6pY6umS6TOkjEG/DmanXOJqKTSKmTEFH4iD9GiIt3bjYX894iX6l8gxA/HvViIcAnapalFYSYq1Q+hYhnRemc/J0ALgGlKijEpwFgXkC9r6NSi2ql0j919c5EudRBQp56rlJ5P/ImHGBXXzHEi4hocd2y7pz8fcGyZbs0ms0/a71MRFeJTOakVYWCb+5IvlzenYTgW/G4dycbAXGPtxQK910r5SmEeEpAoOPvEXFRzTSXaPV3Bgo9aQ7ylnL5GRszmTnYbO6kAEYFwJrNY2OP3rRw4d+f7OeQr1bfSM0mL6feEeAYv0KixTXLsv1+N6T8CgDwS6lbVhPR1QLgNhBiBIh2J26baF9dBX1yRKc4xeKZ7eVZtfpaIDoFiI7000cAPI5Fdcu6eeD2Eqq4wLZf2ECcI4ie0Wg2n8iOjj666vDDH0hIfWw10+og+XL5jSQEr+GPCguX4BtnQrSbzaa8oVRaE3tUA1bYv1x+QTaT+RQRBS2RngCAxRt22WXxLfvsEwrilpPy/xDg9QN2JW41noH+0jPT3OxYludepnPAwI67h49DbeRN/NO3227RTw8+eFPcDgwqnyuXX4yIRwEig+jtFaLnLiCqIGK1Zlm3Ddpe3HrT4iCGlJwVx1+zV8fs4DgCnAtKfWGq18ocaMjLKSLaJeAre0kmm1286vDDtXI48rb9fCLioMSwuKmY5vARR3wkK8Tc8UZjL0T0zGh+CVQLli17ZkMpnk14f9JXEODXvImvF4vV4TsXrKG9FG00zgJEa4B26gDAQZk3DVA3VpUpdZB5tv0SodSFgPjGWL3qF14PiF+ZCmCCTp4FH9u+xbePRLfwJrxuWeW4Y9CMvo2r1iOvlJq3ulTi23XISfkIAszpCiBe4Jjme/0ayFUqeYF4CgEcHNCB86HRONM58sh7huqgT2XdgwyNdpdnlfrQylLpYQ3ZgUSmzEHmV6tvUkrxF+2ZA/XM9zNO1zeJCkksuwzbfhkQ8Qbc/+iUaB0iLs6sXbt45XHHbRx0DDnbPgCIliHAMwbVEVDvCVTqsFqpdP3k73nb/jIRfcYlv1aMj++x6qijAtfwRqXyYZjYxPvdr/yjcxOvddoWNb72rApwJRDtHSUb4/eHBZG5qliMysOJoXKL6JQ4SE7KExCAYTaTL0R/E5nMW4JOfnQaNKRkfFx2jucHyF+ulFq8ulT6rY6+KJn51eqrlVKcDRh1yRelavL3+0mpg+qlEl8cdsv8cvmlSog/uf+mc5zcnuknllxB9yzXAuIixzSv0e1gr1xOyj0QcSUQ7TSojtB6iMc7pvn9pHUn7iBGpXIIIP5oikHpHsxu3vz6lUcf/Ugcg3T2Qryc8g0YJIDfCD6dKhaXxtGrI7vfJZfskB0bOwMRPwwAGZ06PjIcw/XtrFKnriyV/u2nw5CSswm7y0UiuqFeLAbdhXhU5G37HcSnb0SGn25EPDvTbJ4Zd0mz4LLLdmqMjnJ08QsHHLdONQKiw5xi8cc6wroyiTqIUS7vDULU4sYn6Xa2R+7m7Nq1eZ3lz/ylS1+tslmeMXzX4wCwAYgWb5g1a/Ethx66fsD+aFVrH7kq9dXAPU+wlmuUECdGYV9xZDEo5dkvkVIH1ksl7TTcnJS85DrFb1lIRH/g0666af5QZ8DtEJlMppbwsiqo6fUgxLxBMzZ9Pwo6g9SVMaTkKf9VuvLDyhHil+um+b9BehZcd112/JFH+AacnWPHAANcwSEiNdP8v2H7E6d+58XJtcJC5hHinkDEl5GTtuON8d0IcCcQ1RtEq28olTbo6jek/FfP3u/7jmUdr1uf5eaXy69RQrCj+Ecq876KiG/ifxWmVyPLMk63dGTvcSzL/2JXp3aPTGIziGHbRwMRY9HqlN8hwA+aRHeOZrP3rDziiPvat8aZzK6o1FxCdG80w/RtpJGRl9cXLvxbr1A78nUidsr/sg2Rj2AXO6Z5mU6Hn0oyhm2fCURuNPk12bGxXVceemisJSmPufXR4zsrdhS/4MzNBLBIKbXIz4H3rVbnjCp1HwA8Lcp+nArA+1Yi+nWG6F6GRJq/fPmLmkrthkrtzse62nu4BPcjiTlIXsp7WzFAr4gyBN/oTt7wBsnOs+25QqnlgLhzpL6eo8x55fLrMhOXfb6AzgSwWSCemWk2Fwet4yPb3MoF5kv5SgXgOZ4lgI/WLSscUCJgXPv95Cc7jK5bNxmy0v/OIN4CSp3pFIueUPwYEQXXZjMZK4xyrh15IcQlAKCD+/WP2evXv+znxx67bthHlYiDaGI2ARGdVC8Wef0dWfYvl3fMCHFlSLBdV8f4xo3PeMazn91c/8QT7eUUAWzv2wCRVM3m4tVHHhmKZhjZuaeAgCElR+tugSJFvN4xzQXDdD1v2zniS0ZE35cUAS5sACy6wbLubs8+tr0GiJ4V1iYBrBpZu/Ygnb0k68nb9heI6LNR40DE45KIMUvEQQzb/g4Q8elMcBkATMC49NJnwdgYw3i+NNTIiGcjEb8MQfngd/A+wzHNi6MMu638nq9WjySlLveMh+gAp1hcOewYc7Z9vAA4xTfqAJGXcYuw2byZhIhq60+wadM+zjHH8J5Ju0SBY7QVIS51TJOXh0OVZBxESt4DBN0pMGbs49uvX/+CQaa8nG3/JxINeuza4Fvwjc3m4ltKpceHstRTsHLrvodjx9xwpd9xLOu/khhKO6iQAyABGAusvyA+AESh9z4IcMQg6cDtcJlmky8/A/c2/M7VTfNZwzJwDe0g86rV5wilQiNwo06boh6YISUbI+4ZOscSLZ6OeJ2o/j9ZvxtSfg0A+FJ0ohD9PUv0iiT3XrlK5e18E48A83tmK/6Khw39j45lRe9ZAzTohKtkEV+00jQfHMb+QztI5zgwNLpSIe4bhWIeNog42XQtauW7CIBjpy4cxjDbQt1OPkk3V6XtI4gn1E3z3KTHl69UTiZEvo33PU7vbQ8BvlqzLL60HahwCA8ShWdFDoFiOdmpoR1EZ4M+S6lnXjPEEidv2x8loqhcasUzBsyatdg55JBYa9qBntBTpFJOyut7vu7XOJb11qnofn758t2p0eBl17ui9CPRB2rF4nlRckG/LyiXn9cQ4qGw+oOAhPs48qBdnKiXs+3DkGhFmBbHsoZyxE4eQ9QGm09MvktjYz+oH3YY50Zs9aV9JI14MAnxgk6M0hwgGkchHiUi3uz+KYtYHWaZML9aPUYpxcej3ZIRYt71hUI7AjjpsuCCC2Y1dtjhgqDkLFd7R7cu9LyHCDE7Y0gZyvA7DIJMYjNI++iPyAn1ZMSda6YZ6u1h9TvBhbye1itEV4MQ33dMk5metqqSW7Hi6WJ8/EQCeDcAvEync5yjQQAXOpb1HR15jwzTUO+559rW7Dq7+9CJzq4ViyfG1hVSYb8VK547unnzp2giaiGyIOLHaqb5rUjBAIHOIUFopiEqtV/UTX9U+0N92Vm5Dh/fsMxHhpR82x3/yA7xEVLqB5jJLHEKhcTzGqKM6/5973PPHZm1004fEUSnkjtnI4YShhVFxM85t99+KZx+Oi8ptYoh5dkA8N8u4Qefr9QugwLYuRvNlcu7AiKDSkSRBnn6SgBL6pZ1nNYAfITyUh5OAKEfQJHNvnjYdN2hHaQTThAewoB4kWOa/MWMXRikrSHEXwFgh9DKfGJCITMu0S9QiO/XTFPG7sSQFTqXnkyNtt+QqiaqE129YdYsUzewMi/lfxBAL+XC+xzLOn/Q/hhS7tfOp/HJCCQiBsgLf1wAj64fG3ux7hh6lRlSXtE6kOE03cAy7NKeFQ/tIKwkJ+WfEcA3VbXbe6X2cUolHe4+z4DzUn6LAHTP7u8FgFdGONK/gGcVxEunI7eZ44lUo8GRtIkF0HXGdxsivk136WpIycvgnMs2P3UsKyibMNCE85ctO1A1mxzn9WZfoagPlbfSIseydOPuujVz5bKBE1HjYSWRw4hEHMSoVL4KiFFAaPfMXr9+rziXhVpHeT0mQsQi8ZeFqBj1dSQ+Jsxkzh95/HFbN9QhSqf7985JC4e1xL3D0W3m/qxSb9DJzzCq1WOB059dRQDspYsCn5OyhIgnR4Stc+yTf5hPwIgQ0aiZJueYa5UDL7po+3WzZ98R+UGeyFkfmkgoEQeJkXt9zSylLJ0j35yU+yDRj6P4/vqsSrTMKRYLnMVHREcREU/DUV/vJ4DoBxkhrrg+gnVW6ykCAD/I9bNncxrooBCluk3dumFsbF7UUuXt3/zm2Nqdd+ZogrGu4onwG1/wBpZpg2VnMu8BAHaMlwd2CPGe1gu7hAC+BERx36mHQalDdFYXnRt0XiL7z16uDpJSu/VmXOoa1C0XdzCBbeRtm7Gd9tfoxP18oVQ3TV5D9pW2ERqNUzVmpODnRXSUOyswV6kcIwBKYbwarpfmegK4eLtmU+o4clAnjEqFndsfV0vDSHFEkOhHtWJxYVSdvuUq0Z+dYrHvJI2jIzLN5ns0Lv4YR2vJE+vXL9lh9mwONwrfJ4Z1kOgMGh1dXF+4kE/c+kon7H4RALw4apytj1LVsaxQLkcNHW2RxByk/cUHiBMl+1dkpHIhbgWih2gCq4nXyG9PJCNx06Yde4Pg2nnRRMcSYkljiublwg+JSNaLxaj1rsfeOndDAQ/oVgJQOAGPNEv3IbbliN7rFIsXhNXpZHx6weEQj50M4jSWLn0VZTLvwYkbcT+Y1Un11/KMUbOs9v2KUS5f08okDfqqc6KXLl0DZ3Mub+2tbmxRStxDRDsD4usAgJfLgbF+fWNGfLljmp7c/Fi2dAkn5iBtQ9n2aa2TpNMH7Uzcei1gthWtPPKF7Zif/hOs3zmWxYk2vqV1sPBuZKRBxLdFtovoANHS8c2b5U1HHx2J/GhIyaE3r4nUC/Bw68TndMpmr+mlJmgDMCBynBNj8nbvMEJ0PtA6lYr8uvYS8PDsI4Q4o0nER67h4NhEy1oRvEvqpRJjDrTL3pdfvt92IyM3BvULif6XEL+kYYtERJDoK7Vi8X8SUZbkDDLZIUNKPps+PKkOBhoekR/obUQ0cTLm5yREn3eKxVCHnVet7pkhel9nYx+VoMWYtxdSs2kH5Xgbtn0EEEWCrvGL2cqcOyYqcLCDOMIzw5bcjmDj/lfUZaIhJefla+WTTzaDiEsAcUmtUOhCDLme9+Y+ugX+WCHy8uTxmmU9s7M8mvrMTaKrnGJRJ6FK+/VMdAbhVjs8FpynvKd2L+IKIp7pmGYb+9aoVG4KTKud+AK8Vvc4N2/bvCF9FxG9KapLiHgDL79odFS6Q1tyUi5HntXCCh8k8BoZMTRUoquCCA3b5q921MO/zbGsMI7EycMD3qxHIatwqPySJsCSGwL4DvO2/QcK27wTLXaKxfYhgGHbi4LQHKNsrfn772avXz83zimpjt7EHYQbzZfLz6aJbMBkLsbcIyE6wykWuxll/FIT0cTa23+pRY5lha2n++zUuVj7IAEc6UEq9Lcow6Nexs7CkDOGlLx3CVsS3Z9du3a3uMfK7Q8P4h+i0pBRqef4wbTyTf7sOXPeQxPILmEchw8i4gV80x22jjeuuOKLkMmE0k0LpV62qlTqIt3HSMHVeXfdMjdmN28+NC4MlE4jU+Ig3HA7aO3pT+dz99DbTp1Our6k726dulzUW8eQkjd3ExvBzvTu8SmAK+qW5YtsHtV+Z0nCL5X7ks23GgH8EQGCj0PZh4eIYtWJaiaA/3TDpPLHSiG+GxHfBwBhzFYPEtH/GxkfX6LzohlScqhL2PvzM8ey+vZ3RqVyHCAOfIPvY/jLHcvS4oiMetZ+v0+Zg0w2ZlQqx3Y2ms8ZpIOdOqtRqQ/USqW7/HT0JgYhwGPUA3lKROYwgMwdPCuGznlnANeGzvA2N5V6ZhwIH7fSDgDbP8JeTAL4Qt2yTluwYsUrGuPj7wGi94feJXU+KIS4rG6aQexZnrHlpHysDzOr98OkVMEplXxjpToINhzxOwy9w98Zf2DyJE3H+IPITLmDtGeTZcue2Ww2v0KI/xmVxN8ziLs6kJehoe6dl4HDTLoFEfmY0IPRlVXq+Tq3zlGGzNn2+1pH08djFO1zjyLet9RMUwvlMKgPkSdkRJcDIlNGcPDglkvBfoWcSOWhQWiMj7/0xqOOYpiewJKz7Z8iUfjJH9HfnWIxioaO9yXvaoX3M65Z1EWuuz9reEk7ptSpw9xTRT3jyd+nxUHcneEvcSsTbD4R8fn2rgiwWye6ldeqk2BptzQzmV+uLhT4a6lVeiE3AYCPHplvYtSl4LeOZSXG2bG/lK/PAnxQAbwXve349ln3Qi9swIaUVw/AOOVWWQYhLsgi3thoNtmRtrwDiKc7pvn5oPYPvPzy/dZlszf2BiIyL7sHSQbx845pah/3d0JyGOSbQa33IMTd2vdUDABBxGCEdxPAbwXAKt0DF62XRkNo2h1Eo08DieQqlUIvP0aLm4PzJzygAoj4PzXTZAaoREu+UvkyTcSjuR3S20YCx5CGlBwVzJepcQqT/SwRREvcKOiGlJx6+8GuIsQ7HNMMvL/JSbkZexh0EXEdEXnir5pKvfCGUokjsJ/yZZtxEH4SRqXysHu9TUTfQiGeD0QekpYkEmkmn3wnlJ1zqzlRKBv6RiD+yjHNoU724jBXIQBnJi4hxAvcPIqTfcxVqwYq5YkSIKUWui8CJ2UNKTmfpjdSWiHij4nosEk5AlhRt6wpvwebLs/bthyk/yb/H6TUXBSCo0XdEbUbHdOcrX0PEfA0Oidc7By6vOfNDWNjO0QFFgY9fEaIH5k1i5dF4XcYiA9wolhmZGRJVMJQC/GeL1q3UJ8RLXWKRU9yWq5S+TL6wMHSBB6Zl65OiLc7hQIvA7eJsk05CHMMZoTwwLxwaicBPAZE3uPhIZK45tn2fDFBvsPUcvEK0UecYpE5z2MXw7Y/CUQ6yJT/dizLjYcV2FZeyg8RgLs/jfGRkRe6yVT9jnRbyIX3M2cgTcyck+V+x7LC84Jij/rJrbBNOUhnmWUDovu4su5YlmFUKt+BCW6ObkGlirVSSTvDkBmSFNFJrRCKoHzu+wHgJWGPlAHNRpTaLe5pWpvsUgjesOoGMX7JsazQizzu54Irr9ypsWmThyud46dqxeKX+fd8pfKv1kzhZQkjGl9D9LQdhfiDG1CaAD5TtyyOuN1myrbnILb9FiDycmF0pv0Wuc/NgOih/1KIu6w2TX6xQ0vnS8vLKV8YVCQ6WzEp5cjI5X0gav2ar3FM80DtJd5EqAmjkMTav4yPjDxPh1bbkJLhd/gisV1aoTK/qVnWXvMqlZ8JxAN7u8+prHkpP0AAHkan8c2bn6cTzBll663p923OQdqzSM+GchIgIGfbb0AiL9xNxMY5Vy6/VQjBgNh9L0rnZfpJ6xTnrEnMW02IIoZjXQEjI+8Kyn+YfElioprz7bY7rEZryeOXuYmZzInUbPZxExJivW6ahiEl07F1Q9xpiGiFrckhevuyTTpIXkqG1XGnW24Q2eyuvGHNS/m5Vqyp96wf8VOOaXpghTo0xcwv4gvKzUxLgol3LOsHvUY1pGTecp2NO+fBfGH79esv7g2ya2/Ix8be2ZplTgMAnSiEPwLixT7pBlqpp4aUzMfoDnTsdTaeWdbVLOtp+Wr1jaSUF5g6IWDsrc1Zpt1B2uESIyOcsPRKQmTKYiZ1HOXbXyR6FAAeair1i0lq40EMZvz4x8+CjRv5tGfLfsO9rpbyql7641Z++vzJxKicbX8cJ8h3fMPfGTazKcRZQReZAwFuc86JUsxByEGXIzq0Dz3jO7xWLK4wbJvpzjwcg9m1a5+18rjjHguzpUacVzfo0wcK9m7HsjjJa5sr0+YgnPbaCZjTyWtgQ/NpVJlGRr7mxyAV9SQM2z4fJpKAJks3FJyhhJpC3OfBpyJ6ggCOQyE+BkS+vO6I+COFeFa9UAgFymsv8yqVih8kTlS/B/y9m2Kal/IgAvAcszI5ad2ythzl+jTSpmgm6mPqmhQdUerk60qlszp54X90Y/AS0Yn1YpGxt7a5MuUO0kFeZGYjDi0ZpGxEgG/Tpk1fjsMj4bvfICpNsiD5RpX6RAJ3OsyEMGfFwZHq5MUwaMOg49a11W1Npd7gDoDMS7mYADzA0DqEMjkpL0AAzonxFAT4R82ynst/zFUqH0dEz96kqdScJLjrdQc8nXJT6iCGlGcAQCDJZsyBPqyUensc7nLDtm92w9QggF2zrO6tes62L0CivhfC1S/FkcibEc/6VaHAy79YpfNV5uSxqYL9+UtWqf36joxPP13k99zz5tZBgCfurKnU7LBIYsO2Gd2l9/5EOZbVvZjsTdkdFiExlkGfBOGpcRB+QK95zUVBPIFDjHM9EVn1YvGnOjo46haJPAjimM3uUTv88LvmSWmKiUsu/+QhomWK6Kxh9kLcR8asHRkf/3nS8D+8bCIh3ha4D/KPTbvWsawuh7rbhoZt/7zFqNuP+o74Q8c027CizAWCiBwL1i2CKOeO79J5Lk8lmSlxEB1YyGGMhABWzbLsKB2dpC1OL3UHEJ5PAKM4kdfRDmX1yXtNlEq4g5HFLFlRKbNRQ2r/zkfEG8fGjo4KWfHjVSHEhXXT7IIusL55l146X4yN9eWbtzM0lXpiDdGz7yqVNhuVyoWAeKyrk4lGR2sNfpqFEneQTlRrbDjJmOPeRABG3bK8EDY+SnqBmzuwOt4UXL8sRMT/qScZ9UuEOds+FgH4pjkyV8LXHhOb6M84lnWxziVjB9eY+d89QYbPVyrrBq7OVSqbEDE4ChnxI5TNLsfxcd6cd2/yp4qMJ+a7MKXiiTpIJwGmLyV2KkbAkapKqb3qpVIoF0gAcLO3S4hMX/yyPlhNxLc6pskXYomV9myy/fYcqnJQ73FsYCN8BAzwsw2jo1+PmjV6dfg+E6KKUyy2U6F9o3T7Pxgc7MnLWt5TdguNjOwQddGZmOGeJEWJOUjna8V8Dd64neiB3Y+IfyMi5qt7drS4RyIUgPmNtj23yac5wTi9t/IteL1YvHTvc8+dvd2cOYxS7wY5+2c2k3lVGH93zP56xPmkaySTmauU2pMAOElo4ks/AeV5dwtn+M7xZvPXg6boTjZm2PaFQOReGgEqtUCNjr4NJxihvKXZvAgyGY88AHiAwQngnLplheNoDWOcraRuYg5iSMmnVZ4vTNAYOU8jg3iBWLv2d250D6Z9VqOjc8XEMWIg6JvnK6ZUvl4qee4lWA/NmvUpJOKjTr506ysK4PxRpf7bjUvlB/C8LbwIbaL6Eb6vAAAgAElEQVTVZvM3PheffbflALDGsaw5hm3fBUQTl38+S9AM4r5J4RhvJb7g241EHIRZk2B8/IG+RP7+Jh9QSh2mc1SrvZdBdBzTzHe/lhOoGXw6Fe5gRN91isU+CuO8lEsZGaSn60NxaWwNL0BOyhMQ4HsRfeneludt+2QiOrMzo3mQK5PIrd8abKLTh2QcZOKW3MOD19c40d+bRHvHScXMS2kSQHQ4uhC7tnIa+Ct5UhBANSI+RERdfFcCeHRjAIFL3rb/3MrE8+Q1xAGg0zH8kyGTk1IigC+oM78INReXpGHbvCfjTXn/owR4z0xhEU7EQQK+uh7Dks9SSOclMWz7HEYQCZVFvAaIfM/3AWAt7zNGms1ljWz2ds/yLCBEwhfkGSDwDkFnHFuDDAdgjo+P34FC9HN4KHWTUyp57oQMKS8FgF7MqQ3ZtWt3jAt8tzWMf5A+JOIghpQMWf+0oA4gwM9rlnXQIB3MrVixM46PDwQAQACXCICzJpEwfGBBb3Qsy5eywRcFUAPrd5AxTmcdw7bHgciTO89H33XXbflkf3xR6ofIxJzOcSbV1tAO0qEYC6dddkHsD9LxXKVyLSJG4uV2dRP9ConO6s0WzNv2O4hJeVyFhDiwXih4E6w6v/vi/hIdyhCjg4zjya6Tu+KKP2Am40F+5EtSfgkQce+aafKdSbd0QP88rFQEcFndso55sscyXe0P7SA6vCBZxBcNw/Wdq1Q+i4hf0DDKY+wYmZ12WrzygAMafvKGlLyudpPGXOxYVu+RZrvq23/yk7G169dv7NHz1/GRkb11MvU0+jttIvlyeTEJ4Qlg7Gn8L45ledKFAyCGHnIsKwoFf9rGNdUNDe0grTTWQ1pprAxUHVg2PPro6C3HH8/YTAMVv5iqXkWIeFMT4KOrIyjUcpUKUxYz58Zk2Tw+MvLioBfeN0MQ8QLHNBmv9ylTclI2MZwUB4jopHqx2AaF6ECtchKVXznasazLnzKDH6KjQztITsqDWxCcV4X1Ibt27XbDbOo8CO4Rg2X2WlLqvMkU2F7x/a+88gWZTZs8yCdE9Ll6sfjFINV+lAatEPAPt0LAo45NA3vLaIJNIY7qJG7xF5kTxzhzkGcsjhxmVME/oRA/2rxhQ/Wmd76T6QgGKnnbXtMCpn6WuzIhEhLx/VH3iJx/b50a7skYWn3c6u67EKJfOMWibwryQB3ciisN7SDzbHuuIOKQ7sCiC4wQ+ILa9meQqI2yoVvaKbFCcDrsxb1UyYaUHA7zLpeuOx3LCuUzMaRkZilP6qtC3Ddqxurtb4fwlBmXdBPHJlQQSZHJfG5VocDpvNqlN3d8QhVBvVhE32dH9FunWHy9IeVDYTFjKpN5RS8rlnannkKCQztImypMiFA+OAR41zAo3Eal8nNA7A/F1jd0lYjOmwyTn1+tvkkpda3niyqEWS8UApmh5pXLrxNC/KanSe2j33aOe7P5zYGwtNyNIl4wns1+RmcPNNe23zLWi/DCupT6lVMqtRFSclIubuWa9+5NmA3Ke7yL+AAQvcjVlYE4zvUf2dYhObSD8DAMKXn6DwYqI7q+teRZMMiQ5y1b9nLRbDL+UhLlr8D5Ic3mZZDNMsuuO9tvuWNZR4Q1kqtUvsTYvj0ykS8Kf6kzRD/1pPgON5oHCODtfnCibrUBUbpNx7I8x7wacKY/BcSbegAh+jb1ww1p66ydiIPo0I61ljzv5KDAuGYwpPyl7nKEiH6LQszp+dIFNdkH/y8AXrXKsjw0Cr2V/egHFIC1OiA/pZMjzjwZukyvuib6d2tGW7iqUGD79JWclH/wI/NhTKte4Xy5/EYSYgKlxIelqxU0WVREv2vl4dzhqRvCAaI7iK1dLhEHMaTkmCbOOw8ra0U2u0cUVqxbgSHlf7eig+OBASh1DAjBOQucWhsLBb0F4X9W3bJODhvEguuuyzYefdR7IkfEoSkLekPvO/sNTkTyDZhM4OXYpJQ6oDfr0ahUvurHM98EOO0Gy/I9Lu8iT/YGJiL+zTHNF3Bfe0NVCOAndcuaFi74BGw1kIpEHKTDfMTEK/0hDO5uccIP0WFOqTTBTBtSfLCtgqT51McNx/lPRHwtb8zbISOIpQ66iPvuI0zXR2YpZYeRswSwtl7muC7Q9i+XX5ERgnnj44b/R5mm9/fHVCazj3vD3Lo3arbujTxJYUT0r3qxuGOYcr/ckFYA6jdqlvUJrpevVI4kRM/xLo2MvGAQ1Jm4g3yy5BNxEO58HIAGBDgHlVrsJnicNMC8SuVAIcSX+5KXAiwkED+riHqPaLswOJPV+D6D80KCghkn5fiEBxE38KZeENm1Uqk/FXUC1qcKiJ49CwJ8omZZbcSPvJT3tkJdOMdlOso92UxmP85b8cXSBQC/pVVvxwwpGUr0A56/K/Uzp1RqM0oVy+XMQ0LwReuWC0Wi051iMZB0ZzoGP5VtJOYgHbwkDjnRQhXvDOo2IPrX5AARkROHGExOt7QJHHOVyjcR8aPuSoR4Yt00+5ZnRrX6KlCKb855CaZD/XVTS+7yLKLdGw3gF4NGQuRRKcag+n+ag+AN9/XtBCmAOxWiAqLdEfHVMEFHrYuI8h0ierVfSI6Oc3Q+cjzj7dPXb8RjHNNs85z7fAj/6FjWdH0INE2anFhiDtL5auqFpyfQf065bSj12snweUNKplzzgDsTwNywvHVmpQIhTkGiuVpdQmTcKLtmmu2L0fnLl79GNRq3uesiwOp2diRiNFyoD+SpW1cHl5f5GePTLHQUIcCva5YVSZZp+IF+uzozye/oe9y9jXGC9DxPrVdDW8ioVE7v4Mlq1xlAcAMBzHe//PlK5c3EYe+e0UUzOi247rpZ448++rBGspdbMztFuQlgZxGPJqIub7vuWOKc6uWkPAUBYtPGIUCz1nOkG9Q/w7YvBaIwOuXvO5bVTjvIVyor3EvVXrwxXRs8FeQSnUEmB2zY9uVANBAvuZbREAuOafZRDOf8btwRv+aYppvkpa8JHwalzR2U9HBKNdZExAld84JwfP3G44550hrvxJ7n08z4qyvPcrpLK+ZSJyH45rwLEEcAdyCAJ7qAj3trpin94tO2VXTFKXEQYOC4Pfb4GiF66bniPF1/2X/zxjgMaSRXqSxHxIWeiUSIw2uFworAr2e1+lpQyhOYhwAnE0CTAN6JPQiFQw1jCJ5CjQu9btdEJvP5VUccocU06xstjfhyIOLTRvcp3LqmUi8eW7dufePpT+f7ou7+qHWw8emaaS4eyjZbYeWpcZDOQI1K5cOAyEyzSZQHlRBvX10oeC+rejR3jldXAUA3vRaI/jY2OrrXtQsXcjyVbzGk5IjkLcBurhd5fqUyTzHvuBDM8z57qMEMsV4PYPLt606LN/CxWrHoCU4M67Mh5V0A4EZnbx9Z++WD8OGDY1kfNyqVMwHRfWe0TSK8T6mD8EPphE2zk+QGfLHGkeg7anT0c7oYTH7RvwhwRc2yApd9OSmZkoHDT7oFhVhQKxS6x7ynE4lrqtX3g1LvA8TIja/PeJ94vlI7ukHb4thk93J5dEchOHszGOQtxtKK2/bLGkSlDqmVSu2DCL+cEGbCBSH+xgcAnv5vgxwhU+4gkwZsv4C8L0FkaoHQC6tOnd8D4rWC6Oyo8A+/lywn5fcQ4ISe3/7LsazAGc2Qki87u2f8HDpfM802RGlvYUA6RfR+gXgsATxD80Vf6VhWvCjeHsV5KX/Fp3Mh7WlxE7qey/IW5dqWJSnRXS0E/D3c+g0peU+2JRoA8YFss7l7U4gr3DwrYfbStM9WJzZtDuIeeRvtEPG1QLRr+x8T6SDeB0r9HoW4o4n46yBQ5jgW7KM45lCjRmPv2pFHelJLJ3Uatn0qeC8dm02lnhMF7W/Y9tEwgcEVRXXQd4EZZzydLzrj6oYd+57vWFaXbzBM/zzbfokg4o+Ca9rsZ9vyhQxCXAxK3Q2I52+ZcpGazeb2wwLdxbXJVMo/KQ4ylQPqccQ+MhkAaLPe+vVhvpSvVAD3eN4XFzOVXx1OfGoIwfkdkRmGw4BXdJ24hxuwr0+IfwOljglKGOuZGfjo2IOsKLLZF/vFyxlS8r7Ok1yFAEd0KKS7+z2m3a6Z5rem6xlPdTvbtIOw8Xw5CQECQ9R9oG4CN5/tVGClvtI6iNCFTI1MzIp64K04MKaCflWUXIvheSVMoLB4uQRdFQ0pmd33xa4/Bc4+HaT8DT3tMnTrdeg+rSS63SkW/0Ojf08JkW3eQdrLEtv+MRB5o04D0EkCcuwPcyyrm3efL5f3JYZHRZwX9ykPE9zXSbr6c8w2fR3FL/BQER20ulhkLhPf0sr74aBFD9kpKbUEheglIXqDY1kcovOULzPCQXKXX74zZrO3AiLnfU+W+5UQ+/rtdXxyPq50LOswBptGxEUC4L+gJ1pW901obei/Ue9Ex+rW6S6vdED0gpV6HMWQkqGOtoDtId7imGZ/HFaPPr99Xfu+xMU/j4jn1UzTG/SoOdgFtv3CBuIcQfSMRrP5RHZ09NE4KRKazWiLzQgH6Sy1+ojvGViublnu3PS24YxK5ZOA2Eb36Baij3DcVmgy1kSoSw6IQpOjGFk9KEo46Mn5kXP6yK5FojsI0RcMryO/EjOZC6nZvKCn/n87lsUpwaFl/3J5x4wQvXR0vOxzB35udiyLUxB8uIm86nPl8osR8ahOSkKYg94ORFVErE4CAUb1NYnfZ4yDtF98KZmOzXvCg3i8Y5oc5t0t7a8YEVM5uB1kItvOpyDAA0R0qlMsXtQbpxTwkPgu4626y5AOISnn0IdeUk4es7ZR6ok+EMk/siU5ivNHXtQLbhH0gvmc9nHIzboWn2M3HwgBPujHIT+ps71c5P3bACFJBLCKIx107TeMo8woB+k4CQcavqZrNMSGajbn9iLOG1KeCwAfjDBuk4i+0dh++y/edPDBbVgezS/9hFqiU5xicQJBPaD4xpcFyCLA22qW9bPJnzlmSgF8AAHmh7WBiFfVTDMWPZwhJTP/BqcLhITUGFLyPqadhDVkWd5U6n1Rx/DDtDHjHGS+bc9XRL1JUNc5ltWFNm2/5EQ/BMR2qqnvrEH0S4X4ab9w+pyUnN8R+lK6dD5AiBeDUldvR3Rbo9EYUWNjuyul3gGIDPEZ2Ieefl3jWJYv8ksnA5L3BGGXlCs7Kcceks6g8fvOsj3CvYj4e1955ezZmzZV3JeLw7y8nbp/VJnMQVMFQTStDsJHheNPe9rBKMSRQMRsSpwcxRtnXrP/swOY9hAh/oKEKE/VoI1K5YuAeKr74RBfEDYa50A2+z1EPCzkwT0AiKdMJhD5yRlScl4K56dMW9GhZ8jZNseSnRsR2s+b+a/p4A/7Any7Rsz89jXLaieytXNbMhlm0h0kRCfKjmsI8R1100zc5tPiIG0q5Ebj8x0asDjoHv8HRItaoQ/MIZhoyUv5MwLwoAMS4nqMCEbUBYvL2faXkKgXIijRMUwqI4DP1C0rMhReB0fZ1cGViujs1cViYBQ0yxpS8l4tKOtxnWNZbdT/OOg0gxiJAB5HIfZ1CgXPRe8gutx1ptxBOglUHIYxTBTszXwZVTNNJpNMpPAXbYMQ9/d9TX1gbzwNBjBT+XVKhzdl2MEQwJK6ZR2no6fvkIKI2YLrEcj5KwHxm375N9xmrlzetbUi4P2Ib2HQwFZKMS/tIiMNdMYQIfPnplL7JLknmTIHYVo2HB/nr89QwXk93hx6MhLHwEw6Oi7EL1u4woGBfwjwIBHd3gJNc8MHPeFYlm5wIh8ZD4sKGTasUBJTd8W9zz13ZLs5c5gzvjuDE+K36qb5sXy1upAmTr3CIHxWdpZMffz0hpScf/8xv44S0e8RUSf3P87jC5ZFXOqY5lHJKJughki8tEkjleIb2dcmrjwkTES3rXnV6scyzebnWi+IL0AEp6oqou/usP32Jz3+73/vJYRY7dYdlx9c80RMt/ttOUaGqcVgmc1XKh8lRM89BwNM1AuFLgFq6xKQgyB5Mx8WDMmb+e/VLavs7rBh22ugByA71oAmhG8kol8LIe5tKvV7IcRz2+y/RMw3ebiuPr4HSmo/kriDtHnAZ8/mMANPyLTu4LTkiBY7xeKntWRdQvnly3en8fGL3Le+ATo2IcC+kxdSfTkRmrfObt0eUsy4He+Rd8ML6aoypOSMSfcHKxBXOF8uv0MhfqA3M7OnrZUoxLm1QmEp/32+lK9XAL5R0hp9/BMq9d6wy9P2Ui6TuUhzk/9/rdCgvTXajRRJ3EH8Nr+RvRhMIBbzbL5SOZ8Q+dY8Os984gvdpY2bVy6/RwjhuXkWRLlVxaJnZokaRuclYm6SN0fJ+v5OdDVkMqc4hcKtcer7HW1HXeSxfqNafRsoxTNKIbA9ousJ4AcMK5uz7R8g0fvj9A0QnVnN5iFhQH2emcrnBNKvPUQ0ktizJuogQZCXsQwWQ1gI8eYgbNpJNR3yHQaW25KC62qDiMZRiPNAqbU9KaR8kdcGReMYrAzivT33IoHMVFFDyJXLRotK+SAQYkHkbTeiA0qtJCGuGnTZYEjJmFZb1uWIj8xqNl+h+1K2wfx46YXIWGJBpdayzw9AKb4/0oJaRYA/0KZN+zrHHNPFRouyXdtx/QDueisOuMroVZOYg7RjaoTg8GmtgkSc+HMnCHFPU6m/CUYhnNjM8R2CB98qROGDjmW5Ifm7ou2LLIClQOSf6jtxWrUalfpArVTinGzfo0giOphpE/p42xEp22zusLJU+rfWgEOEGFUEs9mdmo3GHJHJUCunYg01Go/USiW+GxqqdLC1HutR8nXHsj4ZVzFDKwEix7T18si7Vd1ORK/BgLActyAhLqybJr8HsYomSOHvHMvivctQJTEHMaT8oeZR3o9pZOT4MDxXQ0o+EdFCJiSiE+rFIoeFdItRrX4blXofeTF73SIPgRD/6xQKnmXT3jffPDL7vvv+1bpRdmMM37VZiPnZRuNFvfwgBHBy3bLcdG5DPYypqOwHF0SNxv71I48c+FItZ9sHIJ96uWel+J2/17EsnbwWX835SuUbUag5G8bGtr/l0EPXx+/alhqJOIhO2EGnyUgOjsmudQL0GPvqeWEDJIDf1C2LoT4nwJUBGG3DnQS0pTrROAFcWC8WA0OxA4Cp26BpRqViA+KW9TjiPY5pTt8R5gBP2gcjWPtoOKo53ts0iTjWyzdvP7T+kEugjpP6Uj9020V8uWOaoeROUWNMxEE0v/g3rlHqjXeVSgwAoFXauesAvBEOR40XYldsNr9H4VTRN4EQx+rctPpkFQIhvh+I1vYhn/QECGoNbJqEOpvsn7qbQ8Tjaqa5JMkudPZUvEfxZQv2bcsnijpOn/Yvl1+QEcLDNdlbP4mNelIOwnkQoScz2UzmpSuPOMILEKBhEZ3jUQLYjAFQOET0dxDitLppepZhUU0bUjKr1RZOcaInBJGhhOBjze7alohW1ItF7TP6qHaT/N2H2OjBDWNjuw677Ajq47xqdX+h1GkAcFDUOJDoqFqx2D4iHrQYUkblm3gyQQdpZ2gHCchV9vZlCNrk9gmSEA8DwA4xB8inU5fVCoXedFAtNflyeXcSglmothSiq1rUZzf1crYj4s66uRRajScglLft5xPzsXj7P9D9kU53eMkjiI6P2MB3VQ3LEty5jA4EAuSGSKl8vVTqXoTqjKNvFhqkkruOYdsvAyLmjAgsvXkKcduMjGlysSLxJwWJbqHx8XfXjz7a+4LHbDhn259Fol5GJj48YOarLQ8b8Ys10/xcTPVTKp6T8vMI4O2TUvvokBfF6ViuUskLIY4nIg7N1y8TEcOhmMlhyrjdVgwZI62EvHhbwR6kQzMWemGGSj1nmCPLvJQnEUAg7itPg5259p8gxBlOoRCZOqr7JI1Khc/3PTBBRPTLngC/hx3L8r1n0W0naTlDSp49tsDxEP2oVix6MIuHabP93BFPiLXvcH9UAP5QsyxOeRio6CRdbRWnWPlKZSEhLg8bpS7KeJAOw7bfBUTMbR72tXgQm80TJiEzB7J6QCVDyk0euE/EP7X646F0m0Q+H6Rd9z0ICjHeVOrRsZGRR5gxahB9uWq1gEp5ggpJiHfWC4XYJKq97b/Rtuc2iRixMiw697GW47CN2qeLQYUA3lO3rAvjjnH+8uUvUo0G58GHpU4kEm4y9B6kfcuK2E3z9BvsLKWeqXtr61c/V6kcj4jnaBryIUbVwGbzAj+KN00dHrF5lcpC0fMRIIB/IECXJIdnlXqxqBVC0olX46SsUitAj+nN3ByL3baZJIgAlrcu3uyNa9Zcc8vxx3vJQ4Mc2rY5McmdXXjvhl122eOWffbRqu+nNr906V6UzTI/SFga8r85IStLdE5TiJcTwNURH7V/MYTpylKJ95h6hQhzts2RxaEZm4T45bpp/q+e0pDv7rAKdILUUKk9Jm+rB2lv0OQjjqciIc5zCoWhE64MKXkG60NAcY+HlNqtXirxl8238IFDFvFEQvwMALQTiWKUh1qgEaf3Akz01g/glY+F1+vW2YGJ5T3GCQjgIQZ1yW3kD1iD6NwbLKubG9LC0eI8/ShKvhtnKfU23Q+oYduLgCgyUDWJDTqPb+gZpDPdMTdhYAniC9R9OeLwYvjpRIDHCeCHIMRFcQP93Po84NYTBwPtM4FJGUQ8u2aaJ/r1oUNd8D1wzTq64++RuxeJPlQrFhnlpK/4xcPppOP2KuJTPIV4AiLyrBGEJt/gsPtmo3Hu6iOP7KOl8KFICBryA0h0XNCYuBKHMgnEb0WRsHYauN2xrETQHYd2EO6QISXjJIUhtv/Jsawtdwox3oz51eqblFK+L8OkGgKoCoC1RGS5oWcCmuEMuvNUNmvr0ilM6nnD5Zfvkh0ZCUY2JFrnFIt9M4PuVy+GWYCIPlcvFnvZfRlV5TE32nxcejQmOSWleLZgx/DPAkUk4tx2Ic4J++Dsd8klO4zOmvWnGMSsNQS4uHUixuQ87UIAO6IQxVjwQAnSMCTiIHnbviTqmA+Jzq4Vi75f16AXowNSdjMAvDRihnpT3TSv64S8lNhRMBw8jdXx1+88RXRZa+9Q0305Ddv+JBB5QeW8lT1h+Hkp+e7kYF39ceQ44NN9MmWUy+/iWdKtg+8lepOb/NqYt3TpyzGbPb5DGRG4LGJ6bCQ6R/e4OGESpUjzEMCKumUldnGbiIPkKpVjEPGSyN4jftYxzTMi5SZRMIRgCJoo/NsuMIBbL7O2IpHZmVXckKP9zRP9FoU4v9FsVidZc8P6aEh5AwC8wU/GzSrrF7KiM/Y4Mm5ODkNKztl32+sux7KYZzDwxpkpEDIAx/OsAYjBrFSIF/AGfBCwNk0wvTjD9pUdNHw+rOFEHKSTL/FnQHyuxiiXi2z2Y2F4qwwgzfnSCLCLhr5QPgzOPW8K8S41Mat0sa9C9F7c4ii/YpLqOUjOkFIF7eGY4AYR38H5JBr9T0LkVAS4kgC8iVQTm/rP+zXQjmWauMfgpVQYOj3b49xhko860Ra8TI762A1ji8eaSs29oVTiEKHESiIOwr0xpPxIC+Pq2zF6dlkr17icyWZv5RitvG3zmTnnbhxFRGHYsu4mNmaVeqnuMeE8257LMUAIwIk/vnkkXeWI9/Ddi2g0qquOPPJ3veOK4BXne6HEpnktmyJWgKjolhVC7L6qUPD0/c0rVjx3U6NxAhCxY4Rdbl4uEM9ZZZrht9VanevgYgnBtG6DUvEFtsTH4aDUwbVS6Vea3dEWS8xBuMWclH/W/OprdzB0+hsixKNNUMn3EPyljy5VAJBrlLLd0chGpXJO5wscrSFIAnEpAVwjAO7OCHHnhnXrVHa77XZHpV7NjL4RAApurZ4TNehB91hw2WU7NUZH2Sn4ki8Ix4qTyCoikzknKlNz0AEbtn1hBx9tUBW99e7OZjJvHyQQVqcDiTqITtiJTqc0ZW7Mrl17wMrjjtuoKe8rxqy4IpM5roWKzrNKVALPXwHxUkYZn1yLG7b9VyDaeYA+PKYQD1xtml4izB5FOdv+OBJ9I67+FlyRWS8Wq+3sOw4inDiZCluyVhXRuWH8IHH7ECTPmMEteumzY5xu+apCgK9ut3796T8/9th1SfWtV0+iDsLK81KaBCCnqsOstxWicN/I5s1zVx599CNJttOGvSE6FhDNyDsiol8QgD0ya9b1jU2b+pZgEf1aK5TKrSqVbtfpf5uGGpFvpaMu3SbV3ZpVyhhHPEEgcoTtKwInMKIfKcRz65alhcmr018dGePSS59Fs2Ytjg3ywMoRb1HN5vt7Acd12o0rk7iDcAcG2I/E6fc/hBALetfWcRREyb65Wp2zmeh9RHS0BrYXx0vxi+7h7wtrQwdsord+rlp9K05gjUUW5LB8RL532i3QMQB+QgDnuJmzIhVPgUCH4/GADvvxPkDkB9fD0eK3IuJKbDZX6n5YkujulDhI20ls+wheiiTRSZeO27OIB680zdBMsiTbzFWrBvOi40TcVDB8qivkPqz9YaiSc1JKBODZLbggErYj/v1Pdono5+0LPtPkdOatsvCteSaT2aVJ9GjdsoZKWRh2gFPmIG0nKZf3hom7jG5Q38AdJro6S1RMAkVkkD4Uy+XMw0K8lyaiWH3vQLT0CvG6QcNdhtzjXdu+x5gCIHCtcT9FhabUQdgm+1arc0aV4sQdX+xWDbsxe9NnGJhMQ3ZaROYtXbonZrPvFQDHxtxo/sWxrJcM00lDyn9E3Ft41SNe37ngu3yYdmdq3Sl3kEnDdoIaedm1oLPeDIvduqclc12Ly2/lsHnLU/1gjUqlCEK8F4g4bD2q/MyxLB25QD0xyHnqHfze6AiHqF7P4N+nzUF6bdwhVJmDzWabQIey2ceajcYjOqEeW+Pz4pvprBC88Q2LItWGPQoao0bYxj8R8eSkkUu2RptPR5+eNAeZjsFNdxu5SuWbiNhmVPItiC1Nj3oAAANESURBVI5jmtqnXX46wuLAWJ7vBmqWxXwsaUnAAqmDJGDESRWGbZ8WFn/FLEg7KzWnUio1B2l293J5dEch+Fg5LNX0k45lfX0Q/WmdfgukDpLgW6Fz/4OIh0QFQgYur2zbIqLQ7EiOM6tZVh/JTYLDnFGqUgdJ8HF34FI5FD6s/N6xrMALvKCKHXwwTucND7LctGnHuGjpCZpgm1OVOkjCj9SQ8qEoPOEWCF5sdHVDyu8CwIciunuTY1mD39EkbIttQV3qIAk/RR3U8c5m+hM1y9IKQsxVKp9CxEgU+aA03ISHOKPUpQ6S8ONesGzZLo1mMzhv3d0e0VUikzkpKK6sA3/KG+5IrFsAWLtZiJf+qlBgfIC0JGSB1EESMqRbjSHlVwDglBiqVxPR1QLgNhBiBIh2p4mMxH21dSB+yjHNr2nLp4JaFkgdRMtM8YWGhSqK2WIibEox25wR4qmDTNFj7qCrc454WL738K0jPpIVYu5UZdQN38GntobUQabw+eXL5X1JCIbf1yK1HKArm1rpukbdshgaKS1TYIHUQabAqG6VzJsBRMsQ4BkJN/UEKnVYGLd4wu3NSHWpg0zDY2e0QlDqFwDgz50Ysw+ccqyUemvSEDcxuzEjxFMHmabHzDCc2bGxMxDxwwCQGbBZjuH6dlapU5+sxLEB+/2UrZY6yDQ/OqNafS0oxdClb4nZ9DVKiBNXFwp9INEx9aTiMSyQOkgMYyUp2o6tymRySDSPEPcEIqaTnoQdugcA7kaAO1s8H/UG0eobSqUNSbaf6tKzQOogenZKpWaoBVIHmaEPPh22ngVSB9GzUyo1Qy2QOsgMffDpsPUskDqInp1SqRlqgdRBZuiDT4etZ4HUQfTslErNUAukDjJDH3w6bD0LpA6iZ6dUaoZaIHWQGfrg02HrWSB1ED07pVIz1AKpg8zQB58OW88CqYPo2SmVmqEWSB1khj74dNh6FkgdRM9OqdQMtUDqIDP0wafD1rNA6iB6dkqlZqgFUgeZoQ8+HbaeBVIH0bNTKjVDLZA6yAx98Omw9SyQOoienVKpGWqB1EFm6INPh61ngdRB9OyUSs1QC6QOMkMffDpsPQukDqJnp1Rqhlrg/wOzn6Je7X7PBQAAAABJRU5ErkJggg==;fontFamily=Helvetica;fontSize=11;" parent="1" vertex="1">
          <mxGeometry x="-640" y="841" width="60" height="60" as="geometry" />
        </mxCell>
        <mxCell id="AiGol-srTTA_0abKe_U3-16" value="" style="shape=flexArrow;endArrow=classic;html=1;rounded=0;fillColor=#99CCFF;strokeColor=#99CCFF;fontFamily=Helvetica;fontSize=11;" parent="1" edge="1">
          <mxGeometry width="50" height="50" relative="1" as="geometry">
            <mxPoint x="-710.5" y="870.66" as="sourcePoint" />
            <mxPoint x="-650" y="871" as="targetPoint" />
          </mxGeometry>
        </mxCell>
        <mxCell id="AiGol-srTTA_0abKe_U3-17" value="" style="shape=flexArrow;endArrow=classic;html=1;rounded=0;fillColor=#99CCFF;strokeColor=#99CCFF;fontFamily=Helvetica;fontSize=11;" parent="1" edge="1">
          <mxGeometry width="50" height="50" relative="1" as="geometry">
            <mxPoint x="-570.5" y="870.66" as="sourcePoint" />
            <mxPoint x="-510" y="871" as="targetPoint" />
          </mxGeometry>
        </mxCell>
        <mxCell id="AiGol-srTTA_0abKe_U3-18" value="" style="shape=flexArrow;endArrow=classic;html=1;rounded=0;fillColor=#99CCFF;strokeColor=#99CCFF;fontFamily=Helvetica;fontSize=11;" parent="1" edge="1">
          <mxGeometry width="50" height="50" relative="1" as="geometry">
            <mxPoint x="-430" y="841" as="sourcePoint" />
            <mxPoint x="-370" y="821" as="targetPoint" />
          </mxGeometry>
        </mxCell>
        <mxCell id="AiGol-srTTA_0abKe_U3-19" value="" style="shape=flexArrow;endArrow=classic;html=1;rounded=0;fillColor=#99CCFF;strokeColor=#99CCFF;fontFamily=Helvetica;fontSize=11;" parent="1" edge="1">
          <mxGeometry width="50" height="50" relative="1" as="geometry">
            <mxPoint x="-430" y="900" as="sourcePoint" />
            <mxPoint x="-370" y="920" as="targetPoint" />
          </mxGeometry>
        </mxCell>
        <mxCell id="AiGol-srTTA_0abKe_U3-20" value="" style="shape=image;verticalLabelPosition=bottom;labelBackgroundColor=default;verticalAlign=top;aspect=fixed;imageAspect=0;image=data:image/png,iVBORw0KGgoAAAANSUhEUgAAAMgAAADICAYAAACtWK6eAAAAAXNSR0IArs4c6QAAGvFJREFUeF7tXQuUHUWZ/v6egZzA7epLDKugKCxgWIiLmZU1QsRHMMhrkeziWR8oCaiI+Aai4oooHEziiw2+FiEKu64Hj0GXiJoFXcFEopHIQpQoCAfccHbJTqar54SFM+l/79+3ZzIzmTvT79t9u+qcezKTqf9RX/V3q6qr6v8JpuSGANv2XADzgg/REQBsENnw/fa/8jvz3p/l93bxgg+zB6K9P1tW+//af3sUwHb5kOftzK0RNVdMNW9/Js1n226TADgGljUPzKO/C0GKKEKQ7SDaDt8X0jwUEkd+NiUFAoYgMcFjpeaA6GVgfiWITgbzyTFVFFud6G4w3w2ie8C8hbQeLNaBalszBJmh/9hxjgTzCQDkcxKAl1e7y7EZwEYAvwLRr8h1H6l4e3J13xBkCnjZcRaD+azWt678Oz/XHui2cqIHW6PhXSC6nVz3rm67Uzb7hiBhj7BSCwGc2ZqGnAmi48vWUYX4w3x/a/q4HsB60vreQmyW3EitCcKNxnz09bVJ0Z4+mbIXgY0BWfbsWU/Dww/WFZjaEYSB/eE4y8C8FMCSunZ8zHZvANE6uO5aAp6NKVvp6rUhCDvOQfD95SBaBuC4Svda95zfBua1sKybyHV3dc+N4iz3PEF4zpzDMDIipJDP4cVB29OWHgOwFv39a2lw8IlebmnPEoRtWzbtloNZiFHUhl0vPytTtW0niNbC928iz5PNyZ4rPUcQbjYXwPcvDKZSzLN7rsfK2CCip8Op19dpaGhrGV1M6lPPEISBWVBqBQD5HJAUECOXCoHdAFZC65UEPJNKU0mEe4Ig7Djngvny1vv7l5UE17q7sQVEq8h1v1N1ICpNEG40joNlyYhxXtU7okf9vwW+v5KGh7dVtX2VJAgDBMdZAWYhR7Oq4NfE7yEQrYTryrSLq9bmyhGEbftsEMl06sSqgV1zfzeBeRV53verhEOlCMJKfRLAlVUC2Pi6DwJXkdbSj5UolSBIcOQcWA3mcyqBqnFyegSIbgNwWRWO2peeIGzb54BoNQAhiSm9g8AjYL6MPE/IUtpSaoKYKVVpn5ssHSv1lKuUBDFTqiyfvwroKvGUq3QEMVOqCjzQ+bhYyilXqQjCSl0CYE0++ButFUHgvaT19WXxtTQEYaWuBnBFWYAxfnQVgWtI64931YPQeCkIwo5zI5iXlwEQ40NJECCSS1kXdNubrhOElfoBgNO7DYSxX0oE7iCtz+imZ10lCCt1H4AF3QTA2C49AltJ64Fuedk1grBSOwAc0q2GG7uVQuBJ0vrQbnjcFYKwUpU71dmNzjE2JyJAWhf+vBZukJWSgMovNp1vEEiAwO9JawkMXlgplCCs1O1B9EJTDALJEZCoj2clF48nWRhBWKnPA/hgPPdMbYPAlAh8gbT+UBHYFEIQdpyPgPnaIhpkbNQEAaKPkut+Ju/W5k4Qc3wk7y6stf7cj6XkShC27fODwGKmGATyQoB5GXneN/JSnxtBwlO56/Jy3Og1CIwhwLw0r4tXuRAkzMr0Y3ML0DzEBSHwCIhOzeMKb14EWWfujxf0aBgzbQSIbiPXlZQWmZbMCWKuyWbaP0ZZPAQyv76bKUHMuiNeb5raOSCQ8XokM4KYdUesztYAJK/Gn0D0JzDL54ngZ6IGmA8B86EgksOc7X/ld+A5sazUs3Km65EsCWLWHdM9kMw/CXL+Mf+APO/3SZ5dtu25sKylYfq4U5PoqIVMhuuRTAhi1h1TPnaDrfCoG8C8AXv2/Jh275bj/ZkVnj37+dh//zPCBKSFnU3KrAH5K8pkPZKaIGGs3O/l397KWNgN5jUYGVlDTz/9X0V4zUodBeDtAN4LwCnCZiVsML8hbSzgVAQJoqwr9XMTSDp8XJj/ScjRrbTJbNvzQCSRYeRjCrAJWi9KE1U+HUHMIcTRh/BWMF9PnndPGZ5KVuqvQ5KYvCkpDzUmJkiYvEZGjzrn53gSlnUJDQ2V8kgNO84SMMtoUuc1yhB8f1HSJD7JCaLUzTXP7LQJlnUxDQ3dX4ZRY9oXaI5zQ+tV8oVl9zNH/24hrd+WRH8igoQ5AW9NYrBHZL5FWr+lSm1hx5H0EZdWyedMfSV6Y5KcibEJEmaTlalVPRNmEr2TXPeGTDuvIGVs2x9ubUR+tiBzZTOzJVywx8q+G58gSn2idTTsqrK1vhB/mA8mz9tZiK2cjHCj8WpY1k9zUl92tVeS1p+K42QsgnCzuQC+L6NH/fKQM89LugMep0OKqMtz59p49lk57lK3shuWtYiGhrZGbXg8gij1JQAXR1XeQ/Xe3Ao386891B6wbR8Dot/1UpsituXLpPV7ItZFZIIEgFrWfWCeHVV5T9Qj+hy5bk8ublkpebPzzZ7op6iNIHoavj9AnvdQFJHoBHGcVZJTLorSnqnD/B/wvNcRMJJHm7jROBZ9ffPh+y8E0QsByEfK461o94/Dsh7Hnj2/zXNnnpWSXByRv1HzwKFwnUSryXUllfiMJRJBeM6cwzAyIoGm586osXcqeABeR1pvzrJJ3Gy+Br7/WgCSsfe4iLofBtH3W3J3o6/vbhoaGoooN2O1cD1yJwDZfa9L2Yn+/gEaHJQrB9OWaASp45sroo+T614zE4BR/x7uHUngvFdElZmyntwdAb4Iz/siAXtS6QqF2XEWg1lIUqcS6Y3WjARhxzkIzDJ6HF4j9B5CX99C2rXLTdtmtm0hxAdBdG5aXZPkfyVEIa2/lYVert8LmMdANECuu2s6/GYmSD03ly4hreWNXarCSkkasU+nUjKTsGSItaxlacnMjcZ89PX9slYvYZgvJc/7XGKCMLA/2kluos6VZ+rOKvz9XtI63TQIQOtE7R0ATiuowRIx/0zS+uE09lgpeVgKiXmbxs8MZbdB6wECnu2kc9oRhB3nXWD+aoYOVUHVW9JOW1gpWUR34+LSK0jre5OCHMYV+CWAOUl1VE6O6CJy3a8lI4hSEvxtSeUandzhH5LWqfIlcrcx8/3n0vDw/ySFoIbZhjeQ1h3v93ccQYI5qWU9kBToSsoxn0+el3jjjG37MhCt6nLbf01aJz5IygcccCj6+3/bpRGwO9D5/ks67TV1Jkj9bguOYGTkhbR795NJeomVejOAf0kim4NMqvwZtUt0NM2tw84Ead81PymHziurymmH2umc5jlzFEZGNpXqZUaKAGrsOCvAnHvujRI9CBtJ60VT+TMlQViphQB+UaIG5O8K8+XkeauTGCpl2CPmn7TuyC9O1B7HGQDzr5PIVlhmyhccnQhyNYArKtzYJK4fneQ1aXCeyrLky0QlMZqrDPNy8rxE+VlYqUdrtjl8DWkt+1YTytQEse3ftKJlH59r55VJOfN/tvJLJGpvyXMvJt7TYce5sXVgcnmZuilXX5jvJ8976YwEqem5nMRR+Fgp2Tc4IdfOS6Pcso6goaHH4qrgZnMpfP+7ceUqXZ/oFHLdu8a3YZ8RhJX6IoD3V7qh8Z1/H2m9Jq4YNxp/Bsv677hyhdZPmKKslutQ4DrS+gMzEeTBUr2NKeZpSrR7XpFv2W+Q1sviwsjN5vHw/d/Elat4/W2k9fyOBAlDV0a6aVVxICa7//rW+Ss5NRCrsG1fC6KPxBIqvvJm0lreSsYqrNTRABJFoY9lqGyVmY8hz5OzbUGZMMVi2347iHLLGFo2LMb8ITqBXHdLXP9YKbmn/vdx5Qqu/zBpLQ97rBJEj99vP7l7Uq8y6TTFRIIo9RUAF9ULkSC/3Z+T68przViFlZLXu7G/nWMZSV95sLW+ip14J7wHJCkc6la+Slq/e+oRpH20fUHdEEF/v0ODg7HD4LBScizleWXHi7Se8d7P5DaEAQL/r+xty8G/raT1wD4ECbIXET2Vg8Hyq5w1y6annhqO4ygffHADzzwj99bLXpJNsV7wgtnQenfZG5eLf+MCBI59s7Bt/00QGKCOhfkk8jw5SxW5sG2fCKKNkQW6VzHREf6avsVq9xLz2eR5/yY/7iWI46wEc6RQKN3r65wsE72bXDfWxTB2nIvALGu2spc1pPX74jpZ6wDlRKvIdVdMJEj9Tu+Of2ZiH8moyAJdvg3PIs9bn4AgV4BZzuTVsYyd7t07gijFdURirM3MXyfPe0cUDNi2b2ilbK5Cvo0dpPXzo7Rpch1WSi6OJcqpkcRe2WRGX2wEBKnxBuHkfnkTaf3t6TqLbXtZKwriTWXr0Cn9Yb6WPO9jSXxlpWRNljp4RRLbpZAJNwxHCVLfBfq+vXGzBKogz5twH4Zt+0wQyRm1U0rRgVGcYD5xcjuiiAVfmkpJmofY+ydR9Ze+XrhQHyXI5SBaWXqni3RQIhgS3dOah/eD6DWVC7tKtJZcN9Fx9TCt9B+KhLt0tphXkOetahOkbmf/S9cbmTv0B/T3v5YGBxMdFWGlJN/6P2buVZUUEt1ErntBmyD1foNVpW6L6muqfCYFB72L2qai6wVvskYJIjvodYrcXjTYRdqLlSBmsmPcbL4Uvh85A1ORDSvY1s5W+NmDqdZHTApGPHdzRA/A919Dnve/SW2xUl8AMOHSUFJdlZeTIyds2yeBSEL8mFJ1BJjPad2r/l7SZnCzeXg4ejST6ugpOeZFQpDlILqxpxpWx8YQXUyum+roSynDF3WzL5kvIFZKwvPvE+6km34Z27ERSBx0YtRSrTMYd4b7aiFIHYM0xH4CSyzwFdI6debhityOLLobriOzB1I05hnaY/4ued7fpdXISsm14Z5Kc50Wk0Be9kLYtm/NIT1YJv4ZJdMicA9pfXJajPjAA58Ly9oAor9Mq6vn5Jm/I1OsHwJ4fc81rrcbtL11qPKYLJrISt0M4LwsdPWgjh8JQeoWxb3q/biLtM4kAxTb9qUgShSwu+ogRvR/o0yx7jfDa0S4SlAtSQCGqdxmx1kC5tixwEoAQXEuSMxmVuqPAI4ozqqxlBgBrWcTkDrSSHj/R+Lu1ik5axLYHxWCmHNYSaArWoZ5bpojJKPu8oEHPg99fRKQoLwBt4vGtrO9nUIQ+UaaVR6fjCf7INDX9yLatevxLJBhx/kZmFO//crClwroeMYQpOy95PvH0vDw77JwsxWx/UetzGEdM7pmYaPHdAQEMVOssvZqwpjBHRbl68B8TlmbWlK/gimWWaSXsXd8/1U0PHx3Fq61IrVL9l3JwmtKPAQeNa954wFWVO23kda3ZGGMlboewHuy0FU7HeFrXrNRWK6eT30yd+yNlW2bYBzp+najOWqSDsCspW8mrd+ehVJW6k0AvpWFrhrr+JE5rFie3v85tF5MwLNpXeJG42RY1s/S6qm9fHBY0YT8KcNzsAO+fyoND0t+yFSFlZINQMm8a0paBILj7ubCVFoY08v7/t/S8PC6tIrMyJEWwX3krzNXbjPHNKZC5hvI894ZU2qf6ubwYVoEp5S/2gRtyAXXyEp3gOiV5LqyF5W4sG2fDaLE0UwSG+51wSBogwn7081ufl8rweaaNA608pTI0RE5QmJK1giEYX/qm5swa0Dj6CN6EK67gICROGLj63Kz+SL4vtwI/YukOozcNAhI4Dj5szmP1YXHhPky8rzPprHMjvNdMC9No8PIdkSgHXo0JIjZTS/ySZHUCsAC8jzJwZGosG1fA6JEyXESGayf0Ljg1WYvpOjuT5RYc9RJVuqtADI5q1V0wytjb0L6A3Nmp9h+I1pCrvvvSYyGNwLvAXBUEnkjExGBCQl06pwjPSJeGVZ7mLQ+Oqk+VkoS20iCG1PyRGBSCrZ5IHooT3tG9xgCiU/rslKnAbjDYFkAAuOTeIYL9XqngS4A89DEW1sjiFxgil1YKblA9crYgkYgNgIT0kAHBDGX+WODmFBgIWm9Oa4sNxqvhmX9NK6cqZ8AAaK7yXVfJZLBa95wBDFpEBJgmUDkOaT1YFw5k7sjLmKp6l9NWv/DRIKYSHupEI0sPGuWTU89NRy5/ugXmG3/FESvjitn6idAgOhUct0Nk0cQifeaOLddAjfqKnI0af1wnMaHR0oeiyNj6qZCYGyUH5tihdOsewG8PJVqIzw9Aswnk+fJPkbkYjYGI0OVRcXNpPXCUUWTCfI5AB/KworR0RGB2PfO2ba/BqLUd0ZMn0RC4POk9Yc7EcRkGoqEYepKp7W+pSIdUWelTgcgdz32S23VKIiCwJtauVe+PTVBHOdIMMeaH0exaOrsg8ATILpwdCHYCR9uNo8Pj7MfYjAsCAGio8h1H5mSIME6xHEeAPP8gtyptxnmy+B5awh4ZjwQfMABh6C//10A3gHg0HqDVGDriR4k133JeIsT1iABQUwQhwJ7JDD1JIDbwPxDEL2slUxzHgCJvm6IUXRPANeR1h+YniCOsxjMdxbvm7FoEOgyAkSnkOveNS1BglHEtn8DouO77K4xbxAoDgHm+8nzXjrZ4D5TrHCadTWAK4rzzlgyCHQdgWtI649HJYhslPyi6y4bBwwCxSHwCtJaNsonlClHkHAUMffUi+scY6m7CAT3z6dyoTNBHOcjYL62u34b6waBAhAg+ii57mfiEaTRmA/LeqAA94wJg0B3EfD9l3QKHN5xBAmnWZJofkl3vTfWDQK5IrCBtO6Y2HR6gjjOu8D81VzdM8oNAt1EgOgict2vdXJheoIA+0Op+wAc1802GNsGgZwQ2AatB6ZLWjQtQYJplm1/GESpQmTm1Dij1iCQDgHmS8nz5IpHxzIzQRznIDDLKHJ4Om+M9DQIyB31P7SiJR4JYK5BqhAEHgPRALnurlQECRfrn2gFeLiqELfrY+QRyGne/fbbQoODT4w2mx3nr8AsoX2uBNCsDxyFt/RK0vpTM1mdcQQJCDJnzmEYGZFRxHy7zYRolL8T3UauO21Udm40joVl/bMEuY6i0tSJhcBO9PcPjP9i6iQdiSABSRxnVfCNZ0o6BMZFzIiiyIT7iYJSzDpEq8l1L48iFZ0gtn0MLOs+MM+OotjUmQIBoo+R68Y+ncBKyfXcju/qDdYxECB6Gr4/QJ4XKdRuZIKEa5EvAbg4hjum6tjign/SimayOAkgbNsSO1lSO6sk8kZmAgJfJq3fExWTeARpNhfA9+UQ4wFRDZh6Ywi8n7SWyOyJCtv2rSA6N5GwERpFYDcsaxENDW2NCkksgoSjiHmjFRXdifXOIK0TR2Zn2/4MiFYkM22kQgQivbkaj1Z8ggCzoJSMInJ/2pSoCFjWETQ0lDg6Itv2+SBaG9WcqbcPAlug9aLJATJmwik2QYJRxHHOBfOtMyk3fx+HQKNxIO3YsTspJiY3SFLkQjmiN5LrfieulkQECadaNwM4L67B2ta3rIE4c9/JOLFSklUq8Rqmtri3G34Laf22JBgkJ0ijcRwsS6ZaZrc3GvITIvZFE9lbi5VaA+CSuHKmPobg+4toeHhbEiwSEyScaplbh9FRT5x6LRyxJRz/66KbMzUDBKa5LRgFoXQEkQQ87QX7iVGMmTo4j7SW4yOxCtv2ShBF2vmNpbj3K28KF+aJ0wumIkjwzWbbZ4NIgiubMjMCw6S1PXO1cVOrZvNw+P6jcWRM3RAB5jeQ530/DR6pCRIO/58MT5+m8aUuspsxa9YpUbJMsVInAJAddFPiI5BqSjtqLhOCBCRxnHVgPid+O2oqwXw+ed43O7WeHecKMEsAP1PiIhDhtHRUlVkSRFInSJAHufRjSjQE7gTzHwE83DpGsq21t3QsiCQ+k4wcJnh1NAwn13oE7RPTYykMkqlpS2VGkGAUse1zQLQujUNG1iCQCgHmpeR5t6XSMU44U4IEJFHKrEey6h2jJy4Cmaw7xhvNnCABScx6JG7HmvppEchw3VEEQcx6JG2HG/k4CGS67sidIGY9EqdvTd3UCGS87iiEIOF6RM4OyRkiUwwCeSHwXtL6+ryU57IGGe8sK2WS8eTVe0bvlElvsoQld4KEi/Ybwbw8S8eNrpojQHQTue4FeaNQCEHC6dYPWscmTs+7QUZ/LRC4g7Q+o4iWFkaQkCQSfM4EQiuiZ3vXxlbSeqCo5hVKkJAkOwAcUlQDjZ2eQuBJ0rrQIziFEyQkSeLz+T3V3aYxsRAgrQt/Xgs3OIoIK7UdwItjIWQq1xWB35PW87rR+K4RJBxJbgdwZjcabmxWBoH1pPVZ3fK2qwQJSfJ5AB/sFgDGbqkR+AJp/aFueth1ggQkMSmnu/kMlNN2ymALWTWqFAQJRxJzLCWrXq2+nlyPj8SBpzQECUhiwmvG6bverMu8jDzvG2VpXKkIEpJEbiWuNld3y/KIFOZHkJIuy9uAWXheOoKEaxK5177aBIHIoosroINIrsheltU98ixbXEqCjDbQXN/NsqtLqyvza7JZtrTUBDFTriy7unS6SjmlmoxS6Qliplyle7DTO1TiKVUlCWKmXOmfyRJpKPWUqtIECadcEgtYAjmbgNkleuojuLIJzKvSxsqNYCfTKpWYYk1uMUvAO8dZAWbJ2Wfyk2T6SGSubAhEK+G6Kwmo3CnuShJkbMrVTuIjJDGZrjJ/rjNReAt8f2XS5DWZeJBSSaUJMkaUds5EmXaZxKIpH4iMxLeAaFWSnIAZ2c9MTU8QJFibtLPvymgiH5PHPbNHJJYiSVK6ElrLdOqZWJIlrdwzBBkbTZrNBfD9C0G0DMyzS4p7b7lF9DSY18Kyvp4mUWkZQek5gowRxbaPgWUtB/MyAHPLCH4P+LQzyN3u+zeR5z3UA+3Zpwk9S5AxosyZcxhGRoQk8jm8FzuxC216DMBa9PevpcHBJ7pgvzCTPU+QcQv5g+D7y4OpF3BcYQj3liFJ8iNTKQnatqu3mjZ1a2pDkDGiAPvDcWR9shTAkjp0cgZt3BAkRnLdtQQ8m4G+yqioHUHG9ww3GvPR13cmmCVwxEmV6bViHN0IovXYs2c9DQ8/WIzJ8lmpNUEmkEWphUGEFSEL0fHl66oCPGK+PyAFIJFE7i3AYulNGIJM0UXsOIvBLKFmTqnBemUbgDtBdDu57l2lf2ILdtAQZAbA2bYlYNlCEMkI8/IeiC28FcBmMMsIcS95ngTwM6UDAoYgMR8Ntm3ZUzkRlnUSmGXdUva1i6wlNsL3N7ZeSmwiz9sZs8m1rm4IkkH3h6OMjDSyOTkPzPKzfIraoJSHfjuItsP3ZUSQTbvtZnRI37mGIOkx7KghHG3aZCE6AoANIhu+3/5Xfmfe+7P83i5e8GH2QLT3Z8tq/1/7b48GpGgTwYwKOfXj/wOUH9QfiliSywAAAABJRU5ErkJggg==;fontFamily=Helvetica;fontSize=11;" parent="1" vertex="1">
          <mxGeometry x="-170.5" y="800" width="40" height="40" as="geometry" />
        </mxCell>
        <mxCell id="AiGol-srTTA_0abKe_U3-23" value="" style="shape=image;verticalLabelPosition=bottom;labelBackgroundColor=default;verticalAlign=top;aspect=fixed;imageAspect=0;image=data:image/png,iVBORw0KGgoAAAANSUhEUgAAAMgAAADICAYAAACtWK6eAAAAAXNSR0IArs4c6QAAHNpJREFUeF7tXQm0HFWZ/v7qruokJiq4JF2dOFH0va73nqKJjsqijiiLRkdU4oALaBqPC3uUoKCOCpLEIcgEojOToKCigoIOQXY3lokiKkPS1XkKBpOuTpRFhpzkdfXr+ofb7yXkJW+ptbuq+tY5nJzz+l+/ez9uLff+P0Fe0SDAJ2TyMHvIbvZCQQ8cPA+EmQzMIsJMMGYBmEkY+Zv4bfRvAOEpMHYS8BQDOyH+IzzFo38Tv0HBY3AwyFpmcw3GIOi6ZjSJdLdV6u70g2ev7xqYR6rTA+YeUIsIvSz+BQ4Jbt2ThYeIMQgFmyH+JRrkhjJozdi41ZMVKTwGAUkQjxOiMFTscRR6AwFvxch/B3k00W7xJwDczsDtisO/qk6rDLY7gCT7kwSZYvTm7C7OVxQcBqLDRgkhVockX4Igt4P5XsfBvdunV7YkOZmoY5cEGQdhvVE8mpmOBXAYAa+NehA6aZ+BXwO4l4hvsdTKbZ2MJY6+JUFGR0Xf1Xs4MplFRLyIgYE4DlbUMRGwkZnWo9lcb83YfE/U/pJgv6sJUrD7DwU5i5ixCMDrkjBgbYxxAxHWg5X1VW3TA230GytXXUeQedyrDzeUEwh4B4CjYjUa8Q3mTgZuzKrOdVtpsxXfMMOPrGsIMoeL88mmEhFKAGaHD2VXWNzBjLWs8drt1B0P96kniHgty0QlKFgCxsFdMY2jTpLwOBysI+a1aX9tnFqCzK4bA1lCialFjJlRz5mutE/YSYx1w4y1O3LmxjRikDqC5G1jAYnVwmndSmlpHLQY5mRDwVp2sK6mmb+LYXy+Q0oNQeY+2X+wM8M5F4xlvtGQisERIKxQdikrtz1n0+PBjXXeQioIUrCLJzPoXAB9nYdURgCgTOCVVa1yVdLRSDRB5tj9r8kQL2Pm9yR9INIYPxH9qMm0Yru26b6k5pdIgryA+2aqw7zndko+Z8R79tkgrGhkaeXfqCy27ifqShxB9HrxRADLQHRoopDu9mCZxdf4FVau8r0kQZEYgszn+dPsxvRLAHwiSQDLWA9AYI2m7l66hbYMJQGbRBAkbxcXKqBLGHhjEkCVMU6OAAG/dMBLa1rl/rhjFXuCFGzjQ08fSRUrx/PjDqaMzxMCjz59pHhpVTOv9qTVZuFYE0SvGytAEK9v5ZVWBBgrrZwZ229XsSRIgYs9bNMqEN6e1nkh89oHAcZNpPE5VYrfceDYESQ/bBxPTQhyzJeTqIsQYGzhDM6pZc0b4pR1rAiiDxVPg0Kr4wSQjKXNCDh8ujWtcnmbvU7oLjYEyTeMC4lxflyAkXF0DgEmXFRTzQs6F8EznmNBEN021gH4SBwAkTHEBoErLc1c0uloOk6QfMO4iRhv6zQQ0n/8EGDCT2uq2dEXNR0liG4b4uzAq+I3NDKiGCHwe0szF3Qqno4RRG8YFhj5TiUu/SYIAULNUk29ExF3hCC6bXAnkpU+k42ApZltn69td6jbxmagVdxZXhIBrwgMWprZ61UpiHxbCaI3jBsxUqRNXhIBfwgQ1luqKWqateVqG0HytrGKgLPbkpV0kmoEGLi0ppnntCPJthBEbxTPA9PF7UhI+ugSBIg/Y6mV5VFnGzlBdLt4GiC3j0Q9kN1pn0+3tGi3pURKkIJdPIVB3+zOwZNZtwMBAn+4qlW+FZWvyAjS2pXr4PqoApd2JQJ7EGAF745qF3AkBBk9z3Gr3LIuJ3FbEGBsIY2PieI8SSQE0evGennYqS1TQzrZu4zgJitnhv4JIXSCyGOycs52DIEIju+GSpDRAguJLzfZsQGWjgMjQMDJYRaCCI0gojQPgW6R1UcCj7E0EAyBRxl8bFglhUIhiCjq1mhMv0XWrQo2slI7HARE3S1V3X1sGMXpQiGIbhtXyIqH4QyutBIaAmsszfxkUGuBCdKqlUt0TdBApL5EIHQEmE8KWgs4EEFaVdZt525ZSDr0oZUGw0CA+YGGphwRpKp8IILoDeNLYHwujFykDYlAJAgQvmyp5uf92vZNENG8RoFzt+wD6Bd6qdcmBGwHyhF+m/j4Jkih0fdD2dmpTUMs3QRCQHS6qqrl9/ox4osgoz0BI9tB6ScRqSMRmAwBAp/ip2eiZ4K0uslOd+6SDTPlhEwYAmVlt3Kk1+67ngmiN4zlstVywqaGDHcEAcIKSzXP8wKHJ4LkbWMBAbHvCuQFACnbXQgwsLCmmaJgoavLE0H0YeMKOLJHoCtkpVA8EVCwxsq6/8LumiCz68ZAhlqrh2y7HM+hl1G5Q8BuMhbuyJkb3Yi7JkjBNr7GwJlujEoZiUCcESDgsqpmnuUmRlcEKQwVezhD94Mx041RKSMRiDUChJ3U5IXVaVO3fHNFEL1urATh07FOWgYnEfCCAOOrVs6cskHslASZw8X5ynBr9TjYi38pKxGINQKEx50sL9xOlS2TxTklQfJ140Ii2Rot1oMtg/OFADMuquUmb/U2KUHmca/ebCjinfFsXxFIJYlAvBHYkVGdBVtpszVRmJMSJG8bZxLwtXjnKKOLEQJ1ALkYxTNlKAycVdPMy3wRRLeNOwAcNaUXKSARIPwNpJTQdGaA8L0EAXKnpZlv8UyQgt1/KMP5Q4ISlaF2DoGHFOLSNrXyCxFC0so/EZRXVrVND4wH34S3WIWGcT4zLuwc5tJzQhD4A6tYUqOx+5vytlEi4L+SkAMRLqiq5kWeCKLbxv8AeF0SEpQxdgyBXykOStummX8cLwLdNkRVkcs7Fp17xxsszXy9a4Lou3oPR1YRx2nlJREYHwHC+uF6pvTXmRt3TAZRYai4lBX6t9jDOOwcYc3YfM/+cY57i6XX+y4Gsad987EHQAYYIgJ0jaL+X2kbbdvtxmi+0fdZYh73FsaNfltkmJZbufJnXBGkYBsPMjDQlsCkk0QhwAq+UcuaH/cStD7U2wtFuRbAK7zotVOWgI1VzXz5lATRG8WjwXRrO4OTvhKCgMv9S/tm80IemJ0dbl4LxhtinyXxMZZauW3fOA+4xSrYxqXi40nsk5EBthUBYnyumjM9vdUUNZtte8a1IG5b2+YgoIiP4lXNHNOJ+QCC6LZxH4BXB3EkddOGAJ1paeV/95pVoW58mwkf8KrXQfnfWpr5mglXkLlD/S91FGfcV3YdDFq67hQChCYxl/w0ydTtvtUAn9ap0P36VRzlZdumbfrTHv0xK0iSPu74BUDquUbg76zwklq24rkRa5J3gDNwak0z105EkKsI+JBrCKVgOhFg/AWMkjXNvN1rgvqQ8WkoWOlVLy7yDFxd08yTxyWIXjceBuHFcQlWxtF+BMTrTgKVtmnlX3v1nreLpxLoP73qxUqe8WcrZ77kAILM4f4+peFsilWwMph2I3Avc6ZUy200vTou1PsWM/EPvOrFUd5Rlf7ttKksYtv7DKLbxdMAWh3HgGVMbUCA+BYl65S20WDVq7f8UPEYUkh8CHy2V914yvPpllZp7SHbS5BCw/gRM94dz4BlVFEiwIzrGpqz5FHa/JRXP3Ptvtc6YEGOF3nVjas8Ea6vquZ79ltBjCcAPDeuQcu4IkNgnaWZJT/W9XpPkSlzLQEHbNHwYy9GOn+3NPOgvQTRdw3MQ7b5lxgFKENpAwIMXFrTzHP8uHrhzoHZ2VzzOjCO9KMfe53hzIusGRu3tm6xCo2+o5hZHK+VV7cgQPRFSy3/q590F/JCtTa863owFvnRT4IOEb2lqpbvHCGIbXycgTVJCFzGGBwBIl5aVSur/FrS7eJ3AHq/X/0k6BHwiapmfn10BTEuZZYbFJMwcEFjZPBHa1rF91FYfdi4HA4C9x8PmkfU+kT4WlU1zx4hSN34KROOi9qptN9RBHa2vo7nTN/fKgr14kVM9NmOZtEm58S4uZoz39YiiG4bYnPWIW3yLd20GwGC5RCVtmfLN/t1rdeNc0WHJr/6CdR7yNLMlxL4hIze2DicwATchixKF73SrXD65KgCopKlbjrgvLXbXPN28aME+g+38mmRs9SBLOV5wKBGs/VZPXUX0XKlyVc6RKtBfEzq8psiIQLfRyqWbKPKg35z1+vG+0D4vl/9JOuxmukjvW68C4QbkpzI+LHzakurnCF+O/ixlz47N0td3WU7le90mlzaPn3y6uWTjXt+qP9YUhzxlXxW+uaHi4wYx5PeMM4Fp+7e8kpLM5fsD0HX9Dkh3KDsUkpeWx7vi9dcu+8fHfAPAcxzMZXSKUJYJlaQFSBM2UgkQQh839LMEyeKNzF1mvwDfpWlzi6BfuH7uXLukPEyVnB911e2Yawk3TauAFLSuZbpxudqeG+Zyvaktw71vg8Qsdi5nK69ZwqttrLl1m2l30vnnuejofwYoMP92kiR3hrK28bVBHww+UnxzxQ1c8I22vS4m1z0IeOtIKx+uhJ5rxv5uMsQ81equcr5geJkZPRh4ydgvD2QnZQoM/Bt8Qwi9tQcn+ScGPg1qbTYorKnDZdz672vcEgRK0n8azZNNkCM86ycGfgbhW73fRfgk5I8F0KNnXCDuMUS544n7I8QqsNojG1yVGXxnhNgXl2IXakZtbmaCCd41Y2D/J49Q0Fj0W1D7MXzVDExqM8E6N8hCJKCKu58T6bBi7c+a+JWWlMNRuLK1BCG2KFSLVf+7lS5TfV7odH3FWY+oC7tVHpd8PsGSk0dXsJ6JfvUYrcFlccb3ELduIAJX07AwP8NCi+xspUbg8aqN4xlYCwPaieN+q0CFrptiDa4/5CGBAn4dlUzA5UtGq3MIZ5L4tlrj/GQ47Q+ALa6OQW5Cnbfxxj89SA2Uq77iHhIfxSM56Un0We+oPvNSR/qfSfEwzvF7pz17xko1bSx3Zz85FkY7lvMTjqqkPjJ35UO4TGxgojOpJorhaQIMX3JypW/ECRcUYyA4axm0JharUFsBtEl4JfkKKV9y2L6tac3jLeCISomzvRro0v07HQSBAADZ9c0M1AL6zm7i/MVRWx07PDRUqIbm9lsaQf971+DTsy83ftqYuXHIBSC2uoCfTuFt1jPDBspfEo1W7kqyEDO3Tp3ujN7lngmOWBvVxC7rnWZr9G0oSVbaMuQa50JBOcNDRzSVJo/AdAf1FZX6I/eYqXmIX2cQbPBtNjKlcWkCHR14jQdA9+oad66OU2U5Iv45QcNN4bXAzgsEBDdpfxIel7zTjxwO5iwuKaavwo6tvpQ3xlQ+LKgdlzpM1ZaOXOZK1kXQvJYtQuQ9hPZ85o3BR8Kp0qeKk3mE3bkzI1TSU71++gBInHL9YKpZP3+Plnfbj82ddu4BsCEO5z92OwSnQ1p2Gridqw2qA28+5FnmTW3ChPJzdldfBMpJLanRNDolM6wtHJoNZLztiFK13wsaM5dqn9HKjYruh08UaniORq9a6rt8G7s5esDBlFTTOSj3MhPLcNNAnx1c5rItt7ouxgs23lPjf0EEmKzYnq2u7uFga6xtHIoRc/mPtl/sDOtuRpEQXfAPsHMpVrOezenicmRypOibgc5FLmR7e5pOjDlHpYrLM0MrX9e3jZWETCmO6r7UPAICCVLNUMr/ZqKRjYeAIxQdE0aj9y6wosZF9Vy5gWuhF0I6XVjGcjbpj8GHsyMdHP6jQsXrkQK9d73MinXuRKWQpMj0Dpym86iDa6Gnog/VVUrl7gSdiFUsIun8EgTIjdbOO6F2lxi0WDFhWlXIoVG/5uZnf8G8CxXClJocgRGizaktOyP29GnJZZWvtKt9FRyc4b6jlPEeXeapFIl8y1K0yltm+G9m9OEzxx236vAvB4EfaoY5e8uERBlf1JdOM4VDtyEorzHygb/2r7HXd42FhAgVpLxvlpfaz/plB59gfduThOl09ozlqGbAPS5SlkKuUKgVTiuC0qPugHjURAdb6nlu90Iu5GZu6un4GQyYiXZ97z/WkszT3Wj71bmoMdf8pzpM3Oi5u7r3epIOXcItEqPClFZvLoF2B+ZM//sp8PrhHD//E3Z/OE7REXHjzHRqppaXupuaNxL6fXizSA61r2GlHSJwGjxatn+YC9eBPxmuG6/Y8eshwJvK993EPRG8QuWWvmiy4FxLabbxvcA/ItrBSnoGoEx7Q8KDdlAZy9yjNsszTwOBMc1mh0QlFVIogV9bAMd2YJtf7R/YGlmbP/P3Imt99FOx/hZ368Fm2ziuf8QhXkWI8zh14f6PgWFvxqmTWnrQATGNPGUbaDHnyLEdHE1V45NyzHd7vsIwOvkhG4DAvu2gR59kyVq2raap8vrGQTI4U9Vp4X3td0vtvm6cTxRq9CCvKJH4AlLMw8WblqveUcJIpo7Lo7ed/I8hHG2PUjW4vzJ6IfAGUHsSF3XCFxraeb7xhAkbxslAny3B3btOpmCTAq/s5qtiDPdbb3mcu8rHFu5BYR8Wx13sTMGTq1p5toxBCkMFXtYoc1djMtUqT9BxG+vqhVxRLktl84D82AP3waiYlscSictBMjh3uq0yuAYgozeZgmC9EicxkeAQA/DcY7bA16UOL2A+2aqDRaV918XpR9p+wAEBi3N3NszZu8zyChBLgfwSQnapAjcr6jK0W4b9fjFUlYh8YtcYL0xh+nGEqRePAlEgcvpBw4x7gYId1iq+daowtTrxe+GcIw3qvDSbZf5/VauIqrAjNxu7Zvt6LbpP6cbgdCy2/umIzSLYuPocN9qOBzaceAwY+sGW06TX7xv6+wxBBEA5G1jAwGv7QYwQsjx65ZmfiIEOy0TesP4EhifC8uetOMNAdHKr6aZY575xiNIkAIE3iJKgTQzLqzlzMCTumAbZzOwKgWQJDYFBi6taeY5+yZwAEH0RvFoMN2a2Cw7EDgDZ9U003dJ0tGz7N/sQOjS5Rg28DGWWrltUoKIH1PTlq2Nw89MH6zlyt/x6lIf7n8nHCdwcW2vfqX8WAREHd6qZr58f1wOWEFa98L1votBsiKf10nkKPS27dmyOP7q6so3+o4k8K1gTHelIIWiQ4BpuZUrH9DIdHyC7Oo9HFkltPPZ0WUVL8tEeLLJdPR2F3WuZteNgYyC28GYE68sujSaYecIa8bme1ytIK1VJBXtoTsw2IxHslr2zX+hBx+eyHuroEM2I76SGx2IULo8EIENlmaOW/Ri3BWk9RzSMM4Xb2gkmr4QuH+aWj/qYXr4yf215/Lc6U5jligzKhvZ+II2fKXJ2k1MTBC7/1CG84fww+kSi4TbLNU8Zv9s9YZxI7jDPQ+7ZAjcpklQXlnVNj0wnvyEBBm9zRL/pwupvL/bcFMl9z1LM/dWfi/YxtUMfDBVGSY/mTstzXzLRGlMSpC8bZxJQKBOscnHL2gGdLmllU/X7eJlAJ0R1JrUDxeBqb5hTUqQedyrNxvK7wDMDjesLrPG/EUQBerb3mWItSvdHRnVWbCVNlu+VhChlK8bFxLh/HZFLP1IBNqFgJsWGJOuICLQOVycrwzT/WC0DrHLSyKQCgQIjztZXridKqIN+oTXlAQRmnrdWAnCp1MBjExCIiAQYHzVypnnTgWGK4K0zqtnWquIm8YwU/mUv0sEOosAYSc1eaGbo9OuCCKyKdjG1xg4s7OZSe8SgeAIEHBZVTPPcmPJNUFae4cI9wPQ3BiWMhKBmCJgNxkLd+TMjW7ic02Q1rPIsHEFHIR2gs5NgFJGIhAqAgrWWFnTdWESTwQZbS0mVhF5SQQSiQADC2uaKb7tubo8EaS1ijSM5WAsc2VdCkkE4oQAYYWlmud5CckzQeY+2X+wM925SzaM9AKzlI0BAmVlt3LktudsEkXaXV+eCSIsF+ziyQz6lmsvUlAi0GEECHxKVatc5TUMXwRpkaTR90Nmfo9Xh1JeItBuBIjoR1W1/F4/fn0TZI7d/xoFjjiWK1/7+kFe6rQLAduBcsR2bdN9fhz6JsjoA7ssdOYHdanTPgQIX7ZU8/N+HQYiSKsCue3cDaJD/QYg9SQCkSHA/EBDU474G5V3+vURiCCtVaRePBFEe4v9+g1E6kkEQkeA+SQrVxG95H1fgQnSIoltXAHIL+y+R0EqRoHAGktz/8V8ogBCIch8nj+t0Zh+CwNvjCJTaVMi4AUBAn6pqruP3UJbhrzojScbCkGE4bxdXEigWwA8P2hQUl8iEACBRxl8bE2rhLIlKjSCiIQKtvEhBjx/jAkAhlSVCIxBgICTq5p5dViwhEqQkYd2YwUIU57UCisBaUcisBcBxkorZ4a6TzB0goySZD0Ib5dDJxFoGwKMm6ycuShsf5EQpMDFHrbpVhDmhx2wtCcROAABxhbS+JgqjbRuDvOKhCCth/Zh43hycH2YwUpbEoHxEGAF765lzRuiQCcygrRutYaKp0Gh1VEELm1KBFoIOHy6Na0i2pdHckVKkNZK0jAuJJaF5yIZvS43yoSLaqp5QZQwRE6Q1kpiG+sAfCTKRKTtrkPgSkszl0SddVsIMrqS3ESMt0WdkLSffgSY8NOaarblLWnbCDK6kojD8q9K/xDKDCNE4PeWZi6I0P4Y020lSIskDcMCI9+uBKWfFCFAqFmqqbczo7YTZHQl4XYmKX2lAwFLM9s+X9vucM9Q6baxGUBPOoZOZhExAoOWZvZG7GNc8x0jyOjtluzX14lRT5JPwnpLNd/RqZA7SpDW2y3bWEXA2Z0CQPqNLwIMXFrTzHM6GWHHCTKykhTPA9PFnQRC+o4ZAsSfsdTK8k5HFQuCjDy4F08D5LaUTk+IePjn0y0tuu0jXnKMDUFE0AW7eAqDvuklASmbLgQI/OGqVolN1c5YEaT1TCJ2ATexSm6VT9fEnzIbxhbO4JyoduVO6X8CgdgRpLWSjJwnESRpy3YCv+BJvZAQYNxEGp8TxXmOoBHGkiB7kpLHd4MObwL0IzgmG2bWsSbIyHNJqxDEJbJaSpjDHgtbjxKwNMwCC1FkFXuCtJ5L7OJCBXSJrLsVxRRov01Rt8oBLw2rNE+UGSSCIAIAUZzObkwXK4nskRjljIje9hpN3b00jKJu0YcKJIYgzzyXFE8EsEwWzG7H9AjRB/MDAFYErZUbYkSuTCWOICKrVlX5YT53tFei7E/iaqg7JmSDsKKRpZVBqqx3KvpEEmQPWKKJT4Z4mex01anpM7lf0dmpybTCb/OaOGSVaILsAXC0Z6Ko5tgXB1BlDCgTeKWfnoBxwy4VBBGgtrrvznD23HbFDefuiYewQtmlrPTaTTauAKWGIHsAztvGAlKwBA5Ksn9i26adDQVr2cG6mmaKugOpuVJHkD0jM7tuDGQJJSYsAWNmakYsTokQdhJj3TBj7Y6cuTFOoYUVS2oJsvf5ZKjYw0QliFWFcXBYwHW1HcLjcLCOmNdWp4VfDzdO2KaeIHvfeHFxPtlUImrdes2O0yAkKJYdzFjLGq/dTpUtCYrbd6hdQ5A9CM3jXn24oZxAgDjnfJRv5LpL8U4GbsyqznVbabPVTal3HUH2HdyC3X8oyFnEDNFX4nXdNPAuct1AhPVgZX1V2yS+gnfl1dUE2XfE9V29hyOTWUTEixgY6MbZQMBGZlqPZnO9NWPzPd2Iwf45S4KMMwv0RvFoYjqOgSMAvDrlE+W3BNzNxDdbauW2lOfqOT1JkCkgmzvU/9Km4rwJwJHEOBKEF3tGOU4KjD8z4a6nn7/uyjjKL7ZN2/SnOIUXt1gkQTyOyBzu71MazTcT0T8x480AnuvRRLvF/06EnzHzzx0187PttKnc7gCS7E8SJODo6bsG5pHq9IC5B4QeOOhl8S9wSEDTXtUfIsYgFGyG+JdokBvKoDVj41avhqT8MwhIgkQ1G/iETB5mD9nNXigt4jwPhJlPHx+eRYSZYMwCMJMw8jfx2+jfxCmdp8DY+fSR1KcY2AnxH+EpHv2b+A0KHoODQdYym2swBkHXNaNKpZvt/j+GqAAuK1pePwAAAABJRU5ErkJggg==;fontFamily=Helvetica;fontSize=12;" parent="1" vertex="1">
          <mxGeometry x="-117" y="615" width="40" height="40" as="geometry" />
        </mxCell>
        <mxCell id="AiGol-srTTA_0abKe_U3-24" value="" style="shape=image;verticalLabelPosition=bottom;labelBackgroundColor=default;verticalAlign=top;aspect=fixed;imageAspect=0;image=data:image/png,iVBORw0KGgoAAAANSUhEUgAAAMgAAADICAYAAACtWK6eAAAAAXNSR0IArs4c6QAACBpJREFUeF7t3VFuHEUUheE2Et4Ffja7ICsjrAx2QXhNdpFIGCUClBjPOHW4OWq5vrwmt+/0X/fMX2VD983hDwIIXCRwgw0CCFwmICCmA4ErBATEeCAgIGYAgYwAg2TcVG1CQEA2WWi3mREQkIybqk0ICMgmC+02MwICknFTtQkBAdlkod1mRkBAMm6qNiEgIJsstNvMCAhIxk3VJgQEZJOFdpsZAQHJuKnahICAbLLQbjMjICAZN1WbEBCQTRbabWYEBCTjpmoTAgKyyUK7zYyAgGTcVG1CQEBKC/3mh+9/nWx1/+7Dq8nrudbTBASkNBmfAnJz89NIu4eH3wRkhOSzFxGQZxHN/AMBmeHYvoqAlIgLSAn0cBsBGQZ66XICUgI93EZAhoEKSAloqY2AlEAzSAn0cBsBGQbKICWgpTYCUgLNICXQw20EZBgog5SAltoISAk0g5RAD7cRkGGgDFICWmojICXQDFICPdxGQIaBMkgJaKmNgJRAM0gJ9HAbARkGyiAloKU2AlICzSAl0MNtBGQYKIOUgJbaCEgJNIOUQA+3EZBhoAxSAlpqIyAl0AxSAj3cRkCGgTJICWipjYCUQDNICfRwGwEZBsogJaClNgJSAs0gJdDDbQRkGCiDlICW2ghICTSDlEAPtxGQYaAMUgJaaiMgJdAMUgI93OZFBeT3u9vXk3x+fPt+7HpnDsiZuU2uZ3KtFxeQm+P4OQHxn5rhB0SfOSCTn+3hOH6Z/GIZWcv/cREBuQRPQKKxEpAIW6fo41aBQdZZM8hlZgzCIIeACMj616ot1jqz4zhssSJsnSJbrIwzgzDI+uQwyDozBomY1YoYJEPNIAyyPjkMss6MQSJmtSIGyVAzCIOsTw6DrDNjkIhZrYhBMtQMwiDrk8Mg68wYJGJWK2KQDDWDMMj65DDIOjMGiZjVihgkQ80gDLI+OQyyzoxBIma1IgbJUDMIg6xPDoOsM2OQiFmtiEEy1AzCIOuTwyDrzBgkYlYrYpAMNYMwyPrkMMg6MwaJmNWKGCRDzSAMsj45DLLOjEEiZrUiBslQMwiDrE8Og6wzY5CIWa2IQTLUDDJokD/ubv999u2fx/Hkg+e+O46HS3/3+KNMPsdVQF5eQB4/WPvjbH1+l187Z//UrM7b8pMVR4fwOI77t++XP8OlMRj9bLZYUdqmHxz35u72i0BEH+rvouSzLQ/n6BAKSLbeJw5vMoTXIAgIg6yHREDWmYU/QGCQS6hPPITHiT8bg0y+YsAWK/omFJAQW/ByHwZhkFO//sAZxBlk/evQFmudmTPIcYz+hO3EQ2iLFeUjeneJLZYtli3WlbwJiIAIiIAESrbFCqDNv4LNId0hfX0QTxxevwfxe5D1gT6O0W2MQ3q0BA7pfoqVDc6Z/3N3WyxbrPWptsVaZ+b3IH4PEk3N8PbPGcQZJJrDyW2MM0i0BM4gziDZ4EyGl0EYJJrCySFkkGgJGIRBssGZDC+DMEg0hZNDyCDREjAIg2SDMxleBmGQaAonh5BBoiVgEAbJBmcyvAzCINEUTg4hg0RLwCAMkg3OZHgZhEGiKZwcQgaJloBBGCQbnMnwMgiDRFM4OYQMEi0BgzBINjiT4WUQBommcHIIGSRaAgZhkGxwJsPLIAwSTeHkEDJItAQMwiDZ4EyGl0EYJJrCySFkkGgJGIRBssGZDC+DMEg0hZNDyCDREjAIg2SDMxleBrm7fZ0tw3E89Xro1dfyXustINnKnDkgj18D/dQdPvfa8c//fnXelp/uni1Bp0pAMs5nDkh2R3NVAnKJ5YmfXrjTGWRu1LMrCYiAjD5Ye/oMko31XJWACIiAXMmTgAiIgAhIoFxnkADa/Bumog8xWMQgDMIgDBJ8pTBIAI1BImitIr8HyUj7PchlbrZYtli2WLZYwTerLVYAzRYrgtYqssXKSNti2WKtTw6DrDMLX5QZNSoVOYM4gziDOIMEXzcMEkBzBomgtYqcQTLSziDOIOuTwyDrzJxBIma1IgbJUDMIg6xPDoOsM2OQiFmtiEEy1AzCIOuTwyDrzBgkYlYrYpAMNYMwyPrkMMg6MwaJmNWKGCRDzSAMsj45DLLOjEEiZrUiBslQMwiDrE8Og6wzY5CIWa2IQTLUDLKRQbIRebpq9UHH13pPDuH0o0e/5gHRK1wnua30/Rb/9kX9/yDfAtDUNc8ckKl7fInXEZDSqgpICfRwGwEZBnrpcgJSAj3cRkCGgQpICWipjYCUQDNICfRwGwEZBsogJaClNgJSAs0gJdDDbQRkGCiDlICW2ghICTSDlEAPtxGQYaAMUgJaaiMgJdAMUgI93EZAhoEySAloqY2AlEAzSAn0cBsBGQbKICWgpTYCUgLNICXQw20EZBgog5SAltoISAk0g5RAD7cRkGGgDFICWmojICXQDFICPdxGQIaBMkgJaKmNgJRAM0gJ9HAbARkGyiAloKU2AlICzSAl0MNtBGQYKIOUgJbaCEgJNIOUQA+3EZBhoAxSAlpqIyAl0AxSAj3cRkCGgTJICWipjYCUQH8yyOCf+3cfXg1ezqUuEBAQo4HAFQICYjwQEBAzgEBGgEEybqo2ISAgmyy028wICEjGTdUmBARkk4V2mxkBAcm4qdqEgIBsstBuMyMgIBk3VZsQEJBNFtptZgQEJOOmahMCArLJQrvNjICAZNxUbUJAQDZZaLeZERCQjJuqTQgIyCYL7TYzAgKScVO1CQEB2WSh3WZGQEAybqo2ISAgmyy028wICEjGTdUmBP4CPZrGX9VhhWYAAAAASUVORK5CYII=;fontFamily=Helvetica;fontSize=11;" parent="1" vertex="1">
          <mxGeometry x="-500" y="841" width="60" height="60" as="geometry" />
        </mxCell>
        <mxCell id="AiGol-srTTA_0abKe_U3-25" value="Generate" style="text;html=1;align=center;verticalAlign=middle;whiteSpace=wrap;rounded=0;fontStyle=1;fontFamily=Helvetica;fontSize=11;" parent="1" vertex="1">
          <mxGeometry x="-570" y="880" width="60" height="30" as="geometry" />
        </mxCell>
        <mxCell id="AiGol-srTTA_0abKe_U3-26" value="Generate" style="text;html=1;align=center;verticalAlign=middle;whiteSpace=wrap;rounded=0;fontStyle=1;fontFamily=Helvetica;fontSize=12;" parent="1" vertex="1">
          <mxGeometry x="-570" y="609" width="60" height="30" as="geometry" />
        </mxCell>
        <mxCell id="iFVUcF4WlB_Zclvcx7ng-1" value="" style="shape=image;verticalLabelPosition=bottom;labelBackgroundColor=default;verticalAlign=top;aspect=fixed;imageAspect=0;image=data:image/png,iVBORw0KGgoAAAANSUhEUgAAANcAAADICAYAAAB7/XT7AAAAAXNSR0IArs4c6QAAGyxJREFUeF7tnXmYHHWZx79v9QREF5KuTsKhImS6ehIRIoogIMslICCCqyCCiywoSVcn4dIlXI/BJYiABEm6OiPLxl05FFlRMIoQbkFgAyIYknT1hLBcC5muTgCBJNP17tQkwZkkM3X0UV3Vbz1P/km/5+dX3+nu6t9BkKulCIy+3uzs6KBjGDyBwOOZaRwI4wDnH48H6G8AVjn/GPQGEa9ixirFtu8vT+u6r6WaafNiqM37b4n2U4XSYQCOYuYjAXwycFGMN6HQr5jp3kQi8UDvlN1eCxxLHGsmIOKqGWGwAOr15g6UoOlMOA3gTLAoI3lRlcELuYo5q6drD9Y/vkR0IyDiciPUgNeTBTNLjOkAJjUg/BYhmWHYHbh2zRStpxn5JMcGAiKuJt4Jan7510CKI6oDm5h2IJXzvQwKrq2sxxzM0NY2O3875hNxNWHUk909o6lavRGgrzQh3YgpmPA0ARdZWe0PYdcS9/wirgaP8GijOEEB3UjAIQ1O5Ss8Ey6sZLUrfTmJsS8CIi5fuPwZpwrL92VWnvDn1URrwm1WVvtaEzO2VSoRV4OGO5Uvns5ECxoUvp5hTUvXGvC0sp4lRjOWiKsB46YWzHPBuLYBoRsUksuWnhnboOBtG1bEVeehVw3zRAC31TlsM8ItsHTtjGYkapccIq46jrQ6z9wfCh6rY8imhmLYUyp610+amjTGyURcdRpc9QbzI1iPhwBMqFPIUMIw6JiKnv59KMljllTEVacBVQ3TuSG/UKdwIYahF7lKx1Wmdz4XYhGxSC3iqsMwJvOmToR8HUK1SogbLV37VqsUE9U6RFw1jtwu3Ys/+F519JMA9qgxVEu5MysHVXKdf2ypoiJWjIirxgFTC6XzwXxNjWFaz53oViubPqX1CotORSKuGsZq+3kvp0Yp7zrvWpF+iDEsAsZRVk67pwZEbe0q4qph+NVC8VIwfb+GEC3tyozfVHLaCS1dZAsXJ+KqYXBUo7gMoK4aQrS8KxN9rpJNP9ryhbZggSKugIOi5ksHgDj2Nx0RXVXOpi8IiKmt3URcAYc/lS9dzMSXB3SPkBsvt/TMxAgV3DKlirgCDoVqmI8D2C+ge6Tc7CoOlX04/A+ZiMs/MyS7e3alqv1iANdIujh7cFRyWi6SxYdYtIgrAPyUYeYYmBfANZIuzv4blZw2PpLFh1i0iCsAfNUw5wA4J4BrZF3stR3J1efuvjqyDYRQuIgrAPSUUbyZQW01eyGhKJlVUzvNALja1kXEFWDo1bx5DwhHBHCNrgvTgVYuHdm1amGAF3EFoK4a5p9r2nY6QM6wXQj2l8t616/DriNK+UVcAUZLNcyXAXw4gGt0XZjOsnLpG6LbQPMrF3EFYK4axXUAjQrgGlkXAi4u69oVkW0ghMJFXAGgq4ZZATAmgGuUXc61dO26KDfQ7NpFXAGIq4ZZBKAFcI2sC0M5taJ33hLZBkIoXMQVALpqmM6E3QMCuEbXReEjramZe6PbQPMrF3EFYJ40SncQuK3WOdnMe6/OZZ4JgKttXURcAYZeLZg/AePbAVwj60Jkf6Sc7Xolsg2EULiIKwD0pGHOdo7hCeAaWRcrkd4GU2h9ZBsIoXARVwDoqXnLD2dFWRTANZIuDDxY0bVDI1l8iEWLuALCV/PmGhB2COgeKbf+WfG5/lnxRqSKboFiRVwBB0EtlBaA+fSA7pFyW9eH8W/P0FZFqugWKFbEFXAQkkbPKQT75oDukXFj4M6Krh0fmYJbqFARV8DBGNu9cme72vcSwImAIaLhRjjTymr/EY1iW6tKEVcN45EyzDsZOK6GEK3tyvzq+g6e/NaUrt7WLrQ1qxNx1TAuar70BRDH9rgdYr6knMvMrgFRW7uKuGocftUo/Rzg2B3azUDJxrv7rtH3ciYpyxWAgIgrALTBLmMM82AFeLDGMK3nTjjPymrOXiFyBSQg4goIbrCbmi8uAFGMHsvTs2of71uaoa0Ngme0UZyQYDqeCV8a7E9EK5nt56EkllT+b8I9mEV9QeJHxUfEVYeRSuWXf4ZJcU47icXFRFMr2XS332acw9aJcBozvujqS1gHGzcxlEWVXOetrvYRNBBx1WnQ1HzxbBBFfjFhkA1Ak4XSyQSeAcb+AXH+UrH7LumdNslZJxebS8RVx6FMFcw8M/Q6hmxyKLrf0tOH+0latyNrGS8z+F8ruUxs3sVEXH7uJA+2ar64CES+blAPYZtiolSrH+6dPvFVr8lUo/RbgI/1au/FjkAzynp6rhfbVrcRcTVghFTD/F8AH21A6IaFJErsV85O8Py9saE/oLN9mZXrmtWwZpsUWMTVINCR2sSGMMvKapd5RaEaxasA+q5X+0B2hC9YWe0PgXxbxEnE1cCBiMR2AIwTrZx2u1cMyULpQGL+o1f7wHaMxajicGuG9mbgGCE7irgaPACpfPFiJmrFQ/Kep4T9lfKUrmV+EDRzRgoDMyu69kM/9bWSrYirCaORLBSnENP8JqTylIIIN5ez2jc8GQ8yav5cSn7G0jN7+62zVexFXE0aieR88ziyeQZAn29Syi3SMNADxrVBVxWrefMaEM5vav0+P7Y2tTaXZCKuJo9GKl883VZoOjE+1azUDKwFY876Kq6tZUVxSE9BF1i6dkazWNUzj4irnjS9xupePEqtjp4O0HSAd/PqFsSOgZtsG3PWTNOeDuK/yWfMXPMQJYEHaokRxNeZnV/RtUjubiziCjLidfIZf92KHavbVL8K4EgmOhLMH6hHaAL+DOZ7GcoDVi59dz1iOvMGAdxWj1h+Y1TBnWv0zAq/fmHbi7jCHoGN+cfeuGz76jo6FqwcQ8AxAFL+SqNHwHwHK3RvJZv+qz9fd+u6TXNyT7WFhV3Foauna5Fb1iPiCjDYzXAZM+eFMaO2s8dVqzyOqDqeOTGOiMcx8A5DeYOU6iq7ilUJhVeVlcwbjd6wU80vnwVSvteM3jfPIeIKg7rkbBqBMD8WiriaNsySKAwCY+avmKzY1VAOYuhfdPk0M85brWsPhdF70JzysTAouTbzG5df8g9V2uatMNtmIN/B62auyu3xdph1eM0t4vJKSuygFswlYHw8VBSM15n4vIqeafmD+ERcod4p0UquGsVugM5qiaqJ7kCVL7WmaUtaop6tFCHiatWRacG6xhqlT9vgxa1UGjNfUMllrmqlmjbVIuJqxVFp4Zpa6t3r75yeZNu+rDKt63ethE7E1UqjEYFaWvHd6/13CoLBNl1p5dIvtQJKEVcrjELEamjKuxfblwX80foVhnJ5Re8MfYmPiCtiN3arlKsapjPP0JlvWPeLCfMqWW16srtnNFXtawB8y38SXsjMV1ZyXY1fNT1McSIu/6MmHhsJNERgzNdbuczZgyEnjRV7EapXAjjaL/wwVzOLuPyOltgPIVBPgTFwRUXXLh4OcTJvHkfElwO0l89h+GUVPLPZM+tFXD5HScy3JJA0SmcBfBYBnw7GhxcRlHxZT//ai38qX5rGxM7Wa35WDjhLVmZauvZLLznqYSPiqgdFiTFAIIDIHnemNFV07Sa/CMflX9ipStXzAPa1xRsBPyzr2ky/+YLYi7iCUBOfEQmMNcwvVZknEqgLhC4AXcxgEJzpU88TUBpYYZzT7qoVZWpecT9O0Hn9cU/yHIv5d9yROKUypXONZ58AhiKuANDEpfUIqIXSt8H2lQCpHqtbYtuJY1dPm/CiR3vfZiIu38iGOoyb36P1Ve2Nf6V5IgDnXxcTflTJas4TrkDXmMLS3RJ24hBWlINh8ydA2HHgH+MtEL0K5iIYv0cCf7Kmas8HSrLRSTVMBrAUzMuYaKkCLCXQUruPzShtyjmmYO6tMBzmR3rk8TdG4oCKPuFZj/a+zERcHnCN7jY7lerGjzmMiUTIMDgD0M4juK+xdG2Mh/BbmPhd9dv/IOEu5oGZCY/5zed+9BG9w8zLHMFBoaVs83I7YZsfpLfMV6fs847ffM2wTxrmbAIu8prLtvng1dMyD3u192on4tpIavTcZbsnlI4uwO5iIo0YGRBptezOxOBT/S6NUI3ikwB9xusADrYj5n8p5zI/9eOrGubrAMb78RlkWwZoKQhLmW1TAZusKEWL0majtx1wq1fNm18F4WcAPG36U61WJ6yZPvEFt7h+Xm8rcSWvW7Kr0vEBzVagEduZ/p1nNR4QEZytu+rPgvCcldU8/yajziseAYXu8TOAQ2yZf2flMp6P9EnO7/k62Xaj1kW9BMIyAkxmmAzFTNgwe3MTTBA5H0MbfiWN0tEEdgTm5ZH9u6OIdns9m36jXoXV/4aqV2U1xhnb/fzOVXvbw4jtw8HYZ6OAPP0VqzH1Zve7clAl1+lpCo5qmOcAqOWQ7zctXRvttX7VKD0H8Ce82tfLznlSSMBfiOlOKNX7ytmuV+oVe/M4OxZK49cz/w+AXV1zEB4e9fY7x7z+3cl/c7X1YBArcTl7mZPCBzPjEACf9dB/E0xooaWn3c8IBlAHca22dC3ppamUUfw8g+71Ytt4G3oEhHtt5ocbtU+GmjcfA3k4Vpb5DiuX+ad69BwLcTl/ndbZfCkRptUDSr1jJJi0Vbl0yS1u0ug5hWDf7GY3wuumpWsZL/5Jw7yfgEO92DbXhh8B0exGnM2VNMw7CDjBQz/n9j+Mqvl868iLK5kvfp2ILgUwyQO0UEwIKJR1zfWsZHV+8QjYNXznAh6zdO1AtyaTxrK9CIm/uNmF/Pp1lq6dW+8aVMP8dwBnusR9UUms3793ysdfqyV/ZMU1Zt6KjylK1RGVG6ha+NTNd73dN/ataZPKIwVUrzd3QAeCzxrweNypapg/7/9d62t1a65xgZZyQtm/3jMpUgXzpv6HLKeOVDYxXVXOpS+opbVIimv7eUtTo5TEfQBNrqX5Zvoy4UIvPyqrhukcVer1R9ChLSjYw+0H5Q1z8vpq+ovcTG5OLqrak8rT/R3SN1KNO179lw+t/9B2dwP0uRHs1ik29u+t4QCLSIorVTDvYoanhwTNvhFGyLfGeuNmFbNm2SO+ewXeNpoXWnrGlUnSKF5PA6erROvihDKmnu9gqXzPZ1ix7wZjhOlSdLWlp/81KKnIiStlmAYD2aANh+nn5Uflsd0rd7ar650dlnbxVSvTyVYu/YsRfWaxoo4vVX3FbR3jxy1d27+e5ThnpTHRguFj0kpLT+8eNGekxJUsmDOJ8YOgzYbu5/FHZb/Tn8BYbOU011kdKaN0CYP/LXQOQQtg6rZy6alB3bfm57YfCNk4oTxN+02QnJERV9IonkKgWh5TB+FTfx+mo93OzPL77kVEZ5ez6evdiu0/BugNIoxzs2vl15lodiWbvqReNbruZsW4zcppgR7+REZcqlF8xOULaL14NziOtx+Vfbx7vVTFNpPX6B+rjFS4s5CRwN0Nbq7x4YneSxDttWpqp1mvZC7vXkssXQs0iyUS4koaxWMJ9Nt6wQw7Dtn82fK0zBNudXjcn+IkL0vXVcN0DsTbwy1nJF73+JOD116ShdKBxDzcFDVfU8oG54yEuFKGeTMDp3iF1ep2Xn5UThrmFQRc6N4L/dHS0weNZJeat/zLrCi/co8VFQsqqn28V2mGtrYeFY82XkwmsM4aNlYfRgdZ19by4krO7dmTEnZDFrPVY2CCxlDsvq7eaZOKw/mrhdICMJ/uGp/xspXTPjryR0LzAcLAfMsYXcoZlt45wpM+f62qRumFYZcXefj9cGvZWl5cqbz5AyY0ZUMRf8NRs/X3LF37/rDi8vFjchXbqMN953L5yFNzE+EFoEWWnj6iXvmTxvB/gIKebNny4lIN8zkAgb5Q1gt8g+KsWZ/4UPqtKbv0bi1+/2K/v4K8fUdSQPv06umnthqngTvjNoiL57CUsCeVp9Rn5kbbictZXp+ownU2uefRaDFDIppezqbnDSOKNwFs76lk4q9a2cx/b27r7O9Rte1hP3p6it3CRkQ4rZzVnMWQNV9tJ65kYfnJxMqtNZNr1QDOj8qp9N44iYbMmtgwd7Jjq+9ow7RyvqVr127+WjJv5ongOhu/VfG41cWMeZWcVpepXG0nLjVvXgPC+W6Qo/w6E75RyWpDfhxPzl26JyU6PD/EYfDcip6ZMZjDxkMMVkeZjYfan7B0rS6LYttRXA+B8I8eIEfYZMsflftXzR7Zv2rWmR3v6SLGXeWc9qXBxmrB/B4YzpbPcb5sZdttP9p75q6v1tpkW4lrtPFsMoHtVgLYoVZwre7Ptn3s4FMR3SeUbt4RPWvp6SHLb+Iw1cnLuCnA8b26dqcX25Fs2kpc6vwVR8CuBt8JqVbaTfRn4GcVXTttU0o1X7wURMM+pt9KaUNmEfQLS++fQ5hvYgshpqLLLT3tLJqt6WorcaUM8yIGZtdELFLOHftb+u6POyWrhnmD3wPfBv/WFaupTu5jeI+la0e5m41s0Vbi8rGZSK1cW8Of6MdWNu1sreaIy/dq5E2/damG6Zz26Jz62C5XpYp3O9foe404cdkNRluJSzXMHgAT3KDE6PU1ChL79eoTlqsFcyl4YM95P9fABN6RbhI/waJkqzAd1ptLP1BLzW0jLtc1NrVQbGVfwiwrq12m5s13QNjOT6nO8aRcxRNKAjXdZH5ytowt03etXNo5Oznw1TbiShrFqQQqBCYVVUfGslEKHbye2dm/3efFPwHI2RC0IYeA+yymueaE26xssAWNmwptG3F53FuuuQPYpGxEfDYz/dh/OloE8Of9+8XBg1eqfTSxliUo7SQuZyHhvnEYdt89MP7kadvlLQM7Z/6203fUIQQo0fHZ8pTdXRegDjcebSGugaN8EoklgL/vHL5vYnGIFQEmmlrJpgNvY9AW4lLnmSdBwchbhMXqtpBm6kKAcIOV1c4KGqstxJUyzCsZqGkb4aCAxS/SBJ6xdG3voB20hbjUQmkhmI8JCkn82pcAozq5ok/0vJpgMKnYi2vjMgln5fGIe0K07+0jnY9EgJi+Wc6l/ysIpdiLq7UOZAsyROITKgHGHCunnRekhtiLS82XvgPiq4PAER8h0H+Y30NlXQu0y1XsxZU0zP8k4P2lF3K7CAF/BOidBGOyl1M8N48be3GlDPNpBgI/8fE3EGIdSwIKTrSmarf77S3W4hpTMPdWGE8C6PALRuyFwCYCQQ9qiLW4UoXS6cxctx1U5XZrVwLeDrpoq4+FqmH+CECgJz3tehtJ31sjQK8p226zj99Na2L9zqUWzHvAqNv2xHLjtS8BBn+xomcW+iEQW3GNmbfiY4piPw7wTn6AiK0Q2Op7F/Ml5VzG1/4rsRVXslD8IjHdJbeKEKgLAcbtVk7ztWg0tuJKGeaFDFxRF7ASpO0JMFCy8e6+fjatia241ELpFmbeue3vCgFQNwIJpu/72bQmtuKqG1EJJAQCEhBxBQQnbkLAjYCIy42QvC4EAhIQcQUEJ25CwI2AiMuNkLwuBAISEHEFBCduQsCNgIjLjZC8LgQCEhBxBQQnbkLAjYCIy42QvC4EAhIQcQUEJ25CwI2AiMuNkLwuBAISEHEFBCduQsCNgIjLjZC8LgQCEhBxBQQnbkLAjYCIy42QvC4EAhIQcQUEJ25CwI1AU8W1Y6E0vkq0KwO7so1dwX1j3AqU14VAVAkwKQcTsPWtsNm+bHBfDOU9KPZKKB0v29Xqq2v66BXM0NZu3jtt/h/JuT17Kgl7JgOnRBWU1C0EmkzgFWbMq+S0KwfnHSKuZMGcSYyZAEY3uThJJwTiQGAJmI62cumXnGbeF5dqmDcA+FYcOpQehECYBBK8bvtVuT3eHhBXqlCaxsxzwyxIcguBGBH4haVrJ1OyUDqQGPcCvF2MmpNWhECoBBhKltRC6Townx1qJZJcCMSMAAF/JjVfXAgiOeA7ZoMr7YRNgN4h1Si9APBuYZci+YVA3AhQyjDfY2DbuDUm/QiBsAmQapg9ACaEXYjkFwJxI0CqUXwYoIPi1pj0IwTCJuA8LbwFzF8PuxDJLwTiRYAqzgONqwH+Trwak26EQNgEeKnzneuc/rmEc8IuRfILgZgRuN8Rl3MC320xa0zaEQKhEiDGzaTmlx4A6ng01EokuRCIHQG6hpLdPbtS1X4xdr1JQ0IgTAJsf4dwGyfU3lJfmHVIbiEQNwIMPnVgyYlqmK8B2CluDUo/QiAsAgrTYQPiShrmYgI+HVYhklcIxI0AJTombRBXwfw1MY6PW4PSjxAIiwAnlDEbVyKbeWboYRUieYVAzAi8a+naBzeIyzAvYmB2zBqUdoRAWARWWLrWuVFcy7/JUH4aViWSVwjEjMCjlq59boO45vcczra9KGYNSjtCIBwChNutrHbiBnF1vzCRq31Lw6lEsgqBeBHYuEHo9AFxjb1x2fb22sSb8WpRuhEC4RAg4OKyrl0xeFPQNQB2CKccySoE4kSAz7D0zIJB4io+D9CkOLUovQiBUAgodLQ1NX3338VVMO8B44hQipGkQiBGBGzmvVfnMs8MEldpAZhPj1GP0ooQCIVAx7rETm+cM+H198WVLBQvJ6aLQ6lGkgqB+BCwLV1LOO0MEpeZJYYRnx6lEyEQCoFXLF37yFBxzTePIxt3hlKOJBUCMSHAwFMVXdtniLhS+eIkJno+Jj1KG0IgFAIM/Kyia6cNERe6F49S7dFvg7FNKFVJUiEQAwJMPLWSzXQPFdeGdV1PEeNTMehRWhACoRBgoj0r2fRftxCXml8+C6R8L5SqJKkQiD6B+y1dO3xTG0MOHB/bvXJnu7p+MYBdot+ndCAEmkyA6Swrl3bOFh+4hojL+Q9592rygEi6mBCgF5Vt+/bsPXPiW8OL63pzByRwHwgDjxPlEgJCwJ0AAf9c1rWbBltu8c418O5VMI8C4273kGIhBIQAoJxr6Z3XbU5iq+KSj4dywwgBbwQYeLCia4duzXpYcTnGqfzyaUzKXG9pxEoItBsB+pWlp78yXNcjistxShrmNxTgWgbGtRs66VcIDCsc5qvKucwFIxFyFZfjPG5+j1ZlPh/MUwS3EGhrAow/MfHsip5Z6MbBk7g2BVHz5pFMlCXwCW6B5XUhEC8CVARXb7U+nrkch5Kng0t8iWsTrDFzzUOUDvqmLK6M1+0j3Wz1scQigG5R++xbSjO0tX4YBRLXpgTj8i/sVEX1kwz+JBFNBvPuICSZkSRwEkQdfooRWyEQEoHVAK0GeDUDq0H0qAI81been10zQ+sJWlNN4gqaVPyEQDsQEHG1wyhLj6EQEHGFgl2StgMBEVc7jLL0GAoBEVco2CVpOxAQcbXDKEuPoRD4f0NDuyz58s7uAAAAAElFTkSuQmCC;fontSize=12;" vertex="1" parent="1">
          <mxGeometry x="-780.5" y="572.09" width="60" height="55.81" as="geometry" />
        </mxCell>
        <mxCell id="iFVUcF4WlB_Zclvcx7ng-3" value="" style="shape=image;verticalLabelPosition=bottom;labelBackgroundColor=default;verticalAlign=top;aspect=fixed;imageAspect=0;image=data:image/png,iVBORw0KGgoAAAANSUhEUgAAAMgAAADICAYAAACtWK6eAAAAAXNSR0IArs4c6QAAB+hJREFUeF7t3e2NHFUQRuHedQLIOSDCAOJBxACOAUE6OA3kHBAJeBcZDLK8u6Pb5ZrqrqmH3/fzvPfMrR4vPXeb/xBA4EUCd9gggMDLBAjidCBwgQBBHA8ECOIMIBAj4AaJcdNrCAGCDAnaNmMECBLjptcQAgQZErRtxggQJMZNryEECDIkaNuMESBIjJteQwgQZEjQthkjQJAYN72GECDIkKBtM0aAIDFueg0hQJAhQdtmjABBYtz0GkKAIEOCts0YAYLEuOk1hABBhgRtmzECBIlx02sIAYIMCdo2YwQIEuOm1xACBBkStG3GCBAkxk2vIQQIMiRo24wRIEiMm15DCBBkSNC2GSNAkBg3vYYQIMiQoG0zRoAgMW56DSFAkCFB22aMAEFi3PQaQoAgQ4K2zRgBgsS46TWEAEGGBG2bMQIEiXHTawgBggwJ2jZjBAgS46bXEAIEGRK0bcYIECTGTa8hBAgyJGjbjBEgSIybXkMIEGRI0LYZI0CQGDe9hhAgyJCgbTNGgCAxbnoNIUCQIUHbZowAQWLc9BpCgCBDgrbNGAGCxLjpNYQAQYYEbZsxAq0E+eqXd9/dvdp+2rPVx/fbm79+/Prtnj7aIvAfgXaC3L/aft8T38P77XuC7CGm7acECOI8IHCBAEEcDwQI4hmEBTECbpAYN72GECDIkKBtM0aAIDFueg0hQJAhQdtmjABBYtz0GkKAIEOCts0YAYLEuOk1hECaIB/+TirCbM+fgXyYw5+arFGuyGNtJb1bpQpy7cNLkPXDhtU6q0stCZLD8XSjECQnEoLkcDzdKATJiYQgORxPNwpBciIhSA7H041CkJxICJLD8XSjECQnEoLkcDzdKATJiYQgORxPNwpBciIhSA7H041CkJxICJLD8XSjECQnEoLkcDzdKATJiYQgORxPNwpBciIhSA7HXaNUvADvVgSpYHUpPILsOto5jSsOb8UcOTQuj3L0PghSkfJnc1SEXjFHBbqj90GQipQJEqZMkB0vlj4aVjhlgoTRHZ25GyQcXbxjRegVc8QJrPc8eh8EWc8qrWVF6BVzpAG5MNDR+yBIRcpKrDBlgngGWTo8e3/n5OiDtbSphUZH78MN8tyn+/3Drje0PDzcvz3b21mOPlgLZ3+pSeY+Xv/6x89Lk37S6O71b+8ed3V6fHjz5w/fPJkocyMvrccc6z/jUMFq17kJNs7cxz+C3N3v+gk/gtzo80HmwQqe7ZRumfsgyDORnLF2zwz96Ns2YsFR5ShBCPI/gVuSMOuFhAQhCEG2bXupaiAIQQhCkOv+TrrS5FzflGXm4QZxg7hB3CBukJVvjjI/eY/+psxD+kri27YJ/XbLnwoJlVhKLCWWEkuJtXLhum2f3rZuEDeIG8QN4gZxg1wm4B8KV07Ixzb+Fmsd1q2zUmIpsZRYSiwl1sqd4CHdQ/rKOXnxD9cqvnc3x1MCR5ZxSiwllhJLiaXEWrk6lVhKrJVzosRaovRvoyPLn4pyVImlxFJiKbGUWCuXghJLibVyTm6+bKgoTW5lDiWWEkuJpcRSYq1cnUosJdbKOVFiLVHyLdZLmLxZ8TMyPnn3/V+Ld6+2Xa/yfHy/vfHiuMVPrVv/3v1WHm4X47xKs8wPLA/pHtJLH9KvYsQVb3SCJAnSqWw48pbqKMjj3f23e9btGWQPraS2mWUDQZ4S2Fu6X4qVIEmHfs8wBFmnVcGKIDt+5m09unjLitAr5ogTWO959D7cIOtZpbWsCL1ijjQgFwY6eh8EqUj5it/MeAa59jPI6g8b3t8/bg8P//zo5y3/RmGFLxWfihVz3Aqri88gWZusCKRijiwel8ap2EfFHLfCiiAe0pfOcubXo0sTLjQ6WnS/k74QUnaTitAr5sjm8tx4R++DIBUpP/OQHpn2qD/yi6w1q88HQSJj7WGlxDpZiRUJfG+foz959673rO3dIGdN5gvXRZAvBPixO0FyOJ5uFILkREKQHI6nG4UgOZEQJIfj6UYhSE4kBMnheLpRCJITCUFyOJ5uFILkREKQHI6nG4UgOZEQJIfj6UYhSE4kBMnheLpRCJITCUFyOJ5uFILkRJIqyC28DSQH6/GjfBDk2nkcv8vrryBNkOsvddt8KlZQNsenBAjiPCBwgQBBHA8ECLL+QmanBQElljOAwCIBJdYiKM1mEiDIzNztepEAQRZBaTaTAEFm5m7XiwQIsghKs5kECDIzd7teJECQRVCazSTQTpBITFkvEYvMrU9vAq0E6Y3a6jsSIEjH1Ky5jABBylCbqCMBgnRMzZrLCBCkDLWJOhIgSMfUrLmMAEHKUJuoIwGCdEzNmssIEKQMtYk6EiBIx9SsuYwAQcpQm6gjAYJ0TM2aywgQpAy1iToSIEjH1Ky5jABBylCbqCMBgnRMzZrLCBCkDLWJOhIgSMfUrLmMAEHKUJuoIwGCdEzNmssIEKQMtYk6EiBIx9SsuYwAQcpQm6gjAYJ0TM2aywgQpAy1iToSIEjH1Ky5jABBylCbqCMBgnRMzZrLCBCkDLWJOhIgSMfUrLmMAEHKUJuoIwGCdEzNmssIEKQMtYk6EiBIx9SsuYwAQcpQm6gjAYJ0TM2aywgQpAy1iToSIEjH1Ky5jABBylCbqCMBgnRMzZrLCBCkDLWJOhIgSMfUrLmMAEHKUJuoIwGCdEzNmssIEKQMtYk6EiBIx9SsuYzA3ySmjvrPrAMbAAAAAElFTkSuQmCC;" vertex="1" parent="1">
          <mxGeometry x="-500" y="570" width="60" height="60" as="geometry" />
        </mxCell>
      </root>
    </mxGraphModel>
  </diagram>
</mxfile>
